<svg width="81" height="80" viewBox="0 0 81 80" fill="none" xmlns="http://www.w3.org/2000/svg">
<path d="M74.8391 67.9736C74.8391 67.9736 65.9599 52.713 64.3672 49.976C66.1793 49.4232 68.1097 48.935 68.9118 47.5501C70.2485 45.2425 67.8691 41.4569 68.4939 38.9835C69.1375 36.4378 72.9368 34.235 72.9368 31.6474C72.9368 29.1264 69.0088 26.1812 68.3648 23.6504C67.7357 21.1774 70.108 17.3877 68.7669 15.0829C67.4259 12.7779 62.9591 12.9672 61.1204 11.1979C59.2285 9.37715 59.2343 4.92228 56.9524 3.70209C54.6612 2.47735 50.9375 4.95255 48.3936 4.36623C45.8786 3.78662 43.6317 0 41.0047 0C38.3389 0 34.0987 4.29532 33.4337 4.4499C30.891 5.04097 27.1625 2.57183 24.8737 3.80175C22.594 5.02605 22.608 9.48135 20.7196 11.3052C18.8839 13.0777 14.4169 12.8966 13.08 15.2042C11.7432 17.5114 14.1227 21.2961 13.4981 23.7708C12.8718 26.2519 8.94009 28.7658 8.94009 31.6351C8.94009 34.2229 12.749 36.4188 13.3965 38.9631C14.0258 41.4362 11.6535 45.2254 12.9946 47.5311C13.7246 48.7861 15.3811 49.3013 17.0354 49.7966C17.2285 49.8543 17.5936 50.0703 17.3463 50.4307C16.2145 52.3842 7.10526 68.1055 7.10526 68.1055C6.38058 69.356 6.96906 70.4278 8.41258 70.4886L15.4784 70.7833C16.9219 70.844 18.7328 71.893 19.5033 73.1151L23.2737 79.0981C24.0442 80.3202 25.2668 80.2973 25.9912 79.047C25.9912 79.047 36.5408 60.8336 36.5451 60.8285C36.7568 60.5811 36.9695 60.6319 37.0713 60.7184C38.2256 61.7012 39.8347 62.6817 41.1777 62.6817C42.4947 62.6817 43.7143 61.7587 44.9206 60.7294C45.0188 60.6458 45.2577 60.4743 45.4324 60.8302C45.4352 60.8358 55.9731 78.9495 55.9731 78.9495C56.6995 80.1982 57.9222 80.2194 58.6904 78.9958L62.4502 73.0057C63.2185 71.7827 65.0274 70.7297 66.4709 70.6667L73.5361 70.3589C74.979 70.2955 75.5655 69.2221 74.8391 67.9736ZM52.6819 51.5903C44.8696 56.1353 35.4922 55.6483 28.3298 51.1305C17.8347 44.408 14.3814 30.5016 20.6906 19.6122C27.0717 8.59713 41.099 4.71041 52.2132 10.7636C52.2716 10.7954 52.3293 10.8282 52.3873 10.8607C52.4697 10.9063 52.5518 10.9525 52.6337 10.9992C56.0626 12.9761 59.0359 15.8452 61.1649 19.5047C67.6719 30.6897 63.8667 45.0833 52.6819 51.5903Z" fill="#1C63B8"/>
<path d="M50.8954 14.291C50.863 14.2722 50.8301 14.2547 50.7977 14.2361C44.8606 10.7999 37.2934 10.5487 30.9514 14.2384C21.5401 19.7137 18.3376 31.8246 23.8129 41.2357C25.4837 44.1076 27.7732 46.4001 30.4146 48.0454C30.6392 48.1876 30.8665 48.3275 31.0986 48.462C40.5201 53.9202 52.6245 50.6959 58.0825 41.2749C63.5403 31.8534 60.3169 19.7492 50.8954 14.291ZM53.2524 29.6928L49.9535 32.9082C48.9317 33.904 48.2931 35.8696 48.5346 37.2759L49.3133 41.8162C49.5546 43.2225 48.7188 43.8298 47.4558 43.1659L43.3782 41.0221C42.1152 40.3582 40.0486 40.3582 38.7856 41.0221L34.7082 43.1659C33.4452 43.8298 32.6092 43.2225 32.8505 41.8162L33.6292 37.2759C33.8705 35.8696 33.2318 33.904 32.2101 32.9082L28.9114 29.6928C27.8895 28.697 28.209 27.7142 29.621 27.5088L34.1796 26.8464C35.5916 26.6412 37.2636 25.4264 37.8951 24.147L39.9338 20.0162C40.5653 18.7368 41.5987 18.7368 42.23 20.0162L44.2689 24.147C44.9004 25.4264 46.5722 26.6412 47.9844 26.8464L52.543 27.5088C53.9548 27.7142 54.2741 28.697 53.2524 29.6928Z" fill="#1C63B8"/>
</svg>
