<svg width="81" height="80" viewBox="0 0 81 80" fill="none" xmlns="http://www.w3.org/2000/svg">
<path d="M3.20694 45.7817L8.42747 46.6373C9.25226 50.6347 10.8307 54.4388 13.0784 57.8458L9.98689 62.1606C9.34543 63.0338 9.35646 64.2255 10.0141 65.0868C10.7936 66.0396 11.6219 66.9516 12.4955 67.819C13.3769 68.7018 14.2854 69.5153 15.2211 70.3018C16.0829 70.9607 17.2762 70.9717 18.15 70.3289L22.462 67.2359C25.8658 69.485 29.667 71.0645 33.6624 71.8897L34.5167 77.1143C34.6794 78.183 35.5322 79.0137 36.6049 79.1482C37.3479 79.2324 38.0964 79.2838 38.8613 79.3219C39.2327 79.34 39.5954 79.2058 39.8656 78.9505C40.1358 78.6951 40.2902 78.3405 40.2931 77.9686V67.1018C40.2892 66.3693 39.7073 65.7706 38.9752 65.7458C25.2724 65.0355 14.5262 53.7178 14.5262 39.9966C14.5262 26.2754 25.2724 14.9577 38.9752 14.2474C39.7073 14.2226 40.2892 13.624 40.2931 12.8913V2.03402C40.2913 1.66237 40.1379 1.30752 39.8683 1.05148C39.5988 0.795451 39.2365 0.660677 38.8652 0.677999C38.1031 0.709626 37.3497 0.763037 36.6047 0.837971C35.5318 0.984163 34.6825 1.81814 34.5166 2.8882L33.6623 8.1128C29.667 8.93916 25.8659 10.5189 22.4619 12.7678L18.1499 9.67354C17.276 9.03063 16.0827 9.04166 15.2209 9.7007C14.2707 10.4813 13.361 11.31 12.4954 12.1835C11.6152 13.0446 10.7866 13.9569 10.0139 14.9157C9.35357 15.778 9.34255 16.9729 9.98676 17.8473L13.0783 22.1621C10.8311 25.5679 9.25265 29.3704 8.42734 33.3665L3.20681 34.2208C2.1378 34.3841 1.30723 35.2373 1.17285 36.3104C0.905925 38.7438 0.905925 41.1992 1.17285 43.6326C1.29345 44.7234 2.12428 45.6014 3.20694 45.7817Z" fill="#1C63B8"/>
<path d="M38.9971 19.7022C28.2846 20.3808 19.9434 29.2672 19.9434 40.0012C19.9434 50.7351 28.2847 59.6215 38.9971 60.3001C39.338 60.3142 39.6697 60.1879 39.9147 59.9505C40.1597 59.7131 40.2966 59.3855 40.2935 59.0445V20.9579C40.2967 20.6167 40.1599 20.2892 39.9147 20.0518C39.6697 19.8145 39.338 19.6881 38.9971 19.7022Z" fill="#1C63B8"/>
<path d="M49.7837 21.0175H43.0039V23.7294H49.7837C52.0277 23.7227 53.845 21.9054 53.8516 19.6615V11.2762C55.7196 10.6159 56.8401 8.70578 56.505 6.75305C56.17 4.80032 54.477 3.37305 52.4956 3.37305C50.5144 3.37305 48.8213 4.80032 48.4862 6.75305C48.1512 8.70578 49.2717 10.6159 51.1396 11.2762V19.6615C51.1396 20.4105 50.5325 21.0175 49.7837 21.0175Z" fill="#1C63B8"/>
<path d="M43.0039 29.1534H56.5637C57.3126 29.1534 57.9197 28.5464 57.9197 27.7974C57.9197 27.0485 57.3126 26.4414 56.5637 26.4414H43.0039V29.1534Z" fill="#1C63B8"/>
<path d="M43.0039 58.9849H49.7837C50.5327 58.9849 51.1397 59.5919 51.1397 60.3409V68.7262C49.2718 69.3865 48.1513 71.2966 48.4864 73.2493C48.8214 75.2021 50.5144 76.6293 52.4958 76.6293C54.477 76.6293 56.1701 75.2021 56.5052 73.2493C56.8402 71.2966 55.7197 69.3865 53.8518 68.7262V60.3409C53.8451 58.0969 52.0278 56.2796 49.7839 56.2729H43.004V58.9849H43.0039Z" fill="#1C63B8"/>
<path d="M63.3435 45.425H43.0039V48.137H63.3435C64.0924 48.137 64.6995 48.744 64.6995 49.493V56.5224C62.8316 57.1828 61.7111 59.0928 62.0461 61.0456C62.3812 62.9983 64.0742 64.4256 66.0555 64.4256C68.0367 64.4256 69.7299 62.9983 70.0649 61.0456C70.4 59.0928 69.2795 57.1828 67.4116 56.5224V49.493C67.4047 47.249 65.5874 45.4317 63.3435 45.425Z" fill="#1C63B8"/>
<path d="M76.9033 35.9334C75.1856 35.9404 73.6574 37.0257 73.0848 38.6453H43.0039V41.3572H73.0848C73.7777 43.3024 75.8201 44.418 77.8313 43.9498C79.8426 43.4815 81.1822 41.5787 80.9447 39.5274C80.7073 37.4762 78.9682 35.9297 76.9033 35.9334Z" fill="#1C63B8"/>
<path d="M57.9197 52.2049C57.9197 51.456 57.3126 50.8489 56.5637 50.8489H43.0039V53.5608H56.5637C57.3126 53.5609 57.9197 52.9538 57.9197 52.2049Z" fill="#1C63B8"/>
<path d="M67.4116 30.5095V23.4801C69.2795 22.8197 70.4 20.9096 70.0649 18.9569C69.7299 17.0042 68.0369 15.5769 66.0555 15.5769C64.0743 15.5769 62.3812 17.0042 62.0461 18.9569C61.7111 20.9096 62.8316 22.8197 64.6995 23.4801V30.5095C64.6995 31.2584 64.0924 31.8655 63.3435 31.8655H43.0039V34.5774H63.3435C65.5876 34.5706 67.4049 32.7533 67.4116 30.5095Z" fill="#1C63B8"/>
</svg>
