<svg width="130" height="41" viewBox="0 0 130 41" fill="none" xmlns="http://www.w3.org/2000/svg">
<path d="M45.5244 15.9282C46.0322 16.4541 46.7412 16.717 47.6512 16.717C48.5612 16.717 49.2382 16.5194 49.6824 16.1244C50.1348 15.7202 50.4482 15.1847 50.5782 14.5935C50.5952 14.4981 50.645 14.4116 50.7192 14.3488C50.7933 14.2861 50.8871 14.251 50.9844 14.2497H51.7076C51.7986 14.2507 51.8856 14.2874 51.9498 14.3517C52.014 14.416 52.0503 14.5028 52.0508 14.5935C52.0118 15.1555 51.8362 15.6996 51.539 16.179C51.1893 16.7611 50.6882 17.2383 50.0887 17.5603C49.3399 17.9576 48.4991 18.1515 47.6512 18.1225C46.8483 18.1408 46.0543 17.9527 45.3457 17.5765C44.7032 17.2281 44.1729 16.7058 43.8162 16.0698C43.4477 15.4011 43.2457 14.6542 43.2271 13.8917C43.2163 13.5789 43.2115 13.1151 43.2129 12.5003C43.2142 11.8855 43.219 11.4224 43.2271 11.111C43.2457 10.3485 43.4477 9.60155 43.8162 8.93287C44.1729 8.29692 44.7032 7.77454 45.3457 7.42621C46.0539 7.04854 46.8479 6.85907 47.6512 6.87613C48.4991 6.84713 49.3399 7.04104 50.0887 7.43834C50.6882 7.76033 51.1893 8.23756 51.539 8.81962C51.8328 9.29982 52.005 9.84396 52.0407 10.4052C52.0402 10.4958 52.0039 10.5827 51.9397 10.647C51.8755 10.7113 51.7885 10.7479 51.6974 10.749H50.9844C50.8875 10.7465 50.7943 10.711 50.7203 10.6485C50.6464 10.5859 50.5963 10.5 50.5782 10.4052C50.4526 9.81597 50.1451 9.28065 49.6987 8.87422C49.2599 8.48054 48.5828 8.28302 47.6674 8.28167C46.752 8.28032 46.0431 8.54323 45.5407 9.07039C45.0342 9.59621 44.7634 10.3013 44.7282 11.1858C44.7173 11.4972 44.7119 11.9341 44.7119 12.4963C44.7119 13.0585 44.7119 13.5075 44.7282 13.8088C44.7526 14.6959 45.018 15.4024 45.5244 15.9282Z" fill="white"/>
<path d="M61.0126 13.922C61.0126 14.1727 61.0004 14.4114 60.9801 14.6399C60.8866 15.7023 60.5183 16.5483 59.8751 17.178C59.2319 17.8076 58.3611 18.1224 57.2629 18.1224C56.166 18.1224 55.296 17.8076 54.6527 17.178C54.0095 16.5483 53.6412 15.7023 53.5477 14.6399C53.5356 14.5266 53.5315 14.286 53.5315 13.922C53.5315 13.5579 53.5315 13.2869 53.5477 13.1717C53.6303 12.1106 53.996 11.2652 54.6446 10.6356C55.2933 10.006 56.166 9.69116 57.2629 9.69116C58.3611 9.69116 59.2346 10.006 59.8832 10.6356C60.5319 11.2652 60.8975 12.1106 60.9801 13.1717C61.0004 13.4022 61.0126 13.651 61.0126 13.922ZM58.8859 11.6427C58.506 11.2383 57.9637 11.036 57.2609 11.036C56.5581 11.036 56.0198 11.2383 55.6359 11.6427C55.237 12.0879 55.0021 12.6549 54.9696 13.2505C54.9595 13.3759 54.9534 13.6004 54.9534 13.922C54.9534 14.2435 54.9534 14.4478 54.9696 14.563C55.0014 15.162 55.2379 15.7322 55.6399 16.1789C56.0218 16.5834 56.5635 16.7856 57.2649 16.7856C57.9657 16.7856 58.5081 16.5834 58.8899 16.1789C59.2895 15.7304 59.5237 15.1598 59.5541 14.561C59.5745 14.3305 59.5846 14.1181 59.5846 13.9199C59.5846 13.7217 59.5846 13.4993 59.5541 13.2485C59.5207 12.6533 59.285 12.0871 58.8859 11.6427Z" fill="white"/>
<path d="M65.2457 9.98036C65.629 9.76982 66.0637 9.66968 66.501 9.69116C67.7197 9.69116 68.5769 10.1435 69.0726 11.0482C69.3421 10.6419 69.6952 10.2972 70.1085 10.037C70.5736 9.78495 71.0989 9.66398 71.6279 9.68712C72.6543 9.68712 73.4154 9.99384 73.911 10.6073C74.4066 11.2207 74.6551 12.0904 74.6565 13.2161V17.544C74.6549 17.6556 74.6097 17.7622 74.5304 17.8412C74.4511 17.9201 74.344 17.9651 74.2319 17.9667H73.651C73.5392 17.9646 73.4327 17.9193 73.3538 17.8405C73.275 17.7616 73.2301 17.6553 73.2285 17.544V13.3759C73.2285 11.8146 72.6117 11.034 71.378 11.034C71.1254 11.0226 70.8735 11.0672 70.6403 11.1644C70.407 11.2616 70.1984 11.4091 70.0293 11.5962C69.6948 11.9697 69.5276 12.5265 69.5276 13.2667V17.544C69.526 17.6556 69.4807 17.7622 69.4015 17.8412C69.3222 17.9201 69.2151 17.9651 69.103 17.9667H68.5241C68.412 17.9651 68.3049 17.9201 68.2257 17.8412C68.1464 17.7622 68.1012 17.6556 68.0996 17.544V13.3759C68.0996 11.8146 67.4828 11.034 66.2491 11.034C65.9965 11.0226 65.7446 11.0672 65.5114 11.1644C65.2781 11.2616 65.0695 11.4091 64.9004 11.5962C64.5672 11.9704 64.3986 12.5265 64.3986 13.2667V17.544C64.3993 17.5995 64.3884 17.6546 64.3667 17.7057C64.3451 17.7568 64.3131 17.803 64.2727 17.8413C64.2345 17.8812 64.1884 17.913 64.1374 17.9345C64.0864 17.9561 64.0316 17.967 63.9761 17.9667H63.3952C63.3395 17.9673 63.2842 17.9565 63.2328 17.9349C63.1814 17.9133 63.1351 17.8815 63.0966 17.8413C63.0566 17.8028 63.025 17.7566 63.0037 17.7055C62.9824 17.6543 62.9718 17.5994 62.9727 17.544V10.2635C62.9721 10.2085 62.9828 10.1539 63.0041 10.1031C63.0254 10.0524 63.0569 10.0065 63.0966 9.96823C63.1351 9.92805 63.1814 9.89618 63.2328 9.87461C63.2842 9.85304 63.3395 9.84222 63.3952 9.84284H63.9843C64.0397 9.8425 64.0946 9.85345 64.1456 9.87501C64.1966 9.89658 64.2426 9.9283 64.2808 9.96823C64.3209 10.0063 64.3528 10.0521 64.3745 10.1029C64.3961 10.1537 64.4071 10.2083 64.4068 10.2635V10.7489C64.6379 10.4448 64.9221 10.1845 65.2457 9.98036Z" fill="white"/>
<path d="M78.3574 20.5109C78.3558 20.6225 78.3106 20.7291 78.2313 20.808C78.1521 20.887 78.045 20.932 77.9329 20.9336H77.354C77.2419 20.932 77.1348 20.887 77.0555 20.808C76.9763 20.7291 76.931 20.6225 76.9294 20.5109V10.2676C76.9315 10.1564 76.977 10.0503 77.0562 9.97177C77.1354 9.89327 77.2422 9.84851 77.354 9.84696H77.9329C78.0446 9.84851 78.1514 9.89327 78.2306 9.97177C78.3098 10.0503 78.3553 10.1564 78.3574 10.2676V10.753C78.8896 10.0451 79.7021 9.69124 80.7949 9.69124C81.4133 9.68289 82.0228 9.83929 82.5601 10.1442C83.0943 10.4518 83.5334 10.8995 83.8296 11.4386C84.1605 12.0431 84.341 12.7179 84.3557 13.4063C84.3658 13.5115 84.3719 13.6773 84.3719 13.9058C84.3719 14.1344 84.3719 14.3103 84.3557 14.4215C84.3394 15.1082 84.1561 15.7806 83.8215 16.3812C83.5247 16.9155 83.089 17.3605 82.5601 17.6695C82.0203 17.9755 81.4079 18.132 80.7868 18.1225C80.2759 18.1386 79.7684 18.034 79.306 17.8171C78.9358 17.6406 78.6113 17.3818 78.3574 17.0607V20.5109ZM79.0155 16.179C79.2303 16.3854 79.4853 16.5458 79.7648 16.6502C80.0443 16.7545 80.3424 16.8006 80.6405 16.7857C80.9429 16.8 81.2447 16.7488 81.5253 16.6357C81.8058 16.5226 82.0584 16.3502 82.2655 16.1304C82.6914 15.6332 82.9274 15.0022 82.9318 14.3487C82.9318 14.2456 82.948 14.1 82.948 13.9119C82.948 13.7238 82.948 13.5802 82.9318 13.4751C82.9278 12.8221 82.6917 12.1917 82.2655 11.6954C82.0584 11.4756 81.8058 11.3033 81.5253 11.1901C81.2447 11.077 80.9429 11.0258 80.6405 11.0402C80.3469 11.0303 80.0543 11.0789 79.7798 11.1831C79.5053 11.2873 79.2545 11.4449 79.0419 11.6469C78.6132 12.0701 78.3707 12.6454 78.3676 13.2466L78.3513 13.8533L78.3676 14.4782C78.3879 15.1981 78.6093 15.7745 79.0155 16.179Z" fill="white"/>
<path d="M87.6098 17.8412C87.5713 17.8814 87.525 17.9133 87.4736 17.9349C87.4222 17.9564 87.367 17.9672 87.3112 17.9666H86.7343C86.6222 17.9651 86.5152 17.92 86.4359 17.8411C86.3566 17.7622 86.3114 17.6556 86.3098 17.544V7.30067C86.3109 7.18871 86.3559 7.0816 86.4352 7.00223C86.5145 6.92287 86.6219 6.87756 86.7343 6.87598H87.3133C87.425 6.87753 87.5318 6.92229 87.611 7.00078C87.6902 7.07928 87.7357 7.18537 87.7378 7.29663V17.544C87.7381 17.5996 87.727 17.6547 87.7049 17.7059C87.6829 17.757 87.6505 17.8031 87.6098 17.8412Z" fill="white"/>
<path d="M95.9522 10.7528C96.5995 11.4606 96.9238 12.4233 96.9252 13.6407V14.0614C96.9236 14.173 96.8783 14.2796 96.7991 14.3585C96.7198 14.4375 96.6127 14.4825 96.5006 14.4841H91.1077V14.5771C91.1003 14.8751 91.1526 15.1717 91.2614 15.4494C91.3702 15.7272 91.5333 15.9806 91.7414 16.195C91.9488 16.3917 92.1937 16.5449 92.4617 16.6457C92.7297 16.7464 93.0152 16.7926 93.3014 16.7815C93.7174 16.8005 94.1328 16.7316 94.5202 16.5792C94.8139 16.4381 95.0774 16.2417 95.2961 16.0008C95.3611 15.9306 95.4382 15.8724 95.5236 15.8289C95.6105 15.7936 95.7041 15.7777 95.7978 15.7824H96.2691C96.3271 15.7807 96.3848 15.791 96.4386 15.8125C96.4925 15.8341 96.5413 15.8666 96.5819 15.9078C96.6217 15.9454 96.6523 15.9915 96.6713 16.0427C96.6903 16.0939 96.6972 16.1488 96.6916 16.2031C96.6266 16.5315 96.4655 16.8334 96.2284 17.0707C95.9085 17.4024 95.5176 17.6581 95.0848 17.819C94.5167 18.0352 93.9115 18.139 93.3034 18.1243C92.6766 18.135 92.0587 17.9756 91.5159 17.6632C90.9921 17.3551 90.5613 16.9122 90.2687 16.381C89.9543 15.8209 89.7639 15.2003 89.7102 14.5609C89.6898 14.2475 89.6797 14.0088 89.6797 13.841C89.6797 13.6731 89.6898 13.4365 89.7102 13.123C89.7642 12.5066 89.955 11.9098 90.2687 11.3757C90.5663 10.8644 90.9927 10.4392 91.5058 10.142C92.0521 9.83209 92.6727 9.67553 93.3014 9.68904C94.4213 9.69039 95.3049 10.045 95.9522 10.7528ZM95.5134 13.1796V13.125C95.5255 12.8428 95.4775 12.5611 95.3725 12.2987C95.2674 12.0362 95.1078 11.7989 94.9041 11.6022C94.4637 11.2096 93.8857 11.0054 93.2953 11.0339C92.7253 11.0204 92.1721 11.2269 91.7516 11.6103C91.5417 11.8026 91.3753 12.0371 91.2632 12.2982C91.1512 12.5593 91.0961 12.8411 91.1016 13.125V13.1716L95.5134 13.1796Z" fill="white"/>
<path d="M99.6998 17.6694C99.633 17.7434 99.5596 17.8111 99.4804 17.8716C99.3994 17.9326 99.2995 17.9633 99.1981 17.9586H98.477C98.4275 17.9594 98.3784 17.9501 98.3326 17.9313C98.2869 17.9125 98.2454 17.8847 98.2109 17.8494C98.1765 17.8171 98.1491 17.7783 98.1302 17.7352C98.1114 17.6921 98.1015 17.6456 98.1012 17.5986C98.0993 17.5211 98.1213 17.4449 98.1642 17.3802L101.034 13.8127L98.3124 10.4253C98.2693 10.3599 98.2473 10.283 98.2495 10.2048C98.2497 10.1581 98.2596 10.1119 98.2784 10.0691C98.2973 10.0264 98.3248 9.98788 98.3592 9.95608C98.3937 9.92081 98.4351 9.89293 98.4809 9.87415C98.5266 9.85537 98.5758 9.84609 98.6252 9.84687H99.3788C99.4799 9.84239 99.5795 9.87236 99.6612 9.93181C99.7403 9.99247 99.8137 10.0602 99.8806 10.1341L101.969 12.751L104.039 10.1442C104.105 10.0703 104.179 10.0026 104.258 9.94193C104.34 9.88247 104.439 9.85251 104.54 9.85699H105.261C105.311 9.85616 105.361 9.86542 105.407 9.88419C105.453 9.90296 105.495 9.93086 105.529 9.96619C105.563 9.99828 105.591 10.0368 105.61 10.0795C105.628 10.1223 105.638 10.1683 105.639 10.2149C105.64 10.2929 105.618 10.3695 105.576 10.4354L102.846 13.8532L105.69 17.3984C105.731 17.4637 105.753 17.5395 105.753 17.6168C105.753 17.6638 105.743 17.7103 105.724 17.7534C105.705 17.7965 105.678 17.8353 105.643 17.8676C105.608 17.9029 105.567 17.9308 105.52 17.9496C105.474 17.9684 105.425 17.9776 105.375 17.9768H104.624C104.522 17.9815 104.422 17.9508 104.341 17.8898C104.262 17.8293 104.189 17.7616 104.122 17.6876L101.912 14.9048L99.6998 17.6694Z" fill="white"/>
<path d="M45.1262 32.8271H50.3953C50.4507 32.8267 50.5056 32.8377 50.5566 32.8592C50.6076 32.8808 50.6536 32.9125 50.6918 32.9524C50.7322 32.9907 50.7642 33.0369 50.7859 33.088C50.8075 33.1392 50.8184 33.1942 50.8178 33.2497V33.812C50.8167 33.9232 50.7719 34.0296 50.6929 34.1082C50.6139 34.1869 50.507 34.2315 50.3953 34.2326H44.0598C44.0042 34.2335 43.949 34.223 43.8977 34.2018C43.8463 34.1805 43.7999 34.1491 43.7612 34.1092C43.7209 34.0709 43.6889 34.0248 43.6672 33.9736C43.6455 33.9225 43.6347 33.8675 43.6353 33.812V23.7244C43.6349 23.6692 43.6459 23.6146 43.6676 23.5638C43.6892 23.513 43.7211 23.4672 43.7612 23.4291C43.7997 23.3889 43.846 23.3571 43.8974 23.3355C43.9488 23.3139 44.0041 23.3031 44.0598 23.3037H50.2693C50.3811 23.3048 50.4879 23.3494 50.5669 23.4281C50.6459 23.5068 50.6908 23.6131 50.6918 23.7244V24.2866C50.6927 24.342 50.6822 24.3969 50.6609 24.448C50.6396 24.4992 50.6079 24.5454 50.5679 24.5839C50.5295 24.6241 50.4831 24.6559 50.4317 24.6775C50.3804 24.6991 50.3251 24.7099 50.2693 24.7093H45.1262V28.0037H49.924C49.9796 28.0028 50.0348 28.0133 50.0862 28.0346C50.1375 28.0558 50.184 28.0873 50.2226 28.1271C50.263 28.1654 50.295 28.2115 50.3167 28.2627C50.3383 28.3138 50.3492 28.3689 50.3486 28.4244V28.9866C50.347 29.0982 50.3018 29.2048 50.2225 29.2837C50.1432 29.3627 50.0361 29.4077 49.924 29.4093H45.1262V32.8271Z" fill="white"/>
<path d="M59.8671 34.1092C59.8285 34.1491 59.782 34.1806 59.7306 34.2018C59.6793 34.223 59.6241 34.2335 59.5685 34.2326H58.9896C58.934 34.2335 58.8788 34.223 58.8274 34.2018C58.7761 34.1806 58.7296 34.1491 58.691 34.1092C58.6506 34.0709 58.6186 34.0248 58.597 33.9736C58.5753 33.9225 58.5644 33.8675 58.5651 33.812V29.6904C58.5651 28.9097 58.3721 28.3158 57.9862 27.9087C57.5409 27.5179 56.9678 27.3024 56.3744 27.3024C55.7809 27.3024 55.2078 27.5179 54.7626 27.9087C54.3712 28.3131 54.1749 28.907 54.1735 29.6904V33.812C54.1735 33.9235 54.129 34.0305 54.0498 34.1094C53.9705 34.1883 53.8631 34.2326 53.751 34.2326H53.1701C53.0583 34.2316 52.9515 34.1869 52.8725 34.1082C52.7935 34.0296 52.7486 33.9232 52.7476 33.812V26.5314C52.7491 26.4202 52.7941 26.3139 52.8729 26.235C52.9518 26.1561 53.0583 26.1109 53.1701 26.1088H53.751C53.8631 26.1098 53.9702 26.1548 54.0493 26.2339C54.1283 26.313 54.173 26.4198 54.1735 26.5314V27.0148C54.4282 26.6937 54.7534 26.4349 55.1241 26.2584C55.5865 26.0415 56.094 25.9369 56.6049 25.953C57.2172 25.942 57.8222 26.0876 58.3619 26.3757C58.872 26.6548 59.2887 27.0767 59.5604 27.5891C59.8606 28.165 60.0094 28.8072 59.993 29.4558V33.812C59.9937 33.8675 59.9828 33.9225 59.9611 33.9736C59.9395 34.0248 59.9075 34.0709 59.8671 34.1092Z" fill="white"/>
<path d="M66.9156 26.2624C67.2863 26.4389 67.6115 26.6976 67.8662 27.0187V26.5354C67.8667 26.4238 67.9114 26.3169 67.9904 26.2378C68.0695 26.1587 68.1766 26.1138 68.2887 26.1127H68.8696C68.9814 26.1148 69.0879 26.1601 69.1668 26.2389C69.2456 26.3178 69.2906 26.4241 69.2921 26.5354V34.1233C69.2921 35.2275 68.9787 36.0944 68.3517 36.7241C67.7247 37.3537 66.8045 37.6685 65.5912 37.6685C64.9142 37.6891 64.2406 37.5664 63.6148 37.3085C63.1485 37.1204 62.7401 36.8136 62.4306 36.4187C62.1931 36.1061 62.052 35.7317 62.0243 35.3408C62.0188 35.2857 62.0267 35.2302 62.0472 35.1789C62.0677 35.1275 62.1002 35.0817 62.1421 35.0455C62.1818 35.0052 62.2293 34.9734 62.2816 34.9518C62.334 34.9303 62.3902 34.9195 62.4468 34.9201H62.9181C63.0256 34.9141 63.1317 34.9472 63.2167 35.0131C63.3105 35.1071 63.385 35.2184 63.436 35.3408C63.5691 35.6145 63.7749 35.8467 64.0312 36.0122C64.3237 36.2212 64.7943 36.3256 65.4429 36.3256C67.0679 36.3256 67.8804 35.6515 67.8804 34.3033V33.3184C67.3462 34.0282 66.5357 34.3801 65.4429 34.3801C64.8248 34.3882 64.2156 34.2326 63.6778 33.9291C63.1456 33.6217 62.7069 33.1765 62.4082 32.6409C62.0777 32.0391 61.8972 31.367 61.8821 30.6812L61.8679 30.1655L61.8821 29.6498C61.8973 28.9702 62.0749 28.304 62.4001 27.7063C62.6975 27.1725 63.133 26.7276 63.6615 26.4181C64.2014 26.1123 64.8137 25.9559 65.4348 25.9651C65.945 25.9464 66.4525 26.0483 66.9156 26.2624ZM63.9682 27.9571C63.542 28.4534 63.306 29.0838 63.302 29.7368L63.2857 30.1736L63.302 30.6104C63.306 31.2634 63.542 31.8938 63.9682 32.3901C64.1753 32.6101 64.4278 32.7828 64.7083 32.8963C64.9888 33.0098 65.2908 33.0613 65.5932 33.0474C65.8898 33.0617 66.1861 33.0152 66.4639 32.9108C66.7416 32.8065 66.9949 32.6464 67.2081 32.4407C67.636 31.9796 67.872 31.3738 67.8682 30.7459C67.8784 30.6408 67.8825 30.4547 67.8825 30.1837C67.8825 29.9127 67.8825 29.7246 67.8682 29.6215C67.8357 28.8935 67.6157 28.3258 67.2081 27.9187C66.9943 27.7138 66.7409 27.5544 66.4633 27.4501C66.1857 27.3458 65.8897 27.2988 65.5932 27.312C65.2916 27.2961 64.9902 27.3456 64.7096 27.4569C64.4291 27.5683 64.1761 27.739 63.9682 27.9571Z" fill="white"/>
<path d="M73.1026 24.7558C73.0641 24.796 73.0177 24.8278 72.9664 24.8494C72.915 24.871 72.8597 24.8818 72.804 24.8812H71.9062C71.8508 24.8815 71.7959 24.8706 71.7449 24.849C71.6939 24.8274 71.6478 24.7957 71.6096 24.7558C71.5692 24.7175 71.5372 24.6713 71.5156 24.6202C71.4939 24.569 71.483 24.514 71.4837 24.4585V23.5687C71.4847 23.4574 71.5296 23.351 71.6086 23.2724C71.6876 23.1937 71.7944 23.1491 71.9062 23.148H72.7999C72.8555 23.1471 72.9107 23.1576 72.9621 23.1788C73.0134 23.2001 73.0599 23.2316 73.0985 23.2714C73.1389 23.3097 73.1709 23.3558 73.1925 23.407C73.2142 23.4581 73.2251 23.5131 73.2244 23.5687V24.4585C73.2256 24.5137 73.2154 24.5686 73.1944 24.6197C73.1735 24.6708 73.1422 24.7171 73.1026 24.7558ZM72.9462 34.1092C72.9075 34.149 72.8611 34.1805 72.8097 34.2018C72.7584 34.223 72.7032 34.2335 72.6476 34.2326H72.0687C72.0131 34.2335 71.9579 34.223 71.9065 34.2018C71.8552 34.1805 71.8087 34.149 71.7701 34.1092C71.7297 34.0709 71.6977 34.0248 71.676 33.9736C71.6544 33.9225 71.6435 33.8674 71.6441 33.8119V26.5314C71.6457 26.4198 71.6909 26.3132 71.7702 26.2343C71.8495 26.1553 71.9566 26.1103 72.0687 26.1087H72.6476C72.7597 26.1103 72.8667 26.1553 72.946 26.2343C73.0253 26.3132 73.0705 26.4198 73.0721 26.5314V33.8119C73.0727 33.8674 73.0619 33.9225 73.0402 33.9736C73.0185 34.0248 72.9865 34.0709 72.9462 34.1092Z" fill="white"/>
<path d="M82.5438 34.1092C82.5052 34.1491 82.4588 34.1806 82.4074 34.2018C82.356 34.223 82.3009 34.2335 82.2453 34.2326H81.6663C81.6107 34.2335 81.5556 34.223 81.5042 34.2018C81.4528 34.1806 81.4064 34.1491 81.3678 34.1092C81.3274 34.0709 81.2954 34.0248 81.2737 33.9736C81.2521 33.9225 81.2412 33.8675 81.2418 33.812V29.6904C81.2418 28.9097 81.0488 28.3158 80.6629 27.9087C80.2177 27.5179 79.6446 27.3024 79.0511 27.3024C78.4576 27.3024 77.8845 27.5179 77.4393 27.9087C77.048 28.3131 76.8516 28.907 76.8503 29.6904V33.812C76.8503 33.9235 76.8057 34.0305 76.7265 34.1094C76.6473 34.1883 76.5398 34.2326 76.4278 34.2326H75.8468C75.7351 34.2316 75.6282 34.1869 75.5492 34.1082C75.4702 34.0296 75.4254 33.9232 75.4243 33.812V26.5314C75.4259 26.4202 75.4708 26.3139 75.5497 26.235C75.6285 26.1561 75.7351 26.1109 75.8468 26.1088H76.4278C76.5398 26.1098 76.647 26.1548 76.726 26.2339C76.8051 26.313 76.8497 26.4198 76.8503 26.5314V27.0148C77.1049 26.6937 77.4301 26.4349 77.8009 26.2584C78.2633 26.0415 78.7708 25.9369 79.2817 25.953C79.894 25.942 80.4989 26.0876 81.0387 26.3757C81.5488 26.6548 81.9654 27.0767 82.2371 27.5891C82.5373 28.165 82.6862 28.8072 82.6698 29.4558V33.812C82.6704 33.8675 82.6595 33.9225 82.6379 33.9736C82.6162 34.0248 82.5842 34.0709 82.5438 34.1092Z" fill="white"/>
<path d="M90.809 27.0188C91.4576 27.7267 91.7819 28.69 91.7819 29.9088V30.3355C91.7803 30.4471 91.7351 30.5537 91.6558 30.6327C91.5766 30.7116 91.4695 30.7566 91.3574 30.7582H85.9624V30.8512C85.9554 31.1494 86.008 31.446 86.1172 31.7237C86.2263 32.0014 86.3898 32.2548 86.5982 32.4691C86.8056 32.6658 87.0505 32.819 87.3185 32.9198C87.5864 33.0205 87.872 33.0667 88.1582 33.0556C88.5743 33.0761 88.99 33.0071 89.3769 32.8534C89.6717 32.713 89.936 32.5165 90.1549 32.275C90.2199 32.2052 90.2969 32.1477 90.3824 32.1051C90.4691 32.069 90.5627 32.0524 90.6566 32.0566H91.1258C91.1841 32.0553 91.242 32.0657 91.2961 32.0873C91.3502 32.1088 91.3994 32.141 91.4407 32.1819C91.4806 32.2198 91.5113 32.2663 91.5303 32.3178C91.5494 32.3694 91.5562 32.4246 91.5504 32.4792C91.484 32.8065 91.323 33.1074 91.0872 33.3448C90.7676 33.6783 90.3758 33.9349 89.9416 34.0951C89.3707 34.3047 88.7642 34.4016 88.1561 34.3803C87.5296 34.391 86.9118 34.2323 86.3686 33.9212C85.8463 33.6148 85.4157 33.1749 85.1215 32.6471C84.8071 32.0871 84.6173 31.4664 84.5649 30.827C84.5446 30.5155 84.5344 30.2748 84.5344 30.109C84.5344 29.9432 84.5446 29.7045 84.5649 29.3911C84.6186 28.7742 84.8086 28.1768 85.1215 27.6417C85.4211 27.1313 85.8478 26.7064 86.3605 26.4081C86.9071 26.0988 87.5275 25.9423 88.1561 25.9551C89.2774 25.9564 90.1617 26.311 90.809 27.0188ZM90.3702 29.4457V29.3992C90.3823 29.1169 90.3343 28.8353 90.2292 28.5728C90.1242 28.3103 89.9646 28.073 89.7608 27.8763C89.3232 27.4812 88.7463 27.2747 88.1561 27.302C87.5858 27.2888 87.0325 27.4961 86.6124 27.8804C86.4018 28.0722 86.2347 28.3065 86.1222 28.5677C86.0098 28.8289 85.9546 29.111 85.9604 29.3951V29.4416L90.3702 29.4457Z" fill="white"/>
<path d="M99.5433 27.0189C100.192 27.7267 100.516 28.6901 100.516 29.9089V30.3356C100.515 30.4472 100.469 30.5538 100.39 30.6327C100.311 30.7117 100.204 30.7567 100.092 30.7583H94.6988V30.8513C94.6914 31.1493 94.7437 31.4458 94.8525 31.7236C94.9613 32.0014 95.1245 32.2548 95.3325 32.4692C95.5399 32.6659 95.7849 32.8191 96.0528 32.9199C96.3208 33.0206 96.6063 33.0668 96.8925 33.0557C97.3086 33.0758 97.7242 33.0068 98.1113 32.8534C98.4054 32.713 98.6691 32.5165 98.8872 32.275C98.9522 32.2053 99.0293 32.1477 99.1147 32.1052C99.2014 32.0691 99.2951 32.0525 99.3889 32.0566H99.8602C99.9182 32.0553 99.9758 32.0657 100.03 32.0872C100.083 32.1088 100.132 32.141 100.173 32.182C100.213 32.2199 100.244 32.2664 100.263 32.3179C100.282 32.3695 100.289 32.4247 100.283 32.4793C100.217 32.8069 100.056 33.108 99.8196 33.3449C99.5005 33.6781 99.1094 33.9347 98.676 34.0952C98.105 34.3043 97.4986 34.4012 96.8905 34.3803C96.264 34.3907 95.6463 34.2321 95.103 33.9212C94.5811 33.6143 94.1506 33.1745 93.8558 32.6472C93.5424 32.0868 93.3527 31.4662 93.2993 30.827C93.279 30.5156 93.2688 30.2749 93.2688 30.1091C93.2688 29.9433 93.279 29.7046 93.2993 29.3911C93.3539 28.7745 93.5439 28.1773 93.8558 27.6418C94.1625 27.115 94.6063 26.6804 95.1404 26.3839C95.6746 26.0873 96.2792 25.9399 96.8905 25.9572C98.0118 25.9572 98.896 26.3111 99.5433 27.0189ZM99.1046 29.4457V29.3992C99.1167 29.117 99.0686 28.8353 98.9636 28.5729C98.8586 28.3104 98.6989 28.073 98.4952 27.8764C98.0576 27.4813 97.4806 27.2748 96.8905 27.302C96.3202 27.2893 95.7671 27.4965 95.3468 27.8804C95.1364 28.0723 94.9696 28.3067 94.8575 28.5679C94.7454 28.8292 94.6906 29.1112 94.6968 29.3952V29.4417L99.1046 29.4457Z" fill="white"/>
<path d="M106.844 26.2382C106.884 26.2765 106.916 26.3227 106.938 26.3738C106.959 26.425 106.97 26.48 106.97 26.5355V27.0351C106.969 27.1466 106.923 27.2533 106.844 27.332C106.765 27.4108 106.657 27.4552 106.545 27.4557H105.645C105.059 27.4557 104.611 27.6094 104.303 27.9168C103.994 28.2242 103.842 28.6691 103.842 29.2516V33.812C103.842 33.8675 103.831 33.9225 103.81 33.9737C103.788 34.0248 103.756 34.071 103.716 34.1093C103.677 34.1491 103.631 34.1806 103.579 34.2018C103.528 34.223 103.473 34.2335 103.417 34.2327H102.838C102.783 34.2335 102.727 34.223 102.676 34.2018C102.625 34.1806 102.578 34.1491 102.54 34.1093C102.499 34.071 102.467 34.0248 102.446 33.9737C102.424 33.9225 102.413 33.8675 102.414 33.812V26.5315C102.415 26.4199 102.46 26.3133 102.54 26.2343C102.619 26.1554 102.726 26.1104 102.838 26.1088H103.417C103.529 26.1104 103.636 26.1554 103.715 26.2343C103.795 26.3133 103.84 26.4199 103.842 26.5315V27.0148C104.027 26.7244 104.286 26.4879 104.593 26.3292C104.953 26.1692 105.345 26.0938 105.739 26.1088H106.551C106.606 26.1095 106.661 26.1214 106.711 26.1436C106.761 26.1659 106.806 26.1981 106.844 26.2382Z" fill="white"/>
<path d="M109.799 24.7558C109.761 24.7957 109.715 24.8274 109.664 24.849C109.613 24.8706 109.558 24.8815 109.503 24.8812H108.609C108.497 24.8796 108.39 24.8346 108.31 24.7556C108.231 24.6767 108.186 24.5701 108.184 24.4585V23.5687C108.184 23.5131 108.195 23.4581 108.216 23.407C108.238 23.3558 108.27 23.3097 108.31 23.2714C108.349 23.2316 108.395 23.2001 108.447 23.1788C108.498 23.1576 108.553 23.1471 108.609 23.148H109.503C109.614 23.1491 109.721 23.1937 109.8 23.2724C109.879 23.351 109.924 23.4574 109.925 23.5687V24.4585C109.926 24.514 109.915 24.569 109.893 24.6202C109.872 24.6713 109.84 24.7175 109.799 24.7558ZM109.643 34.1092C109.604 34.1488 109.558 34.1801 109.507 34.2013C109.456 34.2226 109.401 34.2332 109.346 34.2326H108.765C108.71 34.2335 108.654 34.223 108.603 34.2018C108.552 34.1805 108.505 34.149 108.467 34.1092C108.426 34.0709 108.394 34.0248 108.373 33.9736C108.351 33.9225 108.34 33.8674 108.341 33.8119V26.5314C108.342 26.4198 108.388 26.3132 108.467 26.2343C108.546 26.1553 108.653 26.1103 108.765 26.1087H109.346C109.402 26.1084 109.457 26.1194 109.508 26.1409C109.559 26.1625 109.605 26.1942 109.643 26.2341C109.683 26.2724 109.715 26.3186 109.737 26.3697C109.758 26.4209 109.769 26.4759 109.769 26.5314V33.8119C109.769 33.8674 109.758 33.9225 109.737 33.9736C109.715 34.0248 109.683 34.0709 109.643 34.1092Z" fill="white"/>
<path d="M119.234 34.1092C119.196 34.1488 119.15 34.1802 119.099 34.2014C119.048 34.2226 118.993 34.2332 118.938 34.2326H118.357C118.301 34.2335 118.246 34.223 118.195 34.2018C118.143 34.1806 118.097 34.1491 118.058 34.1092C118.018 34.0709 117.986 34.0248 117.964 33.9736C117.943 33.9225 117.932 33.8675 117.932 33.812V29.6904C117.932 28.9097 117.739 28.3158 117.353 27.9087C116.908 27.5179 116.335 27.3024 115.742 27.3024C115.148 27.3024 114.575 27.5179 114.13 27.9087C113.738 28.3131 113.543 28.907 113.543 29.6904V33.812C113.543 33.8675 113.533 33.9225 113.511 33.9736C113.489 34.0248 113.457 34.0709 113.417 34.1092C113.378 34.1491 113.332 34.1806 113.28 34.2018C113.229 34.223 113.174 34.2335 113.118 34.2326H112.539C112.484 34.2335 112.429 34.223 112.377 34.2018C112.326 34.1806 112.279 34.1491 112.241 34.1092C112.2 34.0709 112.168 34.0248 112.147 33.9736C112.125 33.9225 112.114 33.8675 112.115 33.812V26.5314C112.116 26.4198 112.162 26.3132 112.241 26.2343C112.32 26.1554 112.427 26.1103 112.539 26.1088H113.118C113.23 26.1103 113.337 26.1554 113.417 26.2343C113.496 26.3132 113.541 26.4198 113.543 26.5314V27.0148C113.797 26.6937 114.121 26.4349 114.491 26.2584C114.954 26.0415 115.461 25.9369 115.972 25.953C116.584 25.9418 117.189 26.0874 117.729 26.3757C118.239 26.6553 118.657 27.077 118.93 27.5891C119.228 28.1655 119.376 28.8074 119.36 29.4558V33.812C119.361 33.8675 119.35 33.9225 119.328 33.9736C119.307 34.0248 119.275 34.0709 119.234 34.1092Z" fill="white"/>
<path d="M126.291 26.2625C126.661 26.4396 126.985 26.6983 127.239 27.0189V26.5356C127.241 26.4243 127.286 26.318 127.365 26.2391C127.444 26.1602 127.55 26.115 127.662 26.1129H128.243C128.299 26.1123 128.354 26.1231 128.405 26.1446C128.457 26.1662 128.503 26.1981 128.542 26.2383C128.582 26.2767 128.613 26.323 128.634 26.3741C128.656 26.4252 128.666 26.4802 128.665 26.5356V34.1235C128.665 35.2277 128.352 36.0946 127.725 36.7242C127.098 37.3539 126.178 37.6687 124.964 37.6687C124.288 37.6893 123.614 37.5666 122.988 37.3087C122.522 37.1207 122.115 36.8137 121.806 36.4189C121.568 36.1063 121.427 35.7318 121.4 35.3409C121.394 35.2859 121.402 35.2304 121.422 35.179C121.443 35.1277 121.476 35.0819 121.517 35.0457C121.557 35.0056 121.605 34.9739 121.657 34.9523C121.709 34.9308 121.766 34.9199 121.822 34.9203H122.281C122.389 34.9141 122.495 34.9472 122.58 35.0133C122.674 35.1068 122.749 35.2182 122.799 35.3409C122.932 35.6147 123.138 35.8469 123.394 36.0124C123.687 36.2213 124.161 36.3258 124.816 36.3258C126.441 36.3258 127.254 35.6517 127.254 34.3035V33.3186C126.719 34.0284 125.909 34.3803 124.816 34.3803C124.198 34.3884 123.589 34.2328 123.051 33.9293C122.519 33.6213 122.081 33.1763 121.782 32.6411C121.451 32.0393 121.271 31.3672 121.255 30.6814L121.241 30.1657L121.255 29.65C121.271 28.9704 121.448 28.3042 121.773 27.7065C122.071 27.1721 122.507 26.7271 123.037 26.4183C123.576 26.1123 124.188 25.9558 124.808 25.9652C125.319 25.9469 125.827 26.0487 126.291 26.2625ZM123.342 27.9573C122.916 28.454 122.68 29.0842 122.675 29.737L122.659 30.1738L122.675 30.6106C122.68 31.2634 122.916 31.8936 123.342 32.3903C123.549 32.6101 123.801 32.7826 124.082 32.8961C124.362 33.0096 124.664 33.0612 124.967 33.0476C125.263 33.0621 125.559 33.0157 125.837 32.9113C126.115 32.807 126.368 32.6468 126.581 32.4409C127.009 31.9797 127.245 31.3739 127.242 30.7461C127.252 30.641 127.256 30.4549 127.256 30.1839C127.256 29.9129 127.256 29.7248 127.242 29.6217C127.209 28.8936 126.989 28.326 126.581 27.9189C126.368 27.7138 126.114 27.5542 125.837 27.4499C125.559 27.3456 125.263 27.2987 124.967 27.3121C124.665 27.2964 124.363 27.3459 124.083 27.4573C123.802 27.5687 123.549 27.7392 123.342 27.9573Z" fill="white"/>
<path d="M39.0407 20.1044C39.0702 23.3679 38.2654 26.5853 36.7018 29.4538C35.1383 32.3224 32.8676 34.7477 30.1032 36.5017C30.934 35.8762 31.5926 35.0519 32.018 34.1054C32.4434 33.1588 32.6219 32.1206 32.5368 31.087C32.4517 30.0535 32.1058 29.058 31.5313 28.1931C30.9567 27.3281 30.1721 26.6216 29.2501 26.1391C28.9105 25.9146 28.5293 25.7599 28.1288 25.6841C27.7183 25.6053 27.296 25.6098 26.8873 25.6974C26.4786 25.7849 26.0918 25.9538 25.7502 26.1937C24.575 27.0253 23.1759 27.4861 21.7345 27.5164H21.4988C20.204 27.5396 18.9255 27.2259 17.7898 26.6063C16.7176 26.014 15.8412 25.1246 15.267 24.046C14.653 22.8734 14.3449 21.566 14.3712 20.2439C14.3453 18.9225 14.6533 17.6158 15.267 16.4439C15.8401 15.3641 16.7158 14.4733 17.7877 13.8795C18.9234 13.2599 20.202 12.9462 21.4968 12.9695C21.6045 12.9695 21.6999 12.9695 21.8157 12.9695C23.2292 13.0147 24.5978 13.474 25.7502 14.2901C26.2404 14.6367 26.8212 14.8342 27.422 14.8584C28.2293 14.8905 29.017 14.6058 29.6157 14.0656C29.6685 14.0171 29.7213 13.9665 29.7701 13.9159C30.5583 13.3895 31.2137 12.6889 31.6852 11.8687C32.1567 11.0486 32.4316 10.1311 32.4884 9.18784C32.5452 8.24455 32.3825 7.30094 32.0128 6.43058C31.6431 5.56023 31.0765 4.78665 30.3571 4.17017C33.0074 5.91205 35.186 8.27697 36.7005 11.056C38.2149 13.8351 39.0187 16.9427 39.0407 20.1044Z" fill="white"/>
<path d="M32.5529 31.5873C32.5535 32.54 32.3318 33.4798 31.9053 34.3327C31.4788 35.1855 30.8591 35.928 30.0951 36.5016C29.6888 36.7578 29.2724 37.0005 28.8459 37.2297C28.7077 37.3025 28.5696 37.3753 28.4396 37.4461C25.9265 38.7085 23.1667 39.4091 20.3532 39.4988H20.1927H20.0302H19.2502H19.1426H18.9841H18.8541H18.8054C18.7662 39.5008 18.7268 39.5008 18.6876 39.4988H18.5291H18.3809L18.1615 39.4826L18.0295 39.4705H17.9848H17.8954L17.7735 39.4583H17.7552L17.5866 39.4401H17.5481L17.4506 39.43L17.3551 39.4179L17.2231 39.4017L17.1113 39.3876L16.9082 39.3613L16.8148 39.3471L16.6563 39.2743L16.5426 39.2561L16.4715 39.246L16.3699 39.2278L16.2298 39.2035L16.0896 39.1772H16.0449L15.9352 39.155C15.6854 39.1085 15.4396 39.0539 15.1959 38.9972L15.0882 38.971L14.9826 38.9447H14.9541L14.8282 38.9123L14.751 38.8921L14.6556 38.8658L14.5073 38.8274L14.4057 38.7991C14.2473 38.7546 14.0909 38.708 13.9324 38.6575L13.8532 38.6272L13.7435 38.5928L13.6927 38.5766L13.5993 38.5442L13.4916 38.5099L13.4591 38.4977L13.3393 38.4573L13.2012 38.4087L13.0306 38.3481L12.866 38.2874L12.7523 38.2429L12.5491 38.162L12.4679 38.1297L12.3826 38.0953L12.279 38.0528H12.2627L12.1206 37.9921C11.8463 37.8769 11.5782 37.7555 11.3081 37.6281L11.2024 37.5775L11.1252 37.5391L11.0684 37.5108L10.9729 37.4623L10.916 37.434L10.8063 37.3773L10.5016 37.2176L10.2985 37.1023L10.2254 37.0598L10.1015 36.9911L9.99587 36.9304L9.95118 36.9041L9.8679 36.8556L9.7704 36.7989L9.72977 36.7726L9.64852 36.7241L9.56118 36.6715L9.29102 36.5016L9.1793 36.4309L9.08587 36.3702L9.00259 36.3156L8.89087 36.2408L8.76087 36.1518L8.65524 36.079L8.57805 36.0264L8.49681 35.9677L8.3668 35.8767L8.11087 35.6887L7.99712 35.6037L7.97681 35.5875L7.86509 35.5026C7.86124 35.4981 7.85636 35.4947 7.85087 35.4925L7.75946 35.4197L7.57462 35.272L7.48321 35.1992L7.34509 35.086C7.27399 35.0294 7.20493 34.9707 7.14196 34.9121L7.00181 34.7907L6.89821 34.6997L6.87181 34.6775L6.79868 34.6107L6.72556 34.546L6.6829 34.5076L6.60368 34.4348L6.50618 34.3458L6.41274 34.2588L6.29899 34.1496L6.00446 33.8625L5.9354 33.7937L5.71806 33.5692L5.62665 33.4742L5.51899 33.3589C5.37477 33.2052 5.23259 33.0474 5.09243 32.8877L5.00306 32.7825L4.92181 32.6875L4.85884 32.6147L4.79384 32.5358L4.76946 32.5055L4.68415 32.4023C4.61102 32.3133 4.5379 32.2223 4.46681 32.1313L4.3754 32.014L4.23727 31.836L4.15806 31.7268C4.12962 31.6904 4.10118 31.65 4.07274 31.6116C4.0567 31.5915 4.04179 31.5706 4.02806 31.5489L3.94477 31.4376L3.84727 31.2981C3.71321 31.106 3.58118 30.9139 3.45321 30.7177L3.39837 30.6307L3.32321 30.5134L3.24196 30.384L3.14852 30.2303L3.08352 30.1251C3.07187 30.1029 3.05898 30.0813 3.04493 30.0604L2.96368 29.9229L2.91899 29.842C2.87634 29.7712 2.83571 29.6984 2.79509 29.6256C2.7829 29.6034 2.76868 29.5811 2.75649 29.5568C2.74431 29.5326 2.72602 29.5043 2.71181 29.4759C2.71248 29.4699 2.71248 29.4638 2.71181 29.4577C2.37472 28.8243 2.25587 28.0982 2.37353 27.391C2.49119 26.6838 2.83884 26.0347 3.36306 25.5433C3.88728 25.0519 4.55905 24.7455 5.27516 24.6712C5.99126 24.5969 6.71207 24.7587 7.32681 25.1319C7.37962 25.1643 7.4304 25.1986 7.48118 25.233C7.92638 25.5389 8.28969 25.9485 8.53946 26.4262C8.65931 26.6547 8.78524 26.8792 8.9193 27.1017C10.1201 29.0925 11.8482 30.7157 13.9141 31.7936C15.945 32.8489 18.1929 33.424 20.4832 33.4742C20.6863 33.4742 20.9138 33.4863 21.1312 33.4863C23.3015 33.5197 25.4545 33.098 27.4504 32.2486C28.0701 31.9783 28.6672 31.6591 29.2359 31.2941C29.6687 31.0168 30.0244 30.6353 30.2701 30.185C30.5157 29.7347 30.6435 29.23 30.6415 28.7176C30.6416 28.0631 30.4324 27.4256 30.0443 26.8974C29.8275 26.6048 29.5616 26.3516 29.2582 26.1492C30.2522 26.6715 31.0843 27.454 31.6649 28.4122C32.2454 29.3705 32.5524 30.4682 32.5529 31.5873Z" fill="white"/>
<path d="M32.5001 8.82753C32.5018 9.78442 32.2782 10.7284 31.8471 11.5836C31.416 12.4389 30.7895 13.1815 30.0179 13.752C29.938 13.8113 29.8567 13.8679 29.7741 13.9219C30.091 13.5956 30.3315 13.2035 30.4783 12.7738C30.625 12.3441 30.6745 11.8873 30.623 11.4363C30.5716 10.9853 30.4205 10.5513 30.1807 10.1653C29.9408 9.77927 29.6182 9.45089 29.2358 9.20369C28.6672 8.838 28.0702 8.51812 27.4504 8.24711C25.4522 7.39853 23.2972 6.97754 21.1251 7.01145C20.8976 7.01145 20.6741 7.01145 20.4527 7.02358C18.1735 7.0765 15.9367 7.64864 13.9141 8.69608C11.835 9.77694 10.0965 11.4091 8.89083 13.4122C8.44439 14.1509 8.07612 14.9337 7.79193 15.7481C7.56965 16.3959 7.14925 16.9582 6.5897 17.3561C6.03015 17.754 5.35953 17.9675 4.67193 17.9666H4.61708C4.08796 17.9654 3.56695 17.8371 3.09834 17.5924C2.62972 17.3478 2.22735 16.9942 1.92544 16.5615C1.62352 16.1289 1.43098 15.6301 1.36419 15.1075C1.29739 14.5849 1.35831 14.054 1.54177 13.5599C2.91561 9.86982 5.39122 6.687 8.63578 4.43929C11.8803 2.19159 15.7383 0.986776 19.691 0.986816C19.909 0.986816 20.1264 0.990861 20.343 0.998951C23.0771 1.08484 25.7613 1.75089 28.2161 2.95256L28.4193 3.04963C29.0905 3.38816 29.7416 3.76495 30.3693 4.17811C31.04 4.75441 31.5777 5.46827 31.9455 6.27077C32.3132 7.07327 32.5024 7.94544 32.5001 8.82753Z" fill="white"/>
<path d="M32.5 8.82147C32.5027 9.77939 32.2795 10.7246 31.8484 11.5809C31.4173 12.4373 30.7902 13.1809 30.0178 13.752C31.1329 12.7408 33.8589 9.23808 28.2161 2.95459L28.4192 3.04964C29.0904 3.38817 29.7415 3.76496 30.3692 4.17812C31.0391 4.75375 31.5764 5.46663 31.9441 6.26802C32.3119 7.06941 32.5015 7.94041 32.5 8.82147Z" fill="white"/>
<path d="M32.5527 31.5873C32.5534 32.54 32.3317 33.4798 31.9052 34.3326C31.4786 35.1855 30.8589 35.928 30.0949 36.5016C29.6887 36.7578 29.2723 37.0005 28.8457 37.2297C28.7076 37.3025 28.5695 37.3753 28.4395 37.4461C33.1113 31.8724 31.2995 28.3454 30.0543 26.8913C29.8199 26.6146 29.5564 26.3638 29.2682 26.1431C30.2612 26.6673 31.0919 27.4513 31.6706 28.4106C32.2494 29.3699 32.5544 30.4682 32.5527 31.5873Z" fill="white"/>
<path d="M7.4567 16.4359C7.15937 16.9031 6.74806 17.2878 6.26111 17.5541C5.77416 17.8204 5.22742 17.9596 4.67185 17.9587H4.61701C4.08748 17.9581 3.56594 17.8301 3.09685 17.5855C2.62776 17.3409 2.22502 16.987 1.92296 16.5539C1.6209 16.1209 1.42848 15.6216 1.3621 15.0985C1.29571 14.5755 1.35733 14.0442 1.5417 13.55C2.91595 9.86051 5.39179 6.67839 8.63634 4.43141C11.8809 2.18444 15.7386 0.980324 19.6909 0.980957C19.9083 0.980957 20.1256 0.980957 20.3429 0.991069C6.49998 2.15393 7.4567 16.4359 7.4567 16.4359Z" fill="white"/>
<path d="M20.341 39.4988H20.1806H20.0181H19.2502H19.1426H18.9841H18.8541H18.8054C18.7662 39.5008 18.7268 39.5008 18.6876 39.4988H18.5292H18.3809L18.1615 39.4826L18.0295 39.4705H17.9848H17.8954L17.7735 39.4583H17.7552L17.5866 39.4401H17.5481L17.4506 39.43L17.3551 39.4179L17.2231 39.4017L17.1113 39.3876L16.9082 39.3613L16.8148 39.3471L16.6563 39.2743L16.5426 39.2561L16.4715 39.246L16.3699 39.2278L16.2298 39.2035L16.0896 39.1772H16.0449L15.9352 39.155C15.6854 39.1085 15.4396 39.0539 15.1959 38.9972L15.0882 38.971L14.9826 38.9447H14.9542L14.8282 38.9123L14.751 38.8921L14.6556 38.8658L14.5073 38.8274L14.4057 38.7991C14.2473 38.7546 14.0909 38.708 13.9324 38.6575L13.8532 38.6272L13.7435 38.5928L13.6927 38.5766L13.5993 38.5442L13.4916 38.5099L13.4592 38.4977L13.3393 38.4573L13.2012 38.4087L13.0306 38.3481L12.866 38.2874L12.7523 38.2429L12.5491 38.162L12.4679 38.1297L12.3826 38.0953L12.279 38.0528H12.2627L12.1206 37.9921C11.8463 37.8769 11.5782 37.7555 11.3081 37.6281L11.2024 37.5775L11.1252 37.5391L11.0684 37.5108L10.9729 37.4623L10.916 37.434L10.8063 37.3773L10.5016 37.2176L10.2985 37.1023L10.2254 37.0598L10.1015 36.9911L9.99587 36.9304L9.95118 36.9041L9.8679 36.8556L9.7704 36.7989L9.72977 36.7726L9.64852 36.7241L9.56118 36.6715L9.29103 36.5016L9.17931 36.4309L9.08587 36.3702L9.00259 36.3156L8.89087 36.2408L8.76087 36.1518L8.65524 36.079L8.57806 36.0264L8.49681 35.9677L8.36681 35.8767L8.11087 35.6887L7.99712 35.6037L7.97681 35.5875L7.86509 35.5026C7.86124 35.4981 7.85636 35.4947 7.85087 35.4925L7.75946 35.4197L7.57462 35.272L7.48321 35.1992L7.34509 35.086C7.27399 35.0294 7.20493 34.9707 7.14196 34.9121L7.00181 34.7907L6.89821 34.6997L6.87181 34.6775L6.79868 34.6107L6.72556 34.546L6.6829 34.5076L6.60368 34.4348L6.50618 34.3458L6.41274 34.2588L6.29899 34.1496L6.00446 33.8625L5.9354 33.7937L5.71806 33.5692L5.62665 33.4742L5.51899 33.3589C5.37477 33.2052 5.23259 33.0474 5.09243 32.8877L5.00306 32.7825L4.92181 32.6875L4.85884 32.6147L4.79384 32.5358L4.76946 32.5055L4.68415 32.4023C4.61102 32.3133 4.5379 32.2223 4.46681 32.1313L4.3754 32.014L4.23727 31.836L4.15806 31.7268C4.12962 31.6904 4.10118 31.65 4.07274 31.6116C4.0567 31.5915 4.04179 31.5706 4.02806 31.5489L3.94477 31.4376L3.84727 31.2981C3.71321 31.106 3.58118 30.9139 3.45321 30.7177L3.39837 30.6307L3.32321 30.5134L3.24196 30.384L3.14852 30.2303L3.08352 30.1251C3.07187 30.1029 3.05898 30.0813 3.04493 30.0604L2.96368 29.9229L2.91899 29.842C2.87634 29.7712 2.83571 29.6984 2.79509 29.6256C2.7829 29.6034 2.76868 29.5811 2.75649 29.5568C2.74431 29.5326 2.72602 29.5043 2.71181 29.4759C2.71248 29.4699 2.71248 29.4638 2.71181 29.4577C2.37472 28.8243 2.25587 28.0982 2.37353 27.391C2.49119 26.6838 2.83884 26.0347 3.36306 25.5433C3.88728 25.0519 4.55906 24.7455 5.27516 24.6712C5.99127 24.5969 6.71207 24.7587 7.32681 25.1319C7.37962 25.1643 7.4304 25.1986 7.48118 25.233C7.57665 28.6427 8.9254 38.5361 20.341 39.4988Z" fill="white"/>
</svg>
