<svg width="25" height="25" viewBox="0 0 25 25" fill="none" xmlns="http://www.w3.org/2000/svg">
<path d="M15.8032 12.4983L24.7696 3.53428C24.8426 3.46133 24.9006 3.37471 24.9401 3.27938C24.9796 3.18405 24.9999 3.08187 24.9999 2.97867C24.9999 2.87548 24.9796 2.77329 24.9401 2.67796C24.9006 2.58263 24.8426 2.49601 24.7696 2.42307L22.5773 0.231027C22.5045 0.157815 22.418 0.099712 22.3228 0.0600623C22.2275 0.0204126 22.1253 0 22.0221 0C21.9189 0 21.8167 0.0204126 21.7214 0.0600623C21.6262 0.099712 21.5397 0.157815 21.4669 0.231027L12.4995 9.19609L3.53307 0.231027C3.38303 0.0887816 3.18414 0.00949103 2.97738 0.00949103C2.77062 0.00949103 2.57173 0.0887816 2.42169 0.231027L0.230367 2.42307C0.157363 2.49601 0.0994509 2.58263 0.0599389 2.67796C0.0204269 2.77329 8.98051e-05 2.87548 8.98051e-05 2.97867C8.98051e-05 3.08187 0.0204269 3.18405 0.0599389 3.27938C0.0994509 3.37471 0.157363 3.46133 0.230367 3.53428L9.19678 12.4983L0.230367 21.4623C0.0828644 21.6098 0 21.8098 0 22.0184C0 22.227 0.0828644 22.4271 0.230367 22.5746L2.42274 24.7676C2.49525 24.8412 2.58167 24.8997 2.67698 24.9396C2.77229 24.9795 2.87458 25 2.9779 25C3.08122 25 3.18351 24.9795 3.27882 24.9396C3.37413 24.8997 3.46055 24.8412 3.53307 24.7676L12.5005 15.8026L21.4669 24.7676C21.5396 24.841 21.6261 24.8992 21.7214 24.9389C21.8166 24.9787 21.9189 24.9991 22.0221 24.9991C22.1253 24.9991 22.2276 24.9787 22.3228 24.9389C22.4181 24.8992 22.5046 24.841 22.5773 24.7676L24.7696 22.5746C24.9171 22.4271 25 22.227 25 22.0184C25 21.8098 24.9171 21.6098 24.7696 21.4623L15.8032 12.4983Z" fill="#1C63B8"/>
</svg>
