<svg width="200" height="62" viewBox="0 0 200 62" fill="none" xmlns="http://www.w3.org/2000/svg">
<path d="M70.0375 24.39C70.8187 25.1951 71.9094 25.5977 73.3094 25.5977C74.7094 25.5977 75.751 25.2953 76.4344 24.6904C77.1304 24.0715 77.6125 23.2514 77.8125 22.3461C77.8386 22.2001 77.9154 22.0676 78.0294 21.9715C78.1435 21.8754 78.2878 21.8217 78.4375 21.8197H79.55C79.6901 21.8213 79.8239 21.8774 79.9227 21.9759C80.0215 22.0743 80.0773 22.2073 80.0781 22.3461C80.0181 23.2067 79.7479 24.0399 79.2906 24.774C78.7526 25.6653 77.9818 26.396 77.0594 26.8891C75.9074 27.4974 74.614 27.7944 73.3094 27.75C72.0742 27.778 70.8526 27.49 69.7625 26.9138C68.774 26.3804 67.9582 25.5806 67.4094 24.6068C66.8425 23.5828 66.5317 22.4391 66.5031 21.2716C66.4864 20.7926 66.4792 20.0824 66.4812 19.141C66.4833 18.1996 66.4906 17.4904 66.5031 17.0135C66.5317 15.846 66.8425 14.7022 67.4094 13.6783C67.9582 12.7045 68.774 11.9046 69.7625 11.3713C70.852 10.7929 72.0737 10.5028 73.3094 10.5289C74.614 10.4845 75.9074 10.7815 77.0594 11.3898C77.9818 11.8829 78.7526 12.6136 79.2906 13.5049C79.7427 14.2402 80.0076 15.0734 80.0625 15.9328C80.0617 16.0716 80.0059 16.2046 79.9071 16.303C79.8083 16.4015 79.6745 16.4576 79.5344 16.4592H78.4375C78.2883 16.4554 78.1449 16.4011 78.0312 16.3053C77.9175 16.2096 77.8403 16.0781 77.8125 15.9328C77.6194 15.0306 77.1462 14.2109 76.4594 13.5885C75.7844 12.9857 74.7427 12.6832 73.3344 12.6812C71.926 12.6791 70.8354 13.0817 70.0625 13.8889C69.2833 14.6941 68.8667 15.7738 68.8125 17.1281C68.7958 17.605 68.7875 18.2739 68.7875 19.1348C68.7875 19.9957 68.7875 20.6832 68.8125 21.1446C68.85 22.503 69.2583 23.5848 70.0375 24.39Z" fill="#4D4D4D"/>
<path d="M93.8656 21.318C93.8656 21.702 93.8469 22.0674 93.8156 22.4174C93.6719 24.0442 93.1052 25.3397 92.1156 26.3038C91.126 27.2679 89.7865 27.75 88.0969 27.75C86.4094 27.75 85.0708 27.2679 84.0813 26.3038C83.0917 25.3397 82.525 24.0442 82.3813 22.4174C82.3625 22.244 82.3563 21.8754 82.3563 21.318C82.3563 20.7606 82.3563 20.3456 82.3813 20.1691C82.5083 18.5444 83.0708 17.2499 84.0688 16.2858C85.0667 15.3217 86.4094 14.8396 88.0969 14.8396C89.7865 14.8396 91.1302 15.3217 92.1281 16.2858C93.126 17.2499 93.6885 18.5444 93.8156 20.1691C93.8469 20.5222 93.8656 20.9031 93.8656 21.318ZM90.5938 17.828C90.0094 17.2086 89.175 16.899 88.0938 16.899C87.0125 16.899 86.1844 17.2086 85.5938 17.828C84.9801 18.5096 84.6187 19.3778 84.5688 20.2899C84.5531 20.4819 84.5438 20.8256 84.5438 21.318C84.5438 21.8104 84.5438 22.1232 84.5688 22.2997C84.6176 23.2169 84.9815 24.09 85.6 24.774C86.1875 25.3933 87.0208 25.703 88.1 25.703C89.1781 25.703 90.0125 25.3933 90.6 24.774C91.2147 24.0872 91.5751 23.2134 91.6219 22.2966C91.6531 21.9436 91.6688 21.6184 91.6688 21.3149C91.6688 21.0115 91.6688 20.6708 91.6219 20.2868C91.5704 19.3754 91.2079 18.5084 90.5938 17.828Z" fill="#4D4D4D"/>
<path d="M100.378 15.2825C100.968 14.9601 101.637 14.8067 102.309 14.8396C104.184 14.8396 105.503 15.5323 106.266 16.9176C106.68 16.2954 107.223 15.7676 107.859 15.3692C108.575 14.9832 109.383 14.798 110.197 14.8334C111.776 14.8334 112.947 15.3031 113.709 16.2425C114.472 17.1818 114.854 18.5134 114.856 20.2373V26.8643C114.854 27.0352 114.784 27.1984 114.662 27.3193C114.54 27.4402 114.376 27.5091 114.203 27.5115H113.309C113.137 27.5083 112.974 27.439 112.852 27.3182C112.731 27.1975 112.662 27.0347 112.659 26.8643V20.4819C112.659 18.0912 111.71 16.8959 109.812 16.8959C109.424 16.8785 109.036 16.9466 108.677 17.0955C108.319 17.2444 107.998 17.4702 107.737 17.7568C107.223 18.3286 106.966 19.1813 106.966 20.3147V26.8643C106.963 27.0352 106.894 27.1984 106.772 27.3193C106.65 27.4402 106.485 27.5091 106.312 27.5115H105.422C105.249 27.5091 105.085 27.4402 104.963 27.3193C104.841 27.1984 104.771 27.0352 104.769 26.8643V20.4819C104.769 18.0912 103.82 16.8959 101.922 16.8959C101.533 16.8785 101.146 16.9466 100.787 17.0955C100.428 17.2444 100.107 17.4702 99.8469 17.7568C99.3344 18.3297 99.075 19.1813 99.075 20.3147V26.8643C99.076 26.9493 99.0592 27.0336 99.0259 27.1119C98.9926 27.1902 98.9433 27.2609 98.8813 27.3195C98.8224 27.3807 98.7516 27.4292 98.6731 27.4623C98.5947 27.4953 98.5102 27.512 98.425 27.5115H97.5312C97.4455 27.5125 97.3604 27.4959 97.2814 27.4629C97.2024 27.4299 97.1311 27.3811 97.0719 27.3195C97.0104 27.2606 96.9617 27.1898 96.9289 27.1115C96.8961 27.0332 96.8799 26.9491 96.8812 26.8643V15.716C96.8803 15.6318 96.8967 15.5482 96.9295 15.4705C96.9623 15.3927 97.0107 15.3224 97.0719 15.2639C97.1311 15.2024 97.2024 15.1536 97.2814 15.1205C97.3604 15.0875 97.4455 15.0709 97.5312 15.0719H98.4375C98.5227 15.0714 98.6072 15.0881 98.6857 15.1212C98.7641 15.1542 98.8349 15.2027 98.8937 15.2639C98.9554 15.3222 99.0045 15.3923 99.0378 15.4701C99.0711 15.5479 99.088 15.6315 99.0875 15.716V16.4592C99.4431 15.9936 99.8803 15.595 100.378 15.2825Z" fill="#4D4D4D"/>
<path d="M120.55 31.4072C120.548 31.5781 120.478 31.7414 120.356 31.8622C120.234 31.9831 120.069 32.052 119.897 32.0545H119.006C118.834 32.052 118.669 31.9831 118.547 31.8622C118.425 31.7414 118.356 31.5781 118.353 31.4072V15.7222C118.356 15.5518 118.426 15.3894 118.548 15.2692C118.67 15.149 118.834 15.0805 119.006 15.0781H119.897C120.069 15.0805 120.233 15.149 120.355 15.2692C120.477 15.3894 120.547 15.5518 120.55 15.7222V16.4654C121.369 15.3816 122.619 14.8396 124.3 14.8396C125.251 14.8269 126.189 15.0663 127.016 15.5333C127.838 16.0043 128.513 16.6898 128.969 17.5152C129.478 18.441 129.755 19.4743 129.778 20.5284C129.794 20.6894 129.803 20.9433 129.803 21.2933C129.803 21.6432 129.803 21.9126 129.778 22.0829C129.753 23.1343 129.471 24.164 128.956 25.0837C128.5 25.9018 127.829 26.5831 127.016 27.0563C126.185 27.525 125.243 27.7645 124.288 27.75C123.502 27.7747 122.721 27.6145 122.009 27.2824C121.44 27.0121 120.941 26.6158 120.55 26.1242V31.4072ZM121.563 24.774C121.893 25.0901 122.285 25.3357 122.715 25.4955C123.145 25.6553 123.604 25.7259 124.063 25.703C124.528 25.7249 124.992 25.6466 125.424 25.4734C125.855 25.3001 126.244 25.0362 126.563 24.6997C127.218 23.9383 127.581 22.9721 127.588 21.9714C127.588 21.8135 127.613 21.5905 127.613 21.3025C127.613 21.0145 127.613 20.7947 127.588 20.6336C127.581 19.6338 127.218 18.6684 126.563 17.9085C126.244 17.572 125.855 17.308 125.424 17.1348C124.992 16.9616 124.528 16.8832 124.063 16.9052C123.611 16.8901 123.161 16.9645 122.738 17.124C122.316 17.2836 121.93 17.525 121.603 17.8342C120.944 18.4823 120.57 19.3633 120.566 20.2837L120.541 21.2127L120.566 22.1696C120.597 23.2721 120.938 24.1546 121.563 24.774Z" fill="#4D4D4D"/>
<path d="M134.784 27.3195C134.725 27.381 134.654 27.4298 134.575 27.4629C134.496 27.4959 134.411 27.5124 134.325 27.5115H133.437C133.265 27.5091 133.1 27.4401 132.978 27.3193C132.856 27.1984 132.787 27.0352 132.784 26.8643V11.1792C132.786 11.0078 132.855 10.8438 132.977 10.7223C133.099 10.6007 133.264 10.5313 133.437 10.5289H134.328C134.5 10.5313 134.664 10.5998 134.786 10.72C134.908 10.8402 134.978 11.0027 134.981 11.1731V26.8643C134.982 26.9495 134.965 27.0339 134.931 27.1122C134.897 27.1906 134.847 27.2611 134.784 27.3195Z" fill="#4D4D4D"/>
<path d="M147.619 16.4654C148.615 17.5493 149.114 19.0233 149.116 20.8876V21.5317C149.113 21.7026 149.044 21.8658 148.922 21.9867C148.8 22.1076 148.635 22.1765 148.462 22.1789H140.166V22.3214C140.154 22.7777 140.235 23.2318 140.402 23.6571C140.569 24.0824 140.821 24.4705 141.141 24.7988C141.46 25.0999 141.837 25.3346 142.249 25.4889C142.661 25.6431 143.1 25.7138 143.541 25.6968C144.181 25.7259 144.82 25.6204 145.416 25.3872C145.868 25.1711 146.273 24.8703 146.609 24.5015C146.709 24.394 146.828 24.3048 146.959 24.2383C147.093 24.1841 147.237 24.1598 147.381 24.167H148.106C148.195 24.1644 148.284 24.1801 148.367 24.2131C148.45 24.2462 148.525 24.2959 148.588 24.359C148.649 24.4165 148.696 24.4872 148.725 24.5656C148.754 24.644 148.765 24.728 148.756 24.8112C148.656 25.314 148.408 25.7763 148.044 26.1397C147.552 26.6476 146.95 27.0392 146.284 27.2855C145.41 27.6166 144.479 27.7755 143.544 27.7531C142.579 27.7695 141.629 27.5254 140.794 27.047C139.988 26.5752 139.325 25.897 138.875 25.0837C138.391 24.226 138.098 23.2757 138.016 22.2966C137.984 21.8166 137.969 21.4512 137.969 21.1942C137.969 20.9371 137.984 20.5748 138.016 20.0948C138.099 19.1509 138.392 18.2371 138.875 17.4192C139.333 16.6362 139.989 15.9851 140.778 15.5302C141.619 15.0556 142.573 14.8158 143.541 14.8365C145.264 14.8386 146.623 15.3816 147.619 16.4654ZM146.944 20.1815V20.0979C146.962 19.6657 146.888 19.2344 146.727 18.8325C146.565 18.4306 146.32 18.0672 146.006 17.7661C145.329 17.1649 144.44 16.8523 143.531 16.8959C142.654 16.8751 141.803 17.1914 141.156 17.7784C140.833 18.0729 140.577 18.4319 140.405 18.8318C140.233 19.2316 140.148 19.6632 140.156 20.0979V20.1691L146.944 20.1815Z" fill="#4D4D4D"/>
<path d="M153.384 27.0563C153.282 27.1696 153.169 27.2732 153.047 27.366C152.922 27.4593 152.769 27.5064 152.612 27.4991H151.503C151.427 27.5003 151.351 27.4861 151.281 27.4574C151.211 27.4286 151.147 27.3859 151.094 27.3319C151.041 27.2825 150.999 27.223 150.97 27.157C150.941 27.091 150.925 27.0199 150.925 26.9479C150.922 26.8292 150.956 26.7125 151.022 26.6135L155.437 21.1508L151.25 15.9637C151.184 15.8637 151.15 15.7459 151.153 15.6262C151.153 15.5546 151.169 15.4839 151.198 15.4184C151.227 15.3529 151.269 15.294 151.322 15.2453C151.375 15.1913 151.439 15.1486 151.509 15.1198C151.58 15.0911 151.655 15.0769 151.731 15.0781H152.891C153.046 15.0712 153.199 15.1171 153.325 15.2081C153.447 15.301 153.56 15.4047 153.662 15.5178L156.875 19.525L160.059 15.5333C160.162 15.4201 160.275 15.3165 160.397 15.2236C160.523 15.1326 160.676 15.0867 160.831 15.0935H161.941C162.017 15.0923 162.093 15.1065 162.164 15.1352C162.235 15.1639 162.299 15.2067 162.353 15.2608C162.405 15.3099 162.447 15.3689 162.476 15.4343C162.505 15.4997 162.521 15.5702 162.522 15.6417C162.523 15.7611 162.489 15.8783 162.425 15.9792L158.225 21.2127L162.6 26.6413C162.664 26.7413 162.697 26.8574 162.697 26.9758C162.696 27.0478 162.681 27.1189 162.652 27.1849C162.623 27.2509 162.581 27.3104 162.528 27.3598C162.474 27.4139 162.41 27.4566 162.339 27.4853C162.268 27.5141 162.192 27.5283 162.116 27.527H160.959C160.803 27.5342 160.65 27.4871 160.525 27.3938C160.403 27.3011 160.29 27.1974 160.187 27.0842L156.787 22.823L153.384 27.0563Z" fill="#4D4D4D"/>
<path d="M69.425 50.2664H77.5313C77.6165 50.2659 77.701 50.2827 77.7794 50.3157C77.8579 50.3487 77.9287 50.3973 77.9875 50.4584C78.0496 50.5171 78.0988 50.5878 78.1322 50.6661C78.1655 50.7444 78.1822 50.8287 78.1813 50.9137V51.7745C78.1796 51.9449 78.1106 52.1078 77.9891 52.2282C77.8675 52.3487 77.7031 52.4171 77.5313 52.4187H67.7844C67.6988 52.42 67.6139 52.4039 67.5349 52.3715C67.4559 52.339 67.3845 52.2907 67.325 52.2298C67.2629 52.1711 67.2137 52.1005 67.1803 52.0221C67.147 51.9438 67.1303 51.8595 67.1313 51.7745V36.328C67.1307 36.2435 67.1477 36.1598 67.181 36.0821C67.2143 36.0043 67.2633 35.9341 67.325 35.8758C67.3842 35.8143 67.4555 35.7655 67.5345 35.7325C67.6136 35.6995 67.6986 35.6829 67.7844 35.6838H77.3375C77.5094 35.6855 77.6738 35.7538 77.7953 35.8743C77.9169 35.9947 77.9859 36.1576 77.9875 36.328V37.1889C77.9889 37.2736 77.9726 37.3578 77.9399 37.4361C77.9071 37.5144 77.8584 37.5852 77.7969 37.6441C77.7377 37.7056 77.6664 37.7544 77.5874 37.7874C77.5083 37.8205 77.4233 37.837 77.3375 37.8361H69.425V42.8807H76.8063C76.8918 42.8793 76.9767 42.8954 77.0557 42.9279C77.1347 42.9604 77.2062 43.0086 77.2656 43.0696C77.3277 43.1282 77.377 43.1989 77.4103 43.2772C77.4436 43.3555 77.4603 43.4398 77.4594 43.5248V44.3857C77.457 44.5566 77.3874 44.7198 77.2654 44.8407C77.1434 44.9616 76.9787 45.0305 76.8063 45.0329H69.425V50.2664Z" fill="#4D4D4D"/>
<path d="M92.1031 52.2298C92.0437 52.2907 91.9722 52.339 91.8932 52.3715C91.8142 52.4039 91.7293 52.42 91.6437 52.4187H90.7531C90.6676 52.42 90.5827 52.4039 90.5037 52.3715C90.4246 52.339 90.3532 52.2907 90.2937 52.2298C90.2317 52.1711 90.1824 52.1005 90.1491 52.0221C90.1158 51.9438 90.099 51.8595 90.1 51.7746V45.4634C90.1 44.268 89.8031 43.3586 89.2094 42.7351C88.5244 42.1368 87.6427 41.8067 86.7297 41.8067C85.8166 41.8067 84.9349 42.1368 84.25 42.7351C83.6479 43.3545 83.3458 44.2639 83.3438 45.4634V51.7746C83.3438 51.9454 83.2753 52.1092 83.1534 52.23C83.0315 52.3508 82.8661 52.4187 82.6937 52.4187H81.8C81.6281 52.4171 81.4637 52.3487 81.3422 52.2282C81.2206 52.1078 81.1516 51.9449 81.15 51.7746V40.6263C81.1524 40.4559 81.2216 40.2931 81.3429 40.1723C81.4642 40.0515 81.6281 39.9822 81.8 39.979H82.6937C82.8662 39.9807 83.031 40.0495 83.1527 40.1706C83.2743 40.2917 83.3429 40.4554 83.3438 40.6263V41.3664C83.7356 40.8747 84.2359 40.4785 84.8062 40.2082C85.5177 39.8761 86.2984 39.7158 87.0844 39.7406C88.0264 39.7237 88.9571 39.9466 89.7875 40.3878C90.5722 40.8152 91.2132 41.4612 91.6312 42.2459C92.0931 43.1277 92.3221 44.111 92.2969 45.1042V51.7746C92.2978 51.8595 92.2811 51.9438 92.2478 52.0221C92.2145 52.1005 92.1652 52.1711 92.1031 52.2298Z" fill="#4D4D4D"/>
<path d="M102.947 40.2144C103.517 40.4846 104.018 40.8808 104.409 41.3726V40.6324C104.41 40.4616 104.479 40.2979 104.6 40.1768C104.722 40.0557 104.887 39.9868 105.059 39.9852H105.953C106.125 39.9884 106.289 40.0577 106.41 40.1785C106.532 40.2993 106.601 40.4621 106.603 40.6324V52.2514C106.603 53.9423 106.121 55.2697 105.156 56.2339C104.192 57.198 102.776 57.68 100.909 57.68C99.8679 57.7116 98.8315 57.5237 97.8687 57.1288C97.1514 56.8408 96.5231 56.3709 96.0469 55.7663C95.6816 55.2877 95.4644 54.7143 95.4219 54.1157C95.4134 54.0315 95.4255 53.9464 95.457 53.8678C95.4885 53.7891 95.5386 53.7191 95.6031 53.6636C95.6642 53.6019 95.7372 53.5531 95.8177 53.5201C95.8983 53.4871 95.9847 53.4706 96.0719 53.4716H96.7969C96.9624 53.4624 97.1256 53.513 97.2562 53.614C97.4005 53.758 97.5151 53.9284 97.5937 54.1157C97.7984 54.5349 98.1151 54.8904 98.5094 55.1438C98.9594 55.4638 99.6833 55.6238 100.681 55.6238C103.181 55.6238 104.431 54.5916 104.431 52.5271V51.0189C103.609 52.1059 102.362 52.6447 100.681 52.6447C99.7303 52.6571 98.7931 52.4188 97.9656 51.9542C97.1468 51.4834 96.4719 50.8017 96.0125 49.9815C95.5039 49.06 95.2263 48.0309 95.2031 46.9808L95.1812 46.1911L95.2031 45.4014C95.2265 44.3608 95.4996 43.3407 96 42.4255C96.4575 41.608 97.1276 40.9268 97.9406 40.4528C98.7713 39.9846 99.7132 39.7451 100.669 39.7592C101.454 39.7305 102.234 39.8865 102.947 40.2144ZM98.4125 42.8095C97.7568 43.5694 97.3937 44.5348 97.3875 45.5346L97.3625 46.2035L97.3875 46.8724C97.3937 47.8722 97.7568 48.8376 98.4125 49.5975C98.731 49.9344 99.1194 50.1989 99.551 50.3726C99.9826 50.5464 100.447 50.6253 100.913 50.604C101.369 50.6258 101.825 50.5546 102.252 50.3948C102.679 50.235 103.069 49.99 103.397 49.675C104.055 48.9689 104.418 48.0412 104.412 47.0799C104.428 46.9188 104.434 46.6339 104.434 46.219C104.434 45.804 104.434 45.516 104.412 45.3581C104.362 44.2433 104.024 43.3741 103.397 42.7506C103.068 42.4369 102.678 42.1928 102.251 42.033C101.824 41.8733 101.369 41.8014 100.913 41.8216C100.448 41.7973 99.9847 41.873 99.5531 42.0436C99.1215 42.2141 98.7323 42.4754 98.4125 42.8095Z" fill="#4D4D4D"/>
<path d="M112.466 37.9073C112.406 37.9688 112.335 38.0176 112.256 38.0507C112.177 38.0837 112.092 38.1002 112.006 38.0993H110.625C110.54 38.0998 110.455 38.0831 110.377 38.05C110.298 38.017 110.228 37.9685 110.169 37.9073C110.107 37.8487 110.057 37.778 110.024 37.6997C109.991 37.6214 109.974 37.5371 109.975 37.4521V36.0895C109.977 35.9192 110.046 35.7563 110.167 35.6358C110.289 35.5154 110.453 35.447 110.625 35.4454H112C112.086 35.444 112.17 35.4601 112.249 35.4926C112.328 35.5251 112.4 35.5733 112.459 35.6343C112.521 35.6929 112.571 35.7636 112.604 35.8419C112.637 35.9202 112.654 36.0045 112.653 36.0895V37.4521C112.655 37.5366 112.639 37.6206 112.607 37.6989C112.575 37.7772 112.527 37.8481 112.466 37.9073ZM112.225 52.2298C112.166 52.2907 112.094 52.339 112.015 52.3715C111.936 52.4039 111.851 52.42 111.766 52.4187H110.875C110.789 52.42 110.705 52.4039 110.626 52.3715C110.547 52.339 110.475 52.2907 110.416 52.2298C110.354 52.1711 110.304 52.1004 110.271 52.0221C110.238 51.9438 110.221 51.8595 110.222 51.7745V40.6263C110.224 40.4553 110.294 40.2921 110.416 40.1713C110.538 40.0504 110.703 39.9814 110.875 39.979H111.766C111.938 39.9814 112.103 40.0504 112.225 40.1713C112.347 40.2921 112.416 40.4553 112.419 40.6263V51.7745C112.42 51.8595 112.403 51.9438 112.37 52.0221C112.336 52.1004 112.287 52.1711 112.225 52.2298Z" fill="#4D4D4D"/>
<path d="M126.991 52.2298C126.931 52.2907 126.86 52.339 126.781 52.3715C126.702 52.4039 126.617 52.42 126.531 52.4187H125.641C125.555 52.42 125.47 52.4039 125.391 52.3715C125.312 52.339 125.241 52.2907 125.181 52.2298C125.119 52.1711 125.07 52.1005 125.037 52.0221C125.003 51.9438 124.987 51.8595 124.988 51.7746V45.4634C124.988 44.268 124.691 43.3586 124.097 42.7351C123.412 42.1368 122.53 41.8067 121.617 41.8067C120.704 41.8067 119.822 42.1368 119.138 42.7351C118.535 43.3545 118.233 44.2639 118.231 45.4634V51.7746C118.231 51.9454 118.163 52.1092 118.041 52.23C117.919 52.3508 117.754 52.4187 117.581 52.4187H116.688C116.516 52.4171 116.351 52.3487 116.23 52.2282C116.108 52.1078 116.039 51.9449 116.038 51.7746V40.6263C116.04 40.4559 116.109 40.2931 116.23 40.1723C116.352 40.0515 116.516 39.9822 116.688 39.979H117.581C117.754 39.9807 117.919 40.0495 118.04 40.1706C118.162 40.2917 118.23 40.4554 118.231 40.6263V41.3664C118.623 40.8747 119.123 40.4785 119.694 40.2082C120.405 39.8761 121.186 39.7158 121.972 39.7406C122.914 39.7237 123.845 39.9466 124.675 40.3878C125.46 40.8152 126.101 41.4612 126.519 42.2459C126.981 43.1277 127.21 44.111 127.184 45.1042V51.7746C127.185 51.8595 127.169 51.9438 127.135 52.0221C127.102 52.1005 127.053 52.1711 126.991 52.2298Z" fill="#4D4D4D"/>
<path d="M139.706 41.3726C140.704 42.4564 141.203 43.9315 141.203 45.7978V46.4512C141.201 46.6221 141.131 46.7854 141.009 46.9062C140.887 47.0271 140.722 47.096 140.55 47.0984H132.25V47.2409C132.239 47.6975 132.32 48.1516 132.488 48.5769C132.656 49.0022 132.908 49.3902 133.228 49.7183C133.547 50.0195 133.924 50.2541 134.336 50.4084C134.749 50.5626 135.188 50.6334 135.628 50.6164C136.268 50.6477 136.908 50.542 137.503 50.3067C137.957 50.0918 138.363 49.7909 138.7 49.421C138.8 49.3142 138.919 49.2261 139.05 49.1609C139.183 49.1056 139.327 49.0802 139.472 49.0866H140.194C140.283 49.0846 140.372 49.1006 140.456 49.1336C140.539 49.1666 140.615 49.2159 140.678 49.2786C140.74 49.3365 140.787 49.4077 140.816 49.4867C140.845 49.5656 140.856 49.6502 140.847 49.7338C140.745 50.235 140.497 50.6956 140.134 51.0592C139.643 51.5699 139.04 51.9628 138.372 52.2081C137.494 52.529 136.561 52.6774 135.625 52.6447C134.661 52.6611 133.711 52.4182 132.875 51.9418C132.071 51.4726 131.409 50.799 130.956 49.9908C130.473 49.1333 130.181 48.1828 130.1 47.2037C130.069 46.7268 130.053 46.3583 130.053 46.1044C130.053 45.8505 130.069 45.485 130.1 45.005C130.183 44.0605 130.475 43.1458 130.956 42.3264C131.417 41.5447 132.074 40.8941 132.863 40.4373C133.703 39.9637 134.658 39.7241 135.625 39.7437C137.35 39.7457 138.71 40.2887 139.706 41.3726ZM139.031 45.0887V45.0174C139.05 44.5852 138.976 44.154 138.814 43.7521C138.653 43.3502 138.407 42.9867 138.094 42.6856C137.421 42.0805 136.533 41.7643 135.625 41.8061C134.748 41.7859 133.896 42.1033 133.25 42.6918C132.926 42.9855 132.669 43.3443 132.496 43.7442C132.323 44.1442 132.238 44.5762 132.247 45.0112V45.0825L139.031 45.0887Z" fill="#4D4D4D"/>
<path d="M153.144 41.3726C154.142 42.4564 154.641 43.9315 154.641 45.7978V46.4512C154.638 46.6221 154.569 46.7854 154.447 46.9062C154.325 47.0271 154.16 47.096 153.987 47.0984H145.691V47.2409C145.679 47.6973 145.76 48.1513 145.927 48.5766C146.094 49.0019 146.345 49.39 146.666 49.7183C146.985 50.0195 147.361 50.2541 147.774 50.4084C148.186 50.5626 148.625 50.6334 149.066 50.6164C149.706 50.6472 150.345 50.5416 150.941 50.3067C151.393 50.0916 151.799 49.7907 152.134 49.421C152.234 49.3142 152.353 49.2261 152.484 49.1609C152.618 49.1056 152.762 49.0802 152.906 49.0866H153.631C153.72 49.0845 153.809 49.1004 153.892 49.1334C153.975 49.1664 154.05 49.2158 154.112 49.2786C154.174 49.3365 154.221 49.4077 154.25 49.4867C154.28 49.5656 154.29 49.6502 154.281 49.7338C154.181 50.2355 153.933 50.6965 153.569 51.0592C153.078 51.5695 152.476 51.9624 151.809 52.2081C150.931 52.5284 149.998 52.6767 149.062 52.6447C148.099 52.6607 147.148 52.4177 146.312 51.9418C145.509 51.4718 144.847 50.7984 144.394 49.9908C143.912 49.1327 143.62 48.1825 143.537 47.2037C143.506 46.7268 143.491 46.3583 143.491 46.1044C143.491 45.8505 143.506 45.485 143.537 45.005C143.621 44.0608 143.914 43.1463 144.394 42.3264C144.865 41.5197 145.548 40.8542 146.37 40.4001C147.192 39.9461 148.122 39.7204 149.062 39.7468C150.787 39.7468 152.148 40.2887 153.144 41.3726ZM152.469 45.0887V45.0174C152.487 44.5852 152.413 44.154 152.252 43.7521C152.09 43.3502 151.845 42.9867 151.531 42.6856C150.858 42.0805 149.97 41.7643 149.062 41.8061C148.185 41.7865 147.334 42.1039 146.687 42.6918C146.364 42.9856 146.107 43.3445 145.935 43.7445C145.762 44.1445 145.678 44.5764 145.687 45.0112V45.0825L152.469 45.0887Z" fill="#4D4D4D"/>
<path d="M164.375 40.1772C164.437 40.2358 164.486 40.3065 164.52 40.3848C164.553 40.4632 164.57 40.5474 164.569 40.6324V41.3973C164.567 41.5682 164.498 41.7315 164.375 41.8521C164.253 41.9726 164.088 42.0406 163.916 42.0414H162.531C161.629 42.0414 160.941 42.2768 160.466 42.7475C159.991 43.2182 159.756 43.8995 159.756 44.7914V51.7745C159.757 51.8595 159.74 51.9438 159.707 52.0221C159.674 52.1004 159.625 52.1711 159.562 52.2297C159.503 52.2907 159.432 52.3389 159.353 52.3714C159.274 52.4039 159.189 52.42 159.103 52.4186H158.212C158.127 52.42 158.042 52.4039 157.963 52.3714C157.884 52.3389 157.813 52.2907 157.753 52.2297C157.691 52.1711 157.642 52.1004 157.608 52.0221C157.575 51.9438 157.558 51.8595 157.559 51.7745V40.6262C157.562 40.4553 157.631 40.2921 157.753 40.1712C157.875 40.0504 158.04 39.9814 158.212 39.979H159.103C159.276 39.9814 159.44 40.0504 159.562 40.1712C159.684 40.2921 159.754 40.4553 159.756 40.6262V41.3664C160.042 40.9217 160.441 40.5596 160.912 40.3166C161.466 40.0715 162.069 39.956 162.675 39.979H163.925C164.01 39.9801 164.093 39.9983 164.171 40.0323C164.248 40.0664 164.317 40.1157 164.375 40.1772Z" fill="#4D4D4D"/>
<path d="M168.922 37.9073C168.863 37.9685 168.792 38.017 168.714 38.05C168.635 38.0831 168.551 38.0998 168.466 38.0993H167.091C166.918 38.0969 166.753 38.0279 166.631 37.9071C166.509 37.7862 166.44 37.623 166.437 37.4521V36.0895C166.437 36.0045 166.453 35.9202 166.487 35.8419C166.52 35.7636 166.569 35.6929 166.631 35.6343C166.691 35.5733 166.762 35.5251 166.841 35.4926C166.92 35.4601 167.005 35.444 167.091 35.4454H168.466C168.638 35.447 168.802 35.5154 168.923 35.6358C169.045 35.7563 169.114 35.9192 169.116 36.0895V37.4521C169.117 37.5371 169.1 37.6214 169.067 37.6997C169.033 37.778 168.984 37.8487 168.922 37.9073ZM168.681 52.2298C168.622 52.2904 168.551 52.3384 168.473 52.3708C168.394 52.4033 168.31 52.4196 168.225 52.4187H167.331C167.246 52.42 167.161 52.4039 167.082 52.3715C167.003 52.339 166.931 52.2907 166.872 52.2298C166.81 52.1711 166.761 52.1004 166.727 52.0221C166.694 51.9438 166.677 51.8595 166.678 51.7745V40.6263C166.681 40.4553 166.75 40.2921 166.872 40.1713C166.994 40.0504 167.159 39.9814 167.331 39.979H168.225C168.31 39.9785 168.395 39.9953 168.473 40.0283C168.552 40.0613 168.622 40.1099 168.681 40.171C168.743 40.2297 168.793 40.3004 168.826 40.3787C168.859 40.457 168.876 40.5413 168.875 40.6263V51.7745C168.876 51.8595 168.859 51.9438 168.826 52.0221C168.793 52.1004 168.743 52.1711 168.681 52.2298Z" fill="#4D4D4D"/>
<path d="M183.438 52.2298C183.378 52.2904 183.307 52.3384 183.229 52.3708C183.151 52.4033 183.066 52.4196 182.981 52.4187H182.088C182.002 52.42 181.917 52.4039 181.838 52.3715C181.759 52.339 181.688 52.2907 181.628 52.2298C181.566 52.1711 181.517 52.1005 181.483 52.0221C181.45 51.9438 181.433 51.8595 181.434 51.7746V45.4634C181.434 44.268 181.138 43.3586 180.544 42.7351C179.859 42.1368 178.977 41.8067 178.064 41.8067C177.151 41.8067 176.269 42.1368 175.584 42.7351C174.982 43.3545 174.681 44.2639 174.681 45.4634V51.7746C174.682 51.8595 174.666 51.9438 174.632 52.0221C174.599 52.1005 174.55 52.1711 174.487 52.2298C174.428 52.2907 174.357 52.339 174.278 52.3715C174.199 52.4039 174.114 52.42 174.028 52.4187H173.137C173.052 52.42 172.967 52.4039 172.888 52.3715C172.809 52.339 172.738 52.2907 172.678 52.2298C172.616 52.1711 172.567 52.1005 172.533 52.0221C172.5 51.9438 172.483 51.8595 172.484 51.7746V40.6263C172.487 40.4553 172.556 40.2921 172.678 40.1713C172.8 40.0504 172.965 39.9814 173.137 39.979H174.028C174.201 39.9814 174.365 40.0504 174.487 40.1713C174.609 40.2921 174.679 40.4553 174.681 40.6263V41.3664C175.072 40.8747 175.571 40.4785 176.141 40.2082C176.852 39.8761 177.633 39.7158 178.419 39.7406C179.361 39.7234 180.292 39.9463 181.122 40.3878C181.907 40.816 182.549 41.4617 182.969 42.2459C183.428 43.1284 183.656 44.1114 183.631 45.1042V51.7746C183.632 51.8595 183.616 51.9438 183.582 52.0221C183.549 52.1005 183.5 52.1711 183.438 52.2298Z" fill="#4D4D4D"/>
<path d="M194.294 40.2144C194.863 40.4855 195.362 40.8816 195.753 41.3726V40.6324C195.755 40.4621 195.825 40.2993 195.946 40.1785C196.067 40.0577 196.231 39.9884 196.403 39.9852H197.297C197.383 39.9843 197.468 40.0008 197.547 40.0339C197.626 40.0669 197.697 40.1157 197.756 40.1772C197.818 40.2361 197.866 40.3069 197.899 40.3852C197.932 40.4635 197.948 40.5477 197.947 40.6324V52.2514C197.947 53.9423 197.465 55.2697 196.5 56.2339C195.535 57.198 194.12 57.68 192.253 57.68C191.212 57.7116 190.175 57.5237 189.212 57.1288C188.496 56.8409 187.869 56.3709 187.394 55.7663C187.028 55.2877 186.811 54.7143 186.769 54.1157C186.76 54.0315 186.772 53.9464 186.804 53.8678C186.835 53.7891 186.885 53.7191 186.95 53.6636C187.011 53.6022 187.084 53.5536 187.165 53.5206C187.245 53.4877 187.332 53.471 187.419 53.4716H188.125C188.29 53.4621 188.454 53.5127 188.584 53.614C188.73 53.7571 188.844 53.9277 188.922 54.1157C189.127 54.5348 189.443 54.8904 189.837 55.1438C190.287 55.4638 191.017 55.6238 192.025 55.6238C194.525 55.6238 195.775 54.5915 195.775 52.5271V51.0189C194.953 52.1059 193.706 52.6447 192.025 52.6447C191.074 52.6571 190.137 52.4188 189.309 51.9542C188.491 51.4825 187.817 50.8011 187.356 49.9815C186.848 49.06 186.57 48.0309 186.547 46.9808L186.525 46.1911L186.547 45.4014C186.57 44.3608 186.843 43.3407 187.344 42.4255C187.801 41.6071 188.473 40.9258 189.287 40.4528C190.117 39.9843 191.058 39.7447 192.012 39.7592C192.798 39.731 193.58 39.887 194.294 40.2144ZM189.756 42.8095C189.102 43.5701 188.739 44.535 188.731 45.5346L188.706 46.2035L188.731 46.8724C188.739 47.872 189.102 48.8369 189.756 49.5975C190.075 49.9341 190.463 50.1983 190.895 50.372C191.327 50.5457 191.791 50.6249 192.256 50.604C192.712 50.6262 193.168 50.5552 193.596 50.3954C194.023 50.2355 194.413 49.9903 194.741 49.6749C195.399 48.9689 195.762 48.0412 195.756 47.0799C195.772 46.9188 195.778 46.6339 195.778 46.219C195.778 45.804 195.778 45.516 195.756 45.3581C195.706 44.2432 195.368 43.3741 194.741 42.7506C194.412 42.4366 194.022 42.1923 193.595 42.0325C193.168 41.8728 192.712 41.801 192.256 41.8216C191.792 41.7975 191.328 41.8733 190.897 42.0439C190.465 42.2144 190.076 42.4756 189.756 42.8095Z" fill="#4D4D4D"/>
<path d="M60.0625 30.7848C60.1079 35.7821 58.8696 40.7087 56.4643 45.1011C54.0589 49.4935 50.5654 53.2074 46.3125 55.8932C47.5906 54.9354 48.6039 53.6732 49.2584 52.2238C49.9129 50.7743 50.1874 49.1846 50.0565 47.6019C49.9256 46.0193 49.3935 44.4951 48.5095 43.1706C47.6256 41.8461 46.4184 40.7643 45 40.0255C44.4776 39.6816 43.8911 39.4447 43.275 39.3287C42.6434 39.208 41.9938 39.2149 41.365 39.349C40.7362 39.4831 40.1412 39.7416 39.6156 40.1091C37.8075 41.3824 35.6551 42.088 33.4375 42.1344H33.075C31.0829 42.17 29.116 41.6897 27.3688 40.7408C25.7193 39.8338 24.371 38.4719 23.4875 36.8203C22.5429 35.0249 22.069 33.0229 22.1094 30.9985C22.0695 28.9751 22.5434 26.9742 23.4875 25.1797C24.3692 23.5262 25.7165 22.1621 27.3656 21.253C29.1129 20.3041 31.0798 19.8238 33.0719 19.8594C33.2375 19.8594 33.3844 19.8594 33.5625 19.8594C35.737 19.9286 37.8426 20.6321 39.6156 21.8816C40.3698 22.4124 41.2632 22.7147 42.1875 22.7518C43.4295 22.801 44.6414 22.3651 45.5625 21.5379C45.6437 21.4636 45.725 21.3861 45.8 21.3087C47.0126 20.5026 48.0209 19.4298 48.7463 18.1739C49.4718 16.9181 49.8947 15.5132 49.9821 14.0688C50.0695 12.6244 49.819 11.1795 49.2503 9.84676C48.6815 8.51403 47.8098 7.32949 46.7031 6.3855C50.7805 9.05276 54.1321 12.674 56.4621 16.9295C58.7921 21.1849 60.0286 25.9434 60.0625 30.7848Z" fill="url(#paint0_linear_18_130)"/>
<path d="M50.0812 48.3681C50.0822 49.8269 49.7411 51.2661 49.085 52.572C48.4288 53.8779 47.4754 55.0148 46.3 55.8932C45.675 56.2855 45.0344 56.6571 44.3781 57.008C44.1656 57.1195 43.9531 57.231 43.7531 57.3394C39.8867 59.2725 35.6409 60.3452 31.3125 60.4826H31.0656H30.8156H29.6156H29.45H29.2062H29.0062H28.9312C28.8709 60.4857 28.8104 60.4857 28.75 60.4826H28.5062H28.2781L27.9406 60.4578L27.7375 60.4392H27.6687H27.5312L27.3437 60.4206H27.3156L27.0562 60.3928H26.9969L26.8469 60.3773L26.7 60.3587L26.4969 60.3339L26.325 60.3123L26.0125 60.272L25.8687 60.2503L25.625 60.1388L25.45 60.111L25.3406 60.0955L25.1844 60.0676L24.9687 60.0305L24.7531 59.9902H24.6844L24.5156 59.9561C24.1312 59.8849 23.7531 59.8013 23.3781 59.7146L23.2125 59.6743L23.05 59.6341H23.0062L22.8125 59.5845L22.6937 59.5536L22.5469 59.5133L22.3187 59.4545L22.1625 59.4111C21.9187 59.343 21.6781 59.2718 21.4344 59.1943L21.3125 59.1479L21.1437 59.0952L21.0656 59.0705L20.9219 59.0209L20.7562 58.9683L20.7062 58.9497L20.5219 58.8878L20.3094 58.8134L20.0469 58.7205L19.7937 58.6276L19.6187 58.5595L19.3062 58.4356L19.1812 58.3861L19.05 58.3334L18.8906 58.2684H18.8656L18.6469 58.1755C18.225 57.999 17.8125 57.8132 17.3969 57.6181L17.2344 57.5407L17.1156 57.4818L17.0281 57.4385L16.8812 57.3642L16.7937 57.3208L16.625 57.2341L16.1562 56.9895L15.8437 56.8129L15.7312 56.7479L15.5406 56.6426L15.3781 56.5497L15.3094 56.5095L15.1812 56.4351L15.0312 56.3484L14.9687 56.3082L14.8437 56.2338L14.7094 56.1533L14.2937 55.8932L14.1219 55.7848L13.9781 55.6919L13.85 55.6083L13.6781 55.4937L13.4781 55.3575L13.3156 55.246L13.1969 55.1655L13.0719 55.0757L12.8719 54.9363L12.4781 54.6483L12.3031 54.5182L12.2719 54.4935L12.1 54.3634C12.0941 54.3566 12.0866 54.3513 12.0781 54.3479L11.9375 54.2364L11.6531 54.0104L11.5125 53.8989L11.3 53.7255C11.1906 53.6388 11.0844 53.549 10.9875 53.4592L10.7719 53.2734L10.6125 53.134L10.5719 53.0999L10.4594 52.9977L10.3469 52.8986L10.2812 52.8398L10.1594 52.7283L10.0094 52.5921L9.86561 52.4589L9.69061 52.2917L9.23749 51.8519L9.13124 51.7467L8.79686 51.4029L8.65624 51.2574L8.49061 51.0809C8.26874 50.8455 8.04999 50.604 7.83436 50.3593L7.69686 50.1983L7.57186 50.0527L7.47499 49.9413L7.37499 49.8205L7.33749 49.774L7.20624 49.6161C7.09374 49.4798 6.98124 49.3405 6.87186 49.2011L6.73124 49.0215L6.51874 48.749L6.39686 48.5818C6.35311 48.526 6.30936 48.4641 6.26561 48.4053C6.24094 48.3745 6.21799 48.3425 6.19686 48.3093L6.06874 48.1389L5.91874 47.9253C5.71249 47.6311 5.50936 47.3369 5.31249 47.0365L5.22811 46.9033L5.11249 46.7237L4.98749 46.5255L4.84374 46.2902L4.74374 46.1292C4.72581 46.0951 4.70598 46.062 4.68436 46.0301L4.55937 45.8195L4.49062 45.6956C4.42499 45.5872 4.36249 45.4757 4.29999 45.3643C4.28124 45.3302 4.25936 45.2961 4.24062 45.259C4.22186 45.2218 4.19374 45.1785 4.17187 45.1351C4.1729 45.1258 4.1729 45.1165 4.17187 45.1072C3.65327 44.1373 3.47043 43.0255 3.65144 41.9426C3.83245 40.8597 4.3673 39.8656 5.17379 39.1132C5.98028 38.3608 7.01379 37.8916 8.11549 37.7778C9.21719 37.664 10.3261 37.9119 11.2719 38.4833C11.3531 38.5328 11.4312 38.5855 11.5094 38.6381C12.1943 39.1065 12.7532 39.7337 13.1375 40.4652C13.3219 40.8151 13.5156 41.1589 13.7219 41.4995C15.5693 44.5479 18.2279 47.0335 21.4062 48.684C24.5307 50.3 27.9889 51.1806 31.5125 51.2574C31.825 51.2574 32.175 51.276 32.5094 51.276C35.8483 51.3271 39.1607 50.6813 42.2312 49.3807C43.1847 48.9668 44.1032 48.478 44.9781 47.9191C45.644 47.4945 46.1912 46.9104 46.5692 46.2209C46.9472 45.5313 47.1437 44.7585 47.1406 43.9738C47.1407 42.9717 46.8189 41.9955 46.2219 41.1867C45.8883 40.7386 45.4792 40.351 45.0125 40.0409C46.5417 40.8408 47.8219 42.0389 48.715 43.5063C49.6082 44.9736 50.0805 46.6545 50.0812 48.3681Z" fill="url(#paint1_linear_18_130)"/>
<path d="M50 13.5173C50.0027 14.9825 49.6587 16.428 48.9955 17.7376C48.3322 19.0471 47.3684 20.1844 46.1813 21.0579C46.0583 21.1487 45.9333 21.2354 45.8063 21.318C46.2938 20.8184 46.6638 20.218 46.8896 19.56C47.1154 18.902 47.1914 18.2026 47.1123 17.512C47.0331 16.8215 46.8007 16.1568 46.4317 15.5657C46.0628 14.9746 45.5664 14.4718 44.9781 14.0933C44.1033 13.5333 43.1848 13.0435 42.2313 12.6285C39.1571 11.3291 35.8417 10.6845 32.5 10.7364C32.15 10.7364 31.8063 10.7364 31.4656 10.755C27.9591 10.836 24.518 11.7121 21.4063 13.316C18.2076 14.9711 15.533 17.4704 13.6781 20.5376C12.9913 21.6687 12.4247 22.8674 11.9875 24.1144C11.6456 25.1064 10.9988 25.9674 10.1379 26.5767C9.27709 27.1859 8.24536 27.5128 7.18751 27.5115H7.10314C6.28911 27.5097 5.48755 27.3131 4.76661 26.9386C4.04566 26.564 3.42663 26.0225 2.96215 25.36C2.49766 24.6975 2.20144 23.9337 2.09868 23.1335C1.99592 22.3333 2.08964 21.5203 2.37189 20.7637C4.48549 15.1133 8.29412 10.2396 13.2857 6.79781C18.2774 3.35602 24.2127 1.51114 30.2938 1.5112C30.6292 1.5112 30.9636 1.51739 31.2969 1.52978C35.5032 1.6613 39.6328 2.68119 43.4094 4.52124L43.7219 4.66988C44.7546 5.18826 45.7562 5.76522 46.7219 6.39787C47.7538 7.28033 48.581 8.37342 49.1468 9.60225C49.7126 10.8311 50.0037 12.1666 50 13.5173Z" fill="url(#paint2_linear_18_130)"/>
<path d="M50 13.508C50.0042 14.9748 49.6608 16.4221 48.9975 17.7334C48.3343 19.0447 47.3696 20.1834 46.1812 21.0579C47.8969 19.5095 52.0906 14.146 43.4094 4.52435L43.7219 4.6699C44.7545 5.18828 45.7562 5.76523 46.7219 6.39789C47.7526 7.27932 48.5791 8.37092 49.1448 9.59804C49.7106 10.8252 50.0023 12.1589 50 13.508Z" fill="url(#paint3_linear_18_130)"/>
<path d="M50.0812 48.3681C50.0822 49.827 49.7412 51.2661 49.085 52.572C48.4288 53.8779 47.4754 55.0148 46.3 55.8932C45.675 56.2855 45.0344 56.6571 44.3781 57.008C44.1656 57.1195 43.9531 57.231 43.7531 57.3394C50.9406 48.8048 48.1531 43.404 46.2375 41.1775C45.8769 40.7537 45.4715 40.3696 45.0281 40.0317C46.5559 40.8344 47.8337 42.0348 48.7241 43.5038C49.6145 44.9727 50.0837 46.6545 50.0812 48.3681Z" fill="url(#paint4_linear_18_130)"/>
<path d="M11.4719 25.1673C11.0144 25.8828 10.3817 26.4718 9.63251 26.8796C8.88335 27.2873 8.04221 27.5004 7.1875 27.4991H7.10312C6.28846 27.4982 5.48609 27.3021 4.76442 26.9276C4.04274 26.553 3.42314 26.0111 2.95843 25.3481C2.49373 24.685 2.1977 23.9204 2.09556 23.1195C1.99343 22.3185 2.08823 21.505 2.37187 20.7482C4.48611 15.0987 8.29508 10.2261 13.2867 6.78543C18.2783 3.34475 24.2133 1.50095 30.2938 1.50192C30.6281 1.50192 30.9625 1.50192 31.2969 1.51741C10 3.29804 11.4719 25.1673 11.4719 25.1673Z" fill="#3369E7"/>
<path d="M31.2937 60.4826H31.0469H30.7969H29.6156H29.45H29.2062H29.0062H28.9312C28.8709 60.4857 28.8104 60.4857 28.75 60.4826H28.5062H28.2781L27.9406 60.4578L27.7375 60.4392H27.6687H27.5312L27.3437 60.4206H27.3156L27.0562 60.3928H26.9969L26.8469 60.3773L26.7 60.3587L26.4969 60.3339L26.325 60.3123L26.0125 60.272L25.8687 60.2503L25.625 60.1388L25.45 60.111L25.3406 60.0955L25.1844 60.0676L24.9687 60.0305L24.7531 59.9902H24.6844L24.5156 59.9561C24.1312 59.8849 23.7531 59.8013 23.3781 59.7146L23.2125 59.6743L23.05 59.6341H23.0062L22.8125 59.5845L22.6937 59.5536L22.5469 59.5133L22.3187 59.4545L22.1625 59.4111C21.9187 59.343 21.6781 59.2718 21.4344 59.1943L21.3125 59.1479L21.1437 59.0952L21.0656 59.0705L20.9219 59.0209L20.7562 58.9683L20.7062 58.9497L20.5219 58.8878L20.3094 58.8134L20.0469 58.7205L19.7937 58.6276L19.6187 58.5595L19.3062 58.4356L19.1812 58.3861L19.05 58.3334L18.8906 58.2684H18.8656L18.6469 58.1755C18.225 57.999 17.8125 57.8132 17.3969 57.6181L17.2344 57.5407L17.1156 57.4818L17.0281 57.4385L16.8812 57.3642L16.7937 57.3208L16.625 57.2341L16.1562 56.9895L15.8437 56.8129L15.7312 56.7479L15.5406 56.6426L15.3781 56.5497L15.3094 56.5095L15.1812 56.4351L15.0312 56.3484L14.9687 56.3082L14.8437 56.2338L14.7094 56.1533L14.2937 55.8932L14.1219 55.7848L13.9781 55.6919L13.85 55.6083L13.6781 55.4937L13.4781 55.3575L13.3156 55.246L13.1969 55.1655L13.0719 55.0757L12.8719 54.9363L12.4781 54.6483L12.3031 54.5182L12.2719 54.4935L12.1 54.3634C12.0941 54.3566 12.0866 54.3513 12.0781 54.3479L11.9375 54.2364L11.6531 54.0104L11.5125 53.8989L11.3 53.7255C11.1906 53.6388 11.0844 53.549 10.9875 53.4592L10.7719 53.2734L10.6125 53.134L10.5719 53.0999L10.4594 52.9977L10.3469 52.8986L10.2812 52.8398L10.1594 52.7283L10.0094 52.5921L9.86561 52.4589L9.69062 52.2917L9.23749 51.8519L9.13124 51.7467L8.79686 51.4029L8.65624 51.2574L8.49062 51.0809C8.26874 50.8455 8.04999 50.604 7.83436 50.3593L7.69687 50.1983L7.57187 50.0527L7.47499 49.9413L7.37499 49.8205L7.33749 49.774L7.20624 49.6161C7.09374 49.4798 6.98124 49.3405 6.87187 49.2011L6.73124 49.0215L6.51874 48.749L6.39686 48.5818C6.35312 48.526 6.30937 48.4641 6.26561 48.4053C6.24094 48.3745 6.21799 48.3425 6.19687 48.3093L6.06874 48.1389L5.91874 47.9253C5.71249 47.6311 5.50937 47.3369 5.31249 47.0365L5.22811 46.9033L5.11249 46.7237L4.98749 46.5255L4.84374 46.2902L4.74374 46.1292C4.72581 46.0951 4.70598 46.062 4.68437 46.0301L4.55937 45.8195L4.49062 45.6956C4.42499 45.5872 4.36249 45.4757 4.29999 45.3643C4.28124 45.3302 4.25937 45.2961 4.24062 45.259C4.22187 45.2218 4.19374 45.1785 4.17187 45.1351C4.1729 45.1258 4.1729 45.1165 4.17187 45.1072C3.65327 44.1373 3.47043 43.0255 3.65144 41.9426C3.83245 40.8597 4.3673 39.8656 5.17379 39.1132C5.98028 38.3608 7.01379 37.8916 8.11549 37.7778C9.21719 37.664 10.3261 37.9119 11.2719 38.4833C11.3531 38.5328 11.4312 38.5855 11.5094 38.6381C11.6562 43.8592 13.7312 59.0085 31.2937 60.4826Z" fill="#3369E7"/>
<defs>
<linearGradient id="paint0_linear_18_130" x1="22.1094" y1="31.1409" x2="60.0625" y2="31.1409" gradientUnits="userSpaceOnUse">
<stop offset="0.37" stop-color="#3369E7"/>
<stop offset="0.51" stop-color="#295BCC"/>
<stop offset="0.81" stop-color="#113889"/>
<stop offset="1" stop-color="#00205B"/>
</linearGradient>
<linearGradient id="paint1_linear_18_130" x1="79.1969" y1="48.3371" x2="19.0221" y2="49.1318" gradientUnits="userSpaceOnUse">
<stop offset="0.37" stop-color="#3369E7"/>
<stop offset="0.51" stop-color="#295BCC"/>
<stop offset="0.81" stop-color="#113889"/>
<stop offset="1" stop-color="#00205B"/>
</linearGradient>
<linearGradient id="paint2_linear_18_130" x1="49.6406" y1="13.3346" x2="25.2382" y2="14.2743" gradientUnits="userSpaceOnUse">
<stop offset="0.37" stop-color="#3369E7"/>
<stop offset="0.51" stop-color="#295BCC"/>
<stop offset="0.81" stop-color="#113889"/>
<stop offset="1" stop-color="#00205B"/>
</linearGradient>
<linearGradient id="paint3_linear_18_130" x1="48.25" y1="17.0507" x2="44.9458" y2="6.38389" gradientUnits="userSpaceOnUse">
<stop offset="0.23" stop-color="#00205B"/>
<stop offset="0.99" stop-color="#3369E7"/>
</linearGradient>
<linearGradient id="paint4_linear_18_130" x1="47.9781" y1="41.5367" x2="45.335" y2="60.1023" gradientUnits="userSpaceOnUse">
<stop offset="0.23" stop-color="#00205B"/>
<stop offset="1" stop-color="#3369E7"/>
</linearGradient>
</defs>
</svg>
