<svg width="130" height="41" viewBox="0 0 130 41" fill="none" xmlns="http://www.w3.org/2000/svg">
<path d="M45.5244 15.8535C46.0322 16.3769 46.7412 16.6385 47.6512 16.6385C48.5612 16.6385 49.2382 16.4419 49.6824 16.0488C50.1348 15.6465 50.4482 15.1134 50.5782 14.525C50.5952 14.43 50.645 14.3439 50.7192 14.2815C50.7933 14.219 50.8871 14.1841 50.9844 14.1828H51.7076C51.7986 14.1839 51.8856 14.2203 51.9498 14.2843C52.014 14.3483 52.0503 14.4348 52.0508 14.525C52.0118 15.0844 51.8362 15.626 51.539 16.1031C51.1893 16.6824 50.6882 17.1574 50.0887 17.4779C49.3399 17.8733 48.4991 18.0663 47.6512 18.0375C46.8483 18.0557 46.0543 17.8685 45.3457 17.494C44.7032 17.1473 44.1729 16.6274 43.8162 15.9944C43.4477 15.3289 43.2457 14.5854 43.2271 13.8265C43.2163 13.5152 43.2115 13.0536 43.2129 12.4417C43.2142 11.8297 43.219 11.3688 43.2271 11.0588C43.2457 10.2999 43.4477 9.55648 43.8162 8.89093C44.1729 8.25796 44.7032 7.73803 45.3457 7.39133C46.0539 7.01543 46.8479 6.82685 47.6512 6.84382C48.4991 6.81496 49.3399 7.00797 50.0887 7.40341C50.6882 7.72388 51.1893 8.19888 51.539 8.77821C51.8328 9.25616 52.005 9.79775 52.0407 10.3563C52.0402 10.4466 52.0039 10.533 51.9397 10.597C51.8755 10.661 51.7885 10.6974 51.6974 10.6985H50.9844C50.8875 10.696 50.7943 10.6607 50.7203 10.5985C50.6464 10.5362 50.5963 10.4508 50.5782 10.3563C50.4526 9.76989 50.1451 9.23708 49.6987 8.83256C49.2599 8.44071 48.5828 8.24412 47.6674 8.24278C46.752 8.24144 46.0431 8.50311 45.5407 9.02781C45.0342 9.55116 44.7634 10.253 44.7282 11.1333C44.7173 11.4433 44.7119 11.8781 44.7119 12.4376C44.7119 12.9972 44.7119 13.4441 44.7282 13.744C44.7526 14.627 45.018 15.3302 45.5244 15.8535Z" fill="#4D4D4D"/>
<path d="M61.0126 13.8567C61.0126 14.1063 61.0004 14.3438 60.9801 14.5713C60.8866 15.6287 60.5183 16.4708 59.8751 17.0975C59.2319 17.7241 58.3611 18.0375 57.2629 18.0375C56.166 18.0375 55.296 17.7241 54.6527 17.0975C54.0095 16.4708 53.6412 15.6287 53.5477 14.5713C53.5356 14.4586 53.5315 14.219 53.5315 13.8567C53.5315 13.4944 53.5315 13.2247 53.5477 13.1099C53.6303 12.0538 53.996 11.2124 54.6446 10.5858C55.2933 9.95909 56.166 9.64575 57.2629 9.64575C58.3611 9.64575 59.2346 9.95909 59.8832 10.5858C60.5319 11.2124 60.8975 12.0538 60.9801 13.1099C61.0004 13.3394 61.0126 13.587 61.0126 13.8567ZM58.8859 11.5882C58.506 11.1856 57.9637 10.9843 57.2609 10.9843C56.5581 10.9843 56.0198 11.1856 55.6359 11.5882C55.237 12.0313 55.0021 12.5956 54.9696 13.1884C54.9595 13.3132 54.9534 13.5367 54.9534 13.8567C54.9534 14.1768 54.9534 14.3801 54.9696 14.4948C55.0014 15.091 55.2379 15.6585 55.6399 16.1031C56.0218 16.5057 56.5635 16.707 57.2649 16.707C57.9657 16.707 58.5081 16.5057 58.8899 16.1031C59.2895 15.6567 59.5237 15.0887 59.5541 14.4928C59.5745 14.2633 59.5846 14.052 59.5846 13.8547C59.5846 13.6574 59.5846 13.436 59.5541 13.1864C59.5207 12.594 59.285 12.0304 58.8859 11.5882V11.5882Z" fill="#4D4D4D"/>
<path d="M65.2457 9.93356C65.629 9.724 66.0637 9.62434 66.501 9.64572C67.7197 9.64572 68.5769 10.0959 69.0726 10.9964C69.342 10.592 69.6952 10.2489 70.1085 9.98993C70.5736 9.73906 71.0989 9.61867 71.6279 9.6417C72.6543 9.6417 73.4154 9.94698 73.911 10.5576C74.4066 11.1681 74.6551 12.0337 74.6565 13.1542V17.4618C74.6549 17.5728 74.6097 17.6789 74.5304 17.7575C74.4511 17.8361 74.344 17.8809 74.2319 17.8825H73.651C73.5392 17.8804 73.4327 17.8353 73.3538 17.7568C73.275 17.6783 73.2301 17.5725 73.2285 17.4618V13.3132C73.2285 11.7593 72.6117 10.9823 71.378 10.9823C71.1254 10.971 70.8735 11.0153 70.6403 11.112C70.407 11.2088 70.1984 11.3556 70.0293 11.5419C69.6948 11.9136 69.5276 12.4678 69.5276 13.2045V17.4618C69.526 17.5728 69.4807 17.6789 69.4015 17.7575C69.3222 17.8361 69.2151 17.8809 69.103 17.8825H68.5241C68.412 17.8809 68.3049 17.8361 68.2257 17.7575C68.1464 17.6789 68.1012 17.5728 68.0996 17.4618V13.3132C68.0996 11.7593 67.4828 10.9823 66.2491 10.9823C65.9965 10.971 65.7446 11.0153 65.5114 11.112C65.2781 11.2088 65.0695 11.3556 64.9004 11.5419C64.5672 11.9142 64.3986 12.4678 64.3986 13.2045V17.4618C64.3993 17.517 64.3884 17.5718 64.3667 17.6227C64.3451 17.6736 64.3131 17.7195 64.2727 17.7577C64.2345 17.7974 64.1884 17.829 64.1374 17.8504C64.0864 17.8719 64.0316 17.8828 63.9761 17.8825H63.3952C63.3395 17.8831 63.2842 17.8723 63.2328 17.8508C63.1814 17.8294 63.1351 17.7976 63.0966 17.7577C63.0566 17.7194 63.025 17.6733 63.0037 17.6224C62.9824 17.5715 62.9718 17.5169 62.9727 17.4618V10.2154C62.9721 10.1606 62.9828 10.1063 63.0041 10.0558C63.0254 10.0052 63.0569 9.95955 63.0966 9.92149C63.1351 9.8815 63.1814 9.84978 63.2328 9.82831C63.2842 9.80684 63.3395 9.79607 63.3952 9.79669H63.9843C64.0397 9.79635 64.0946 9.80725 64.1456 9.82871C64.1966 9.85017 64.2426 9.88174 64.2808 9.92149C64.3209 9.95937 64.3528 10.005 64.3745 10.0555C64.3961 10.1061 64.4071 10.1605 64.4068 10.2154V10.6985C64.6379 10.3958 64.9221 10.1367 65.2457 9.93356V9.93356Z" fill="#4D4D4D"/>
<path d="M78.3574 20.4147C78.3558 20.5258 78.3106 20.6319 78.2313 20.7105C78.1521 20.789 78.045 20.8338 77.9329 20.8354H77.354C77.2419 20.8338 77.1348 20.789 77.0555 20.7105C76.9763 20.6319 76.931 20.5258 76.9294 20.4147V10.2194C76.9315 10.1087 76.977 10.0031 77.0562 9.92498C77.1354 9.84685 77.2422 9.8023 77.354 9.80075H77.9329C78.0446 9.8023 78.1514 9.84685 78.2306 9.92498C78.3098 10.0031 78.3553 10.1087 78.3574 10.2194V10.7025C78.8896 9.99802 79.7021 9.64576 80.7949 9.64576C81.4133 9.63746 82.0228 9.79313 82.5601 10.0966C83.0943 10.4028 83.5334 10.8484 83.8296 11.3849C84.1605 11.9866 84.341 12.6583 84.3557 13.3434C84.3658 13.4481 84.3719 13.6132 84.3719 13.8406C84.3719 14.0681 84.3719 14.2432 84.3557 14.3539C84.3394 15.0373 84.1561 15.7066 83.8215 16.3044C83.5247 16.8362 83.089 17.279 82.5601 17.5866C82.0203 17.8912 81.4079 18.0469 80.7868 18.0375C80.2759 18.0536 79.7684 17.9494 79.306 17.7335C78.9358 17.5579 78.6113 17.3003 78.3574 16.9807V20.4147ZM79.0155 16.1031C79.2303 16.3086 79.4853 16.4682 79.7648 16.5721C80.0443 16.6759 80.3424 16.7218 80.6405 16.707C80.9429 16.7212 81.2447 16.6703 81.5253 16.5577C81.8058 16.4451 82.0584 16.2735 82.2655 16.0548C82.6914 15.5599 82.9274 14.9319 82.9318 14.2814C82.9318 14.1788 82.948 14.0339 82.948 13.8467C82.948 13.6595 82.948 13.5165 82.9318 13.4119C82.9278 12.762 82.6917 12.1345 82.2655 11.6405C82.0584 11.4218 81.8058 11.2502 81.5253 11.1376C81.2447 11.025 80.9429 10.9741 80.6405 10.9884C80.3469 10.9786 80.0543 11.0269 79.7798 11.1306C79.5053 11.2343 79.2545 11.3912 79.0419 11.5922C78.6132 12.0135 78.3707 12.5861 78.3676 13.1844L78.3513 13.7883L78.3676 14.4103C78.3879 15.1269 78.6093 15.7005 79.0155 16.1031Z" fill="#4D4D4D"/>
<path d="M87.6098 17.7577C87.5713 17.7977 87.525 17.8294 87.4736 17.8509C87.4222 17.8723 87.367 17.8831 87.3112 17.8825H86.7343C86.6222 17.8809 86.5152 17.8361 86.4359 17.7575C86.3566 17.679 86.3114 17.5729 86.3098 17.4618V7.26652C86.3109 7.15508 86.3559 7.04847 86.4352 6.96948C86.5145 6.89049 86.6219 6.84538 86.7343 6.84381H87.3133C87.425 6.84536 87.5318 6.8899 87.611 6.96803C87.6902 7.04616 87.7357 7.15175 87.7378 7.26249V17.4618C87.7381 17.5172 87.727 17.572 87.7049 17.623C87.6829 17.6739 87.6505 17.7197 87.6098 17.7577V17.7577Z" fill="#4D4D4D"/>
<path d="M95.9522 10.7025C96.5995 11.407 96.9238 12.3652 96.9252 13.5769V13.9956C96.9236 14.1067 96.8783 14.2128 96.7991 14.2914C96.7198 14.3699 96.6127 14.4147 96.5006 14.4163H91.1077V14.5089C91.1003 14.8055 91.1526 15.1007 91.2614 15.3771C91.3702 15.6536 91.5333 15.9058 91.7414 16.1192C91.9488 16.315 92.1937 16.4675 92.4617 16.5678C92.7297 16.668 93.0152 16.714 93.3014 16.7029C93.7174 16.7219 94.1328 16.6533 94.5202 16.5017C94.8139 16.3612 95.0774 16.1657 95.2961 15.926C95.3611 15.8561 95.4382 15.7981 95.5236 15.7549C95.6105 15.7197 95.7041 15.7039 95.7978 15.7086H96.2691C96.3271 15.7069 96.3848 15.7171 96.4386 15.7385C96.4925 15.76 96.5413 15.7923 96.5819 15.8334C96.6217 15.8707 96.6523 15.9167 96.6713 15.9676C96.6903 16.0186 96.6972 16.0732 96.6916 16.1273C96.6266 16.4541 96.4655 16.7546 96.2284 16.9908C95.9085 17.3209 95.5176 17.5755 95.0848 17.7356C94.5167 17.9508 93.9115 18.0541 93.3034 18.0395C92.6766 18.0501 92.0587 17.8915 91.5159 17.5806C90.9921 17.2739 90.5613 16.833 90.2687 16.3044C89.9543 15.7469 89.7639 15.1292 89.7102 14.4928C89.6898 14.1808 89.6797 13.9433 89.6797 13.7762C89.6797 13.6091 89.6898 13.3736 89.7102 13.0616C89.7642 12.4481 89.955 11.8541 90.2687 11.3225C90.5663 10.8136 90.9927 10.3903 91.5058 10.0946C92.0521 9.78613 92.6727 9.6303 93.3014 9.64375C94.4213 9.64509 95.3049 9.99801 95.9522 10.7025ZM95.5134 13.118V13.0636C95.5255 12.7827 95.4775 12.5024 95.3725 12.2412C95.2674 11.9799 95.1078 11.7437 94.9041 11.5479C94.4637 11.1572 93.8857 10.954 93.2953 10.9823C92.7253 10.9688 92.1721 11.1744 91.7516 11.556C91.5417 11.7474 91.3753 11.9808 91.2632 12.2407C91.1512 12.5006 91.0961 12.7811 91.1016 13.0636V13.1099L95.5134 13.118Z" fill="#4D4D4D"/>
<path d="M99.6998 17.5866C99.633 17.6602 99.5596 17.7276 99.4804 17.7879C99.3994 17.8485 99.2995 17.8791 99.1981 17.8744H98.477C98.4275 17.8752 98.3784 17.866 98.3326 17.8473C98.2869 17.8286 98.2454 17.8008 98.2109 17.7657C98.1765 17.7336 98.1491 17.695 98.1302 17.6521C98.1114 17.6092 98.1015 17.5629 98.1012 17.5161C98.0993 17.439 98.1213 17.3631 98.1642 17.2987L101.034 13.748L98.3124 10.3764C98.2693 10.3114 98.2473 10.2348 98.2495 10.157C98.2497 10.1105 98.2596 10.0645 98.2784 10.022C98.2973 9.97937 98.3248 9.94107 98.3592 9.90943C98.3937 9.87432 98.4351 9.84657 98.4809 9.82788C98.5266 9.80918 98.5758 9.79995 98.6252 9.80073H99.3788C99.4799 9.79627 99.5795 9.82609 99.6612 9.88527C99.7403 9.94565 99.8137 10.013 99.8806 10.0866L101.969 12.6912L104.039 10.0966C104.105 10.0231 104.179 9.95571 104.258 9.89534C104.34 9.83616 104.439 9.80634 104.54 9.81079H105.261C105.311 9.80997 105.361 9.81918 105.407 9.83787C105.453 9.85655 105.495 9.88432 105.529 9.91949C105.563 9.95143 105.591 9.98978 105.61 10.0323C105.628 10.0748 105.638 10.1206 105.639 10.1671C105.64 10.2447 105.618 10.3209 105.576 10.3865L102.846 13.7883L105.69 17.3168C105.731 17.3819 105.753 17.4573 105.753 17.5342C105.753 17.581 105.743 17.6273 105.724 17.6702C105.705 17.7131 105.678 17.7517 105.643 17.7838C105.608 17.819 105.566 17.8468 105.52 17.8655C105.474 17.8841 105.425 17.8934 105.375 17.8925H104.624C104.522 17.8972 104.422 17.8666 104.341 17.806C104.262 17.7457 104.189 17.6783 104.122 17.6047L101.912 14.835L99.6998 17.5866Z" fill="#4D4D4D"/>
<path d="M45.1262 32.6732H50.3953C50.4507 32.6728 50.5056 32.6837 50.5566 32.7052C50.6076 32.7266 50.6536 32.7582 50.6918 32.798C50.7322 32.8361 50.7642 32.882 50.7859 32.9329C50.8075 32.9838 50.8184 33.0386 50.8178 33.0939V33.6534C50.8167 33.7642 50.7719 33.87 50.6929 33.9483C50.6139 34.0266 50.507 34.0711 50.3953 34.0721H44.0598C44.0042 34.073 43.949 34.0625 43.8977 34.0414C43.8463 34.0203 43.7999 33.989 43.7612 33.9493C43.7209 33.9112 43.6889 33.8653 43.6672 33.8144C43.6455 33.7635 43.6347 33.7087 43.6353 33.6534V23.6132C43.6349 23.5583 43.6459 23.5039 43.6676 23.4533C43.6892 23.4028 43.7211 23.3572 43.7612 23.3193C43.7997 23.2793 43.846 23.2476 43.8974 23.2261C43.9488 23.2046 44.0041 23.1939 44.0598 23.1945H50.2693C50.3811 23.1955 50.4879 23.24 50.5669 23.3183C50.6459 23.3966 50.6908 23.5024 50.6918 23.6132V24.1727C50.6927 24.2278 50.6822 24.2825 50.6609 24.3334C50.6396 24.3843 50.6079 24.4303 50.5679 24.4686C50.5295 24.5086 50.4831 24.5403 50.4317 24.5618C50.3804 24.5833 50.3251 24.5941 50.2693 24.5934H45.1262V27.8724H49.924C49.9796 27.8716 50.0348 27.882 50.0862 27.9031C50.1375 27.9242 50.184 27.9556 50.2226 27.9952C50.263 28.0333 50.295 28.0793 50.3167 28.1302C50.3383 28.1811 50.3492 28.2359 50.3486 28.2911V28.8507C50.347 28.9618 50.3018 29.0679 50.2225 29.1464C50.1432 29.225 50.0361 29.2698 49.924 29.2714H45.1262V32.6732Z" fill="#4D4D4D"/>
<path d="M59.8671 33.9494C59.8285 33.989 59.782 34.0203 59.7306 34.0415C59.6793 34.0626 59.6241 34.073 59.5685 34.0721H58.9896C58.934 34.073 58.8788 34.0626 58.8274 34.0415C58.7761 34.0203 58.7296 33.989 58.691 33.9494C58.6506 33.9112 58.6186 33.8653 58.597 33.8144C58.5753 33.7635 58.5644 33.7087 58.5651 33.6535V29.5512C58.5651 28.7742 58.3721 28.1831 57.9862 27.7778C57.5409 27.389 56.9678 27.1744 56.3744 27.1744C55.7809 27.1744 55.2078 27.389 54.7626 27.7778C54.3712 28.1804 54.1749 28.7715 54.1735 29.5512V33.6535C54.1735 33.7645 54.129 33.871 54.0498 33.9495C53.9705 34.028 53.8631 34.0721 53.751 34.0721H53.1701C53.0583 34.0711 52.9515 34.0266 52.8725 33.9484C52.7935 33.8701 52.7486 33.7642 52.7476 33.6535V26.4071C52.7491 26.2963 52.7941 26.1905 52.8729 26.112C52.9518 26.0335 53.0583 25.9885 53.1701 25.9864H53.751C53.8631 25.9874 53.9702 26.0322 54.0493 26.1109C54.1283 26.1896 54.173 26.296 54.1735 26.4071V26.8882C54.4282 26.5685 54.7534 26.311 55.1241 26.1353C55.5865 25.9195 56.094 25.8153 56.6049 25.8314C57.2172 25.8204 57.8222 25.9653 58.3619 26.2521C58.872 26.5299 59.2887 26.9498 59.5604 27.4598C59.8606 28.033 60.0094 28.6721 59.993 29.3177V33.6535C59.9937 33.7087 59.9828 33.7635 59.9611 33.8144C59.9395 33.8653 59.9075 33.9112 59.8671 33.9494Z" fill="#4D4D4D"/>
<path d="M66.9156 26.1394C67.2863 26.315 67.6115 26.5726 67.8662 26.8922V26.4111C67.8667 26.3 67.9114 26.1936 67.9904 26.1149C68.0695 26.0362 68.1766 25.9915 68.2887 25.9904H68.8696C68.9814 25.9925 69.0879 26.0375 69.1668 26.1161C69.2456 26.1946 69.2906 26.3004 69.2921 26.4111V33.9635C69.2921 35.0625 68.9787 35.9254 68.3517 36.552C67.7247 37.1787 66.8045 37.492 65.5912 37.492C64.9142 37.5126 64.2406 37.3904 63.6148 37.1338C63.1485 36.9466 62.7401 36.6411 62.4306 36.2481C62.1931 35.937 62.052 35.5643 62.0243 35.1752C62.0188 35.1205 62.0267 35.0652 62.0472 35.0141C62.0677 34.9629 62.1002 34.9174 62.1421 34.8813C62.1818 34.8413 62.2293 34.8096 62.2816 34.7881C62.334 34.7667 62.3902 34.7559 62.4468 34.7565H62.9181C63.0256 34.7506 63.1317 34.7835 63.2167 34.8491C63.3105 34.9427 63.385 35.0534 63.436 35.1752C63.5691 35.4477 63.7749 35.6788 64.0312 35.8435C64.3237 36.0515 64.7943 36.1555 65.4429 36.1555C67.0679 36.1555 67.8804 35.4845 67.8804 34.1426V33.1623C67.3462 33.8689 66.5357 34.2191 65.4429 34.2191C64.8248 34.2271 64.2156 34.0722 63.6778 33.7702C63.1456 33.4642 62.7069 33.0211 62.4082 32.488C62.0777 31.889 61.8972 31.2201 61.8821 30.5375L61.8679 30.0242L61.8821 29.511C61.8973 28.8345 62.0749 28.1714 62.4001 27.5766C62.6975 27.0452 63.133 26.6025 63.6615 26.2944C64.2014 25.99 64.8137 25.8343 65.4348 25.8435C65.945 25.8249 66.4525 25.9263 66.9156 26.1394V26.1394ZM63.9682 27.8262C63.542 28.3201 63.306 28.9476 63.302 29.5975L63.2857 30.0323L63.302 30.4671C63.306 31.117 63.542 31.7445 63.9682 32.2384C64.1753 32.4574 64.4278 32.6293 64.7083 32.7422C64.9888 32.8552 65.2908 32.9065 65.5932 32.8926C65.8898 32.9068 66.1861 32.8605 66.4639 32.7567C66.7416 32.6528 66.9949 32.4935 67.2081 32.2887C67.636 31.8298 67.872 31.2268 67.8682 30.6019C67.8784 30.4973 67.8825 30.3121 67.8825 30.0424C67.8825 29.7726 67.8825 29.5854 67.8682 29.4828C67.8357 28.7581 67.6157 28.1932 67.2081 27.7879C66.9943 27.584 66.7409 27.4253 66.4633 27.3215C66.1857 27.2177 65.8897 27.1709 65.5932 27.1841C65.2916 27.1683 64.9902 27.2175 64.7096 27.3283C64.4291 27.4392 64.1761 27.609 63.9682 27.8262V27.8262Z" fill="#4D4D4D"/>
<path d="M73.1026 24.6397C73.0641 24.6797 73.0177 24.7114 72.9664 24.7329C72.915 24.7544 72.8597 24.7651 72.804 24.7645H71.9062C71.8508 24.7649 71.7959 24.754 71.7449 24.7325C71.6939 24.711 71.6478 24.6795 71.6096 24.6397C71.5692 24.6016 71.5372 24.5557 71.5156 24.5048C71.4939 24.4539 71.483 24.3991 71.4837 24.3438V23.4582C71.4847 23.3474 71.5296 23.2416 71.6086 23.1633C71.6876 23.085 71.7944 23.0405 71.9062 23.0395H72.7999C72.8555 23.0386 72.9107 23.0491 72.9621 23.0702C73.0134 23.0913 73.0599 23.1226 73.0985 23.1623C73.1389 23.2004 73.1709 23.2463 73.1925 23.2972C73.2142 23.3481 73.2251 23.4029 73.2244 23.4582V24.3438C73.2256 24.3988 73.2154 24.4534 73.1944 24.5043C73.1735 24.5552 73.1422 24.6013 73.1026 24.6397V24.6397ZM72.9462 33.9493C72.9075 33.989 72.8611 34.0203 72.8097 34.0414C72.7584 34.0625 72.7032 34.073 72.6476 34.0721H72.0687C72.0131 34.073 71.9579 34.0625 71.9065 34.0414C71.8552 34.0203 71.8087 33.989 71.7701 33.9493C71.7297 33.9112 71.6977 33.8653 71.676 33.8144C71.6544 33.7635 71.6435 33.7087 71.6441 33.6534V26.407C71.6457 26.2959 71.6909 26.1898 71.7702 26.1113C71.8495 26.0327 71.9566 25.9879 72.0687 25.9863H72.6476C72.7597 25.9879 72.8667 26.0327 72.946 26.1113C73.0253 26.1898 73.0705 26.2959 73.0721 26.407V33.6534C73.0727 33.7087 73.0619 33.7635 73.0402 33.8144C73.0185 33.8653 72.9865 33.9112 72.9462 33.9493V33.9493Z" fill="#4D4D4D"/>
<path d="M82.5438 33.9494C82.5052 33.989 82.4588 34.0203 82.4074 34.0415C82.356 34.0626 82.3009 34.073 82.2453 34.0721H81.6663C81.6107 34.073 81.5556 34.0626 81.5042 34.0415C81.4528 34.0203 81.4064 33.989 81.3677 33.9494C81.3274 33.9112 81.2954 33.8653 81.2737 33.8144C81.2521 33.7635 81.2412 33.7087 81.2418 33.6535V29.5512C81.2418 28.7742 81.0488 28.1831 80.6629 27.7778C80.2177 27.389 79.6446 27.1744 79.0511 27.1744C78.4576 27.1744 77.8845 27.389 77.4393 27.7778C77.048 28.1804 76.8516 28.7715 76.8503 29.5512V33.6535C76.8503 33.7645 76.8057 33.871 76.7265 33.9495C76.6473 34.028 76.5398 34.0721 76.4278 34.0721H75.8468C75.7351 34.0711 75.6282 34.0266 75.5492 33.9484C75.4702 33.8701 75.4254 33.7642 75.4243 33.6535V26.4071C75.4259 26.2963 75.4708 26.1905 75.5497 26.112C75.6285 26.0335 75.7351 25.9885 75.8468 25.9864H76.4278C76.5398 25.9874 76.647 26.0322 76.726 26.1109C76.8051 26.1896 76.8497 26.296 76.8503 26.4071V26.8882C77.1049 26.5685 77.4301 26.311 77.8009 26.1353C78.2633 25.9195 78.7708 25.8153 79.2817 25.8314C79.894 25.8204 80.4989 25.9653 81.0387 26.2521C81.5488 26.5299 81.9654 26.9498 82.2371 27.4598C82.5373 28.033 82.6862 28.6721 82.6698 29.3177V33.6535C82.6704 33.7087 82.6595 33.7635 82.6379 33.8144C82.6162 33.8653 82.5842 33.9112 82.5438 33.9494Z" fill="#4D4D4D"/>
<path d="M90.809 26.8921C91.4576 27.5967 91.7819 28.5555 91.7819 29.7686V30.1933C91.7803 30.3044 91.7351 30.4105 91.6558 30.489C91.5766 30.5676 91.4695 30.6124 91.3574 30.614H85.9624V30.7066C85.9554 31.0033 86.008 31.2985 86.1172 31.575C86.2263 31.8514 86.3898 32.1036 86.5982 32.3169C86.8056 32.5126 87.0505 32.6652 87.3185 32.7654C87.5864 32.8657 87.872 32.9117 88.1582 32.9006C88.5743 32.921 88.99 32.8523 89.3769 32.6993C89.6717 32.5596 89.936 32.3641 90.1549 32.1236C90.2199 32.0542 90.2969 31.9969 90.3824 31.9546C90.4691 31.9186 90.5627 31.9021 90.6566 31.9062H91.1258C91.1841 31.905 91.242 31.9154 91.2961 31.9368C91.3502 31.9582 91.3994 31.9903 91.4407 32.031C91.4806 32.0687 91.5113 32.115 91.5303 32.1663C91.5494 32.2176 91.5562 32.2726 91.5504 32.3269C91.484 32.6527 91.323 32.9521 91.0872 33.1885C90.7676 33.5204 90.3758 33.7758 89.9416 33.9352C89.3707 34.1439 88.7642 34.2403 88.1561 34.219C87.5296 34.2297 86.9118 34.0718 86.3686 33.7621C85.8463 33.4572 85.4157 33.0193 85.1215 32.494C84.8071 31.9366 84.6173 31.3188 84.5649 30.6824C84.5446 30.3724 84.5344 30.1329 84.5344 29.9678C84.5344 29.8028 84.5446 29.5653 84.5649 29.2533C84.6186 28.6393 84.8086 28.0447 85.1215 27.5121C85.4211 27.0041 85.8478 26.5812 86.3605 26.2843C86.9071 25.9764 87.5275 25.8206 88.1561 25.8334C89.2774 25.8347 90.1617 26.1876 90.809 26.8921ZM90.3702 29.3076V29.2613C90.3823 28.9804 90.3343 28.7001 90.2292 28.4388C90.1242 28.1776 89.9646 27.9413 89.7608 27.7456C89.3232 27.3523 88.7463 27.1468 88.1561 27.1739C87.5858 27.1608 87.0325 27.3671 86.6124 27.7496C86.4018 27.9405 86.2347 28.1738 86.1222 28.4337C86.0098 28.6937 85.9546 28.9745 85.9604 29.2573V29.3036L90.3702 29.3076Z" fill="#4D4D4D"/>
<path d="M99.5433 26.8922C100.192 27.5967 100.516 28.5555 100.516 29.7686V30.1933C100.515 30.3044 100.469 30.4105 100.39 30.489C100.311 30.5676 100.204 30.6124 100.092 30.614H94.6988V30.7066C94.6914 31.0032 94.7437 31.2984 94.8525 31.5748C94.9613 31.8513 95.1245 32.1035 95.3325 32.3169C95.5399 32.5127 95.7849 32.6652 96.0528 32.7654C96.3208 32.8657 96.6063 32.9117 96.8925 32.9006C97.3086 32.9207 97.7242 32.852 98.1113 32.6993C98.4054 32.5596 98.6691 32.364 98.8872 32.1237C98.9522 32.0542 99.0293 31.9969 99.1147 31.9546C99.2014 31.9186 99.2951 31.9021 99.3889 31.9063H99.8602C99.9182 31.9049 99.9758 31.9153 100.03 31.9367C100.083 31.9582 100.132 31.9903 100.173 32.0311C100.213 32.0687 100.244 32.115 100.263 32.1663C100.282 32.2176 100.289 32.2726 100.283 32.327C100.217 32.653 100.056 32.9527 99.8196 33.1885C99.5005 33.5202 99.1094 33.7755 98.676 33.9352C98.105 34.1434 97.4986 34.2398 96.8905 34.2191C96.264 34.2294 95.6463 34.0715 95.103 33.7621C94.5811 33.4566 94.1506 33.0189 93.8558 32.494C93.5424 31.9362 93.3527 31.3186 93.2993 30.6824C93.279 30.3724 93.2688 30.1329 93.2688 29.9679C93.2688 29.8028 93.279 29.5653 93.2993 29.2533C93.3539 28.6395 93.5439 28.0451 93.8558 27.5121C94.1625 26.9878 94.6063 26.5552 95.1404 26.2601C95.6746 25.965 96.2792 25.8182 96.8905 25.8354C98.0118 25.8354 98.896 26.1877 99.5433 26.8922ZM99.1046 29.3076V29.2613C99.1167 28.9804 99.0686 28.7001 98.9636 28.4388C98.8586 28.1776 98.6989 27.9414 98.4952 27.7456C98.0576 27.3523 97.4806 27.1468 96.8905 27.174C96.3202 27.1612 95.7671 27.3675 95.3468 27.7496C95.1364 27.9406 94.9696 28.1739 94.8575 28.4339C94.7454 28.6939 94.6906 28.9746 94.6968 29.2573V29.3036L99.1046 29.3076Z" fill="#4D4D4D"/>
<path d="M106.844 26.1152C106.884 26.1533 106.916 26.1992 106.938 26.2502C106.959 26.3011 106.97 26.3558 106.97 26.4111V26.9083C106.969 27.0193 106.923 27.1255 106.844 27.2039C106.765 27.2822 106.657 27.3264 106.545 27.3269H105.645C105.059 27.3269 104.611 27.4799 104.303 27.7859C103.994 28.0918 103.842 28.5347 103.842 29.1144V33.6534C103.842 33.7087 103.831 33.7635 103.81 33.8144C103.788 33.8653 103.756 33.9112 103.716 33.9493C103.677 33.989 103.631 34.0203 103.579 34.0414C103.528 34.0626 103.473 34.073 103.417 34.0721H102.838C102.783 34.073 102.727 34.0626 102.676 34.0414C102.625 34.0203 102.578 33.989 102.54 33.9493C102.499 33.9112 102.467 33.8653 102.446 33.8144C102.424 33.7635 102.413 33.7087 102.414 33.6534V26.4071C102.415 26.296 102.46 26.1899 102.54 26.1113C102.619 26.0327 102.726 25.9879 102.838 25.9864H103.417C103.529 25.9879 103.636 26.0327 103.715 26.1113C103.795 26.1899 103.84 26.296 103.842 26.4071V26.8881C104.027 26.5991 104.286 26.3637 104.593 26.2058C104.953 26.0465 105.345 25.9714 105.739 25.9864H106.551C106.606 25.9871 106.661 25.9989 106.711 26.021C106.761 26.0432 106.806 26.0752 106.844 26.1152V26.1152Z" fill="#4D4D4D"/>
<path d="M109.799 24.6397C109.761 24.6795 109.715 24.711 109.664 24.7325C109.613 24.754 109.558 24.7649 109.503 24.7645H108.609C108.497 24.763 108.39 24.7181 108.31 24.6396C108.231 24.561 108.186 24.4549 108.184 24.3438V23.4582C108.184 23.4029 108.195 23.3481 108.216 23.2972C108.238 23.2463 108.27 23.2004 108.31 23.1623C108.349 23.1226 108.395 23.0913 108.447 23.0702C108.498 23.0491 108.553 23.0386 108.609 23.0395H109.503C109.614 23.0405 109.721 23.085 109.8 23.1633C109.879 23.2416 109.924 23.3474 109.925 23.4582V24.3438C109.926 24.3991 109.915 24.4539 109.893 24.5048C109.872 24.5557 109.84 24.6016 109.799 24.6397V24.6397ZM109.643 33.9493C109.604 33.9887 109.558 34.0199 109.507 34.041C109.456 34.0621 109.401 34.0727 109.346 34.0721H108.765C108.71 34.073 108.654 34.0625 108.603 34.0414C108.552 34.0203 108.505 33.989 108.467 33.9493C108.426 33.9112 108.394 33.8653 108.373 33.8144C108.351 33.7635 108.34 33.7087 108.341 33.6534V26.407C108.342 26.2959 108.388 26.1898 108.467 26.1113C108.546 26.0327 108.653 25.9879 108.765 25.9863H109.346C109.402 25.986 109.457 25.9969 109.508 26.0184C109.559 26.0398 109.605 26.0714 109.643 26.1111C109.683 26.1493 109.715 26.1952 109.737 26.2461C109.758 26.297 109.769 26.3518 109.769 26.407V33.6534C109.769 33.7087 109.758 33.7635 109.737 33.8144C109.715 33.8653 109.683 33.9112 109.643 33.9493V33.9493Z" fill="#4D4D4D"/>
<path d="M119.234 33.9494C119.196 33.9887 119.15 34.0199 119.099 34.0411C119.048 34.0622 118.993 34.0727 118.938 34.0721H118.357C118.301 34.073 118.246 34.0626 118.195 34.0415C118.143 34.0203 118.097 33.989 118.058 33.9494C118.018 33.9112 117.986 33.8653 117.964 33.8144C117.943 33.7635 117.932 33.7087 117.932 33.6535V29.5512C117.932 28.7742 117.739 28.1831 117.353 27.7778C116.908 27.389 116.335 27.1744 115.742 27.1744C115.148 27.1744 114.575 27.389 114.13 27.7778C113.738 28.1804 113.543 28.7715 113.543 29.5512V33.6535C113.543 33.7087 113.533 33.7635 113.511 33.8144C113.489 33.8653 113.457 33.9112 113.417 33.9494C113.378 33.989 113.332 34.0203 113.28 34.0415C113.229 34.0626 113.174 34.073 113.118 34.0721H112.539C112.484 34.073 112.429 34.0626 112.377 34.0415C112.326 34.0203 112.279 33.989 112.241 33.9494C112.2 33.9112 112.168 33.8653 112.147 33.8144C112.125 33.7635 112.114 33.7087 112.115 33.6535V26.4071C112.116 26.296 112.162 26.1899 112.241 26.1113C112.32 26.0328 112.427 25.9879 112.539 25.9864H113.118C113.23 25.9879 113.337 26.0328 113.417 26.1113C113.496 26.1899 113.541 26.296 113.543 26.4071V26.8882C113.797 26.5686 114.121 26.311 114.491 26.1353C114.954 25.9195 115.461 25.8153 115.972 25.8314C116.584 25.8202 117.189 25.9651 117.729 26.2521C118.239 26.5304 118.657 26.9501 118.93 27.4598C119.228 28.0334 119.376 28.6724 119.36 29.3177V33.6535C119.361 33.7087 119.35 33.7635 119.328 33.8144C119.307 33.8653 119.275 33.9112 119.234 33.9494V33.9494Z" fill="#4D4D4D"/>
<path d="M126.291 26.1394C126.661 26.3156 126.985 26.5731 127.239 26.8922V26.4111C127.241 26.3004 127.286 26.1946 127.365 26.116C127.444 26.0375 127.55 25.9925 127.662 25.9904H128.243C128.299 25.9898 128.354 26.0006 128.405 26.022C128.457 26.0435 128.503 26.0752 128.542 26.1152C128.582 26.1535 128.613 26.1995 128.634 26.2504C128.656 26.3013 128.666 26.356 128.665 26.4111V33.9635C128.665 35.0625 128.352 35.9254 127.725 36.552C127.098 37.1787 126.178 37.492 124.964 37.492C124.288 37.5126 123.614 37.3904 122.988 37.1338C122.522 36.9466 122.115 36.6411 121.806 36.2481C121.568 35.937 121.427 35.5643 121.4 35.1752C121.394 35.1205 121.402 35.0652 121.422 35.0141C121.443 34.9629 121.476 34.9174 121.517 34.8813C121.557 34.8414 121.605 34.8099 121.657 34.7884C121.709 34.767 121.766 34.7562 121.822 34.7565H122.281C122.389 34.7504 122.495 34.7833 122.58 34.8491C122.674 34.9422 122.749 35.053 122.799 35.1752C122.932 35.4477 123.138 35.6788 123.394 35.8435C123.687 36.0515 124.161 36.1555 124.816 36.1555C126.441 36.1555 127.254 35.4845 127.254 34.1426V33.1623C126.719 33.8689 125.909 34.2191 124.816 34.2191C124.198 34.2271 123.589 34.0722 123.051 33.7702C122.519 33.4637 122.081 33.0207 121.782 32.488C121.451 31.889 121.271 31.2201 121.255 30.5375L121.241 30.0242L121.255 29.511C121.271 28.8345 121.448 28.1714 121.773 27.5766C122.071 27.0446 122.507 26.6018 123.037 26.2944C123.576 25.9898 124.188 25.8341 124.808 25.8435C125.319 25.8252 125.827 25.9265 126.291 26.1394ZM123.342 27.8262C122.916 28.3206 122.68 28.9478 122.675 29.5975L122.659 30.0323L122.675 30.4671C122.68 31.1168 122.916 31.744 123.342 32.2384C123.549 32.4572 123.801 32.6289 124.082 32.7418C124.362 32.8548 124.664 32.9062 124.967 32.8926C125.263 32.907 125.559 32.8609 125.837 32.757C126.115 32.6531 126.368 32.4937 126.581 32.2887C127.009 31.8298 127.245 31.2268 127.242 30.6019C127.252 30.4973 127.256 30.3121 127.256 30.0424C127.256 29.7726 127.256 29.5854 127.242 29.4828C127.209 28.7581 126.989 28.1932 126.581 27.7879C126.368 27.5838 126.114 27.425 125.837 27.3212C125.559 27.2173 125.263 27.1707 124.967 27.1841C124.665 27.1684 124.363 27.2177 124.083 27.3285C123.802 27.4394 123.549 27.6092 123.342 27.8262V27.8262Z" fill="#4D4D4D"/>
<path d="M39.0407 20.0101C39.0702 23.2584 38.2654 26.4607 36.7018 29.3157C35.1383 32.1708 32.8676 34.5848 30.1032 36.3306C30.934 35.708 31.5926 34.8876 32.018 33.9454C32.4434 33.0033 32.6219 31.97 32.5368 30.9413C32.4517 29.9125 32.1058 28.9218 31.5313 28.0609C30.9567 27.2 30.1721 26.4968 29.2501 26.0166C28.9105 25.7931 28.5293 25.6391 28.1288 25.5637C27.7183 25.4852 27.296 25.4897 26.8873 25.5769C26.4786 25.664 26.0918 25.8321 25.7502 26.0709C24.575 26.8985 23.1759 27.3572 21.7345 27.3873H21.4988C20.204 27.4105 18.9255 27.0983 17.7898 26.4815C16.7176 25.892 15.8412 25.0067 15.267 23.9332C14.653 22.7662 14.3449 21.4649 14.3712 20.149C14.3453 18.8338 14.6533 17.5332 15.267 16.3668C15.8401 15.292 16.7158 14.4054 17.7877 13.8144C18.9234 13.1977 20.202 12.8855 21.4968 12.9086C21.6045 12.9086 21.6999 12.9086 21.8157 12.9086C23.2292 12.9536 24.5978 13.4108 25.7502 14.2231C26.2404 14.5681 26.8212 14.7646 27.422 14.7887V14.7887C28.2293 14.8206 29.017 14.5373 29.6157 13.9996V13.9996C29.6685 13.9513 29.7213 13.901 29.7701 13.8507C30.5583 13.3267 31.2137 12.6293 31.6852 11.8131C32.1567 10.9968 32.4316 10.0836 32.4884 9.14473C32.5452 8.20586 32.3825 7.26667 32.0128 6.40039C31.6431 5.53412 31.0765 4.76417 30.3571 4.15057C33.0074 5.88429 35.186 8.23813 36.7005 11.0042C38.2149 13.7702 39.0187 16.8632 39.0407 20.0101V20.0101Z" fill="url(#paint0_linear_66_2774)"/>
<path d="M32.5529 31.4393C32.5535 32.3875 32.3318 33.3229 31.9053 34.1718C31.4788 35.0206 30.8591 35.7596 30.0951 36.3306C29.6888 36.5855 29.2724 36.8271 28.8459 37.0552C28.7077 37.1277 28.5696 37.2001 28.4396 37.2706C25.9265 38.5271 23.1667 39.2244 20.3532 39.3137V39.3137H20.1927H20.0302H19.2502H19.1426H18.9841H18.8541H18.8054C18.7662 39.3157 18.7268 39.3157 18.6876 39.3137H18.5291H18.3809L18.1615 39.2976L18.0295 39.2855H17.9848H17.8954L17.7735 39.2734H17.7552L17.5866 39.2553H17.5481L17.4506 39.2452L17.3551 39.2332L17.2231 39.217L17.1113 39.203L16.9082 39.1768L16.8148 39.1627L16.6563 39.0902L16.5426 39.0721L16.4715 39.0621L16.3699 39.0439L16.2298 39.0198L16.0896 38.9936H16.0449L15.9352 38.9715C15.6854 38.9252 15.4396 38.8708 15.1959 38.8145L15.0882 38.7883L14.9826 38.7621H14.9541L14.8282 38.7299L14.751 38.7098L14.6556 38.6836L14.5073 38.6454L14.4057 38.6172C14.2473 38.5729 14.0909 38.5266 13.9324 38.4763L13.8532 38.4461L13.7435 38.4119L13.6927 38.3958L13.5993 38.3636L13.4916 38.3294L13.4591 38.3173L13.3393 38.277L13.2012 38.2287L13.0306 38.1683L12.866 38.1079L12.7523 38.0637L12.5491 37.9831L12.4679 37.9509L12.3826 37.9167L12.279 37.8745H12.2627L12.1206 37.8141C11.8463 37.6993 11.5782 37.5786 11.3081 37.4517L11.2024 37.4014L11.1252 37.3632L11.0684 37.335L10.9729 37.2867L10.916 37.2585L10.8063 37.2022L10.5016 37.0431L10.2985 36.9284L10.2254 36.8861L10.1015 36.8177L9.99587 36.7573L9.95118 36.7311L9.8679 36.6828L9.7704 36.6265L9.72977 36.6003L9.64852 36.552L9.56118 36.4997L9.29102 36.3306L9.1793 36.2601L9.08587 36.1997L9.00259 36.1454L8.89087 36.0709L8.76087 35.9823L8.65524 35.9099L8.57805 35.8575L8.4968 35.7992L8.3668 35.7086L8.11087 35.5214L7.99712 35.4368L7.9768 35.4207L7.86509 35.3362C7.86124 35.3318 7.85636 35.3283 7.85087 35.3261L7.75946 35.2537L7.57462 35.1067L7.48321 35.0343L7.34509 34.9216C7.27399 34.8652 7.20493 34.8068 7.14196 34.7484L7.00181 34.6277L6.89821 34.5371L6.87181 34.5149L6.79868 34.4485L6.72555 34.3841L6.6829 34.3459L6.60368 34.2734L6.50618 34.1848L6.41274 34.0983L6.29899 33.9896L6.00446 33.7038L5.9354 33.6353L5.71805 33.4119L5.62665 33.3173L5.51899 33.2025C5.37477 33.0496 5.23259 32.8926 5.09243 32.7335L5.00305 32.6289L4.92181 32.5343L4.85884 32.4618L4.79384 32.3833L4.76946 32.3531L4.68415 32.2504C4.61102 32.1619 4.5379 32.0713 4.46681 31.9807L4.3754 31.864L4.23727 31.6868L4.15806 31.5781C4.12962 31.5419 4.10118 31.5017 4.07274 31.4634C4.0567 31.4434 4.04179 31.4226 4.02806 31.401L3.94477 31.2903L3.84727 31.1514C3.71321 30.9602 3.58118 30.769 3.45321 30.5737L3.39837 30.4872L3.32321 30.3704L3.24196 30.2416L3.14852 30.0886L3.08352 29.9839C3.07187 29.9618 3.05898 29.9403 3.04493 29.9195L2.96368 29.7827L2.91899 29.7021C2.87634 29.6317 2.83571 29.5592 2.79509 29.4868C2.7829 29.4646 2.76868 29.4425 2.75649 29.4183C2.74431 29.3942 2.72602 29.366 2.71181 29.3378C2.71248 29.3318 2.71248 29.3257 2.71181 29.3197C2.37472 28.6892 2.25587 27.9665 2.37353 27.2627C2.49119 26.5588 2.83884 25.9126 3.36306 25.4236C3.88728 24.9345 4.55905 24.6296 5.27516 24.5556C5.99126 24.4816 6.71207 24.6427 7.3268 25.0141C7.37962 25.0463 7.4304 25.0805 7.48118 25.1148C7.92638 25.4192 8.28969 25.8269 8.53946 26.3024C8.6593 26.5298 8.78524 26.7533 8.9193 26.9747C10.1201 28.9561 11.8482 30.5718 13.9141 31.6446C15.945 32.695 18.1929 33.2674 20.4832 33.3173C20.6863 33.3173 20.9138 33.3294 21.1312 33.3294C23.3015 33.3626 25.4545 32.9429 27.4504 32.0975C28.0701 31.8284 28.6672 31.5107 29.2359 31.1474C29.6687 30.8714 30.0244 30.4918 30.2701 30.0436C30.5157 29.5953 30.6435 29.093 30.6415 28.583C30.6416 27.9316 30.4324 27.2971 30.0443 26.7714C29.8275 26.4801 29.5616 26.2281 29.2582 26.0266V26.0266C30.2522 26.5465 31.0843 27.3253 31.6649 28.2791C32.2454 29.2328 32.5524 30.3254 32.5529 31.4393Z" fill="url(#paint1_linear_66_2774)"/>
<path d="M32.5001 8.78626C32.5018 9.73866 32.2782 10.6782 31.8471 11.5294C31.416 12.3807 30.7895 13.1198 30.0179 13.6876C29.938 13.7467 29.8567 13.803 29.7741 13.8567C30.091 13.532 30.3315 13.1417 30.4783 12.714C30.625 12.2863 30.6745 11.8317 30.623 11.3828C30.5716 10.934 30.4205 10.5019 30.1807 10.1177C29.9408 9.73353 29.6182 9.40669 29.2358 9.16066C28.6672 8.79668 28.0702 8.4783 27.4504 8.20856C25.4522 7.36395 23.2972 6.94494 21.1251 6.97869C20.8976 6.97869 20.6741 6.97869 20.4527 6.99077C18.1735 7.04344 15.9367 7.61289 13.9141 8.65542C11.835 9.73122 10.0965 11.3558 8.89083 13.3495C8.44439 14.0847 8.07612 14.8638 7.79193 15.6744C7.56965 16.3192 7.14925 16.8788 6.5897 17.2748C6.03015 17.6709 5.35953 17.8833 4.67193 17.8825H4.61708C4.08796 17.8813 3.56695 17.7536 3.09834 17.5101C2.62972 17.2666 2.22735 16.9146 1.92544 16.484C1.62352 16.0534 1.43098 15.5569 1.36419 15.0368C1.29739 14.5167 1.35831 13.9882 1.54177 13.4964C2.91561 9.82366 5.39122 6.65576 8.63578 4.41859C11.8803 2.18143 15.7383 0.98226 19.691 0.9823C19.909 0.9823 20.1264 0.986326 20.343 0.994377C23.0771 1.07987 25.7613 1.74279 28.2161 2.93883L28.4193 3.03544C29.0905 3.37239 29.7416 3.74741 30.3693 4.15863V4.15863C31.04 4.73223 31.5777 5.44274 31.9455 6.24148C32.3132 7.04022 32.5024 7.90831 32.5001 8.78626V8.78626Z" fill="url(#paint2_linear_66_2774)"/>
<path d="M32.5 8.78024C32.5027 9.73366 32.2795 10.6744 31.8484 11.5268C31.4173 12.3791 30.7902 13.1193 30.0178 13.6877C31.1329 12.6812 33.8589 9.19489 28.2161 2.94086L28.4192 3.03546C29.0904 3.37241 29.7415 3.74743 30.3692 4.15865V4.15865C31.0391 4.73159 31.5764 5.44112 31.9441 6.23876C32.3119 7.03639 32.5015 7.9033 32.5 8.78024V8.78024Z" fill="url(#paint3_linear_66_2774)"/>
<path d="M32.5527 31.4393C32.5534 32.3875 32.3317 33.3229 31.9052 34.1718C31.4786 35.0206 30.8589 35.7596 30.0949 36.3306C29.6887 36.5855 29.2723 36.8271 28.8457 37.0552C28.7076 37.1277 28.5695 37.2001 28.4395 37.2706C33.1113 31.7231 31.2995 28.2126 30.0543 26.7653C29.8199 26.4899 29.5564 26.2402 29.2682 26.0206C30.2612 26.5423 31.0919 27.3226 31.6706 28.2774C32.2494 29.2323 32.5544 30.3254 32.5527 31.4393V31.4393Z" fill="url(#paint4_linear_66_2774)"/>
<path d="M7.4567 16.3587C7.15937 16.8238 6.74806 17.2067 6.26111 17.4717C5.77416 17.7368 5.22742 17.8753 4.67185 17.8744H4.61701C4.08748 17.8738 3.56594 17.7464 3.09685 17.5029C2.62776 17.2595 2.22502 16.9072 1.92296 16.4762C1.6209 16.0452 1.42848 15.5483 1.3621 15.0277C1.29571 14.5071 1.35733 13.9783 1.5417 13.4863C2.91595 9.81419 5.39179 6.64698 8.63634 4.41054C11.8809 2.17409 15.7386 0.975627 19.6909 0.976258C19.9083 0.976258 20.1256 0.976258 20.3429 0.986322C6.49998 2.14373 7.4567 16.3587 7.4567 16.3587Z" fill="#3369E7"/>
<path d="M20.341 39.3137H20.1806H20.0181H19.2502H19.1426H18.9841H18.8541H18.8054C18.7662 39.3157 18.7268 39.3157 18.6876 39.3137H18.5291H18.3809L18.1615 39.2976L18.0295 39.2855H17.9848H17.8954L17.7735 39.2734H17.7552L17.5866 39.2553H17.5481L17.4506 39.2452L17.3551 39.2332L17.2231 39.217L17.1113 39.203L16.9082 39.1768L16.8148 39.1627L16.6563 39.0902L16.5426 39.0721L16.4715 39.0621L16.3699 39.0439L16.2298 39.0198L16.0896 38.9936H16.0449L15.9352 38.9715C15.6854 38.9252 15.4396 38.8708 15.1959 38.8145L15.0882 38.7883L14.9826 38.7621H14.9542L14.8282 38.7299L14.751 38.7098L14.6556 38.6836L14.5073 38.6454L14.4057 38.6172C14.2473 38.5729 14.0909 38.5266 13.9324 38.4763L13.8532 38.4461L13.7435 38.4119L13.6927 38.3958L13.5993 38.3636L13.4916 38.3294L13.4592 38.3173L13.3393 38.277L13.2012 38.2287L13.0306 38.1683L12.866 38.1079L12.7523 38.0637L12.5491 37.9831L12.4679 37.9509L12.3826 37.9167L12.279 37.8745H12.2627L12.1206 37.8141C11.8463 37.6993 11.5782 37.5786 11.3081 37.4517L11.2024 37.4014L11.1252 37.3632L11.0684 37.335L10.9729 37.2867L10.916 37.2585L10.8063 37.2022L10.5016 37.0431L10.2985 36.9284L10.2254 36.8861L10.1015 36.8177L9.99587 36.7573L9.95118 36.7311L9.8679 36.6828L9.7704 36.6265L9.72978 36.6003L9.64852 36.552L9.56118 36.4997L9.29103 36.3306L9.17931 36.2601L9.08587 36.1997L9.00259 36.1454L8.89087 36.0709L8.76087 35.9823L8.65524 35.9099L8.57806 35.8575L8.49681 35.7992L8.36681 35.7086L8.11087 35.5214L7.99712 35.4368L7.97681 35.4207L7.86509 35.3362C7.86124 35.3318 7.85636 35.3283 7.85087 35.3261L7.75946 35.2537L7.57462 35.1067L7.48321 35.0343L7.34509 34.9216C7.27399 34.8652 7.20493 34.8068 7.14196 34.7484L7.00181 34.6277L6.89821 34.5371L6.87181 34.5149L6.79868 34.4485L6.72556 34.3841L6.6829 34.3459L6.60368 34.2734L6.50618 34.1848L6.41274 34.0983L6.29899 33.9896L6.00446 33.7038L5.9354 33.6353L5.71806 33.4119L5.62665 33.3173L5.51899 33.2025C5.37477 33.0496 5.23259 32.8926 5.09243 32.7335L5.00306 32.6289L4.92181 32.5343L4.85884 32.4618L4.79384 32.3833L4.76946 32.3531L4.68415 32.2504C4.61102 32.1619 4.5379 32.0713 4.46681 31.9807L4.3754 31.864L4.23727 31.6868L4.15806 31.5781C4.12962 31.5419 4.10118 31.5017 4.07274 31.4634C4.0567 31.4434 4.04179 31.4226 4.02806 31.401L3.94477 31.2903L3.84727 31.1514C3.71321 30.9602 3.58118 30.769 3.45321 30.5737L3.39837 30.4872L3.32321 30.3704L3.24196 30.2416L3.14852 30.0886L3.08352 29.9839C3.07187 29.9618 3.05898 29.9403 3.04493 29.9195L2.96368 29.7827L2.91899 29.7021C2.87634 29.6317 2.83571 29.5592 2.79509 29.4868C2.7829 29.4646 2.76868 29.4425 2.75649 29.4183C2.74431 29.3942 2.72602 29.366 2.71181 29.3378C2.71248 29.3318 2.71248 29.3257 2.71181 29.3197C2.37472 28.6892 2.25587 27.9665 2.37353 27.2627C2.49119 26.5588 2.83884 25.9126 3.36306 25.4236C3.88728 24.9345 4.55906 24.6296 5.27516 24.5556C5.99126 24.4816 6.71207 24.6427 7.32681 25.0141C7.37962 25.0463 7.4304 25.0805 7.48118 25.1148C7.57665 28.5085 8.9254 38.3555 20.341 39.3137Z" fill="#3369E7"/>
<defs>
<linearGradient id="paint0_linear_66_2774" x1="14.3712" y1="20.2416" x2="39.0407" y2="20.2416" gradientUnits="userSpaceOnUse">
<stop offset="0.37" stop-color="#3369E7"/>
<stop offset="0.51" stop-color="#295BCC"/>
<stop offset="0.81" stop-color="#113889"/>
<stop offset="1" stop-color="#00205B"/>
</linearGradient>
<linearGradient id="paint1_linear_66_2774" x1="51.478" y1="31.4191" x2="12.3644" y2="31.9357" gradientUnits="userSpaceOnUse">
<stop offset="0.37" stop-color="#3369E7"/>
<stop offset="0.51" stop-color="#295BCC"/>
<stop offset="0.81" stop-color="#113889"/>
<stop offset="1" stop-color="#00205B"/>
</linearGradient>
<linearGradient id="paint2_linear_66_2774" x1="32.2665" y1="8.6675" x2="16.4048" y2="9.27832" gradientUnits="userSpaceOnUse">
<stop offset="0.37" stop-color="#3369E7"/>
<stop offset="0.51" stop-color="#295BCC"/>
<stop offset="0.81" stop-color="#113889"/>
<stop offset="1" stop-color="#00205B"/>
</linearGradient>
<linearGradient id="paint3_linear_66_2774" x1="31.3625" y1="11.083" x2="29.2147" y2="4.14956" gradientUnits="userSpaceOnUse">
<stop offset="0.23" stop-color="#00205B"/>
<stop offset="0.99" stop-color="#3369E7"/>
</linearGradient>
<linearGradient id="paint4_linear_66_2774" x1="31.1857" y1="26.9988" x2="29.4677" y2="39.0665" gradientUnits="userSpaceOnUse">
<stop offset="0.23" stop-color="#00205B"/>
<stop offset="1" stop-color="#3369E7"/>
</linearGradient>
</defs>
</svg>
