<svg width="80" height="80" viewBox="0 0 80 80" fill="none" xmlns="http://www.w3.org/2000/svg">
<path d="M39.1489 6.53076C24.6021 6.53076 12.7661 17.957 12.7661 31.9842C12.6705 52.503 38.1463 69.5166 39.1489 70.2042C39.1489 70.2042 65.6272 52.503 65.5316 32.0002C65.5316 17.957 53.6956 6.53076 39.1489 6.53076ZM39.1489 44.7348C31.8606 44.7348 25.9575 39.0361 25.9575 32.0002C25.9575 24.9642 31.8606 19.2655 39.1489 19.2655C46.4371 19.2655 52.3402 24.9642 52.3402 32.0002C52.3402 39.0361 46.4371 44.7348 39.1489 44.7348Z" fill="#1C63B8"/>
<circle cx="39.5" cy="32.5" r="22.5" fill="white"/>
<g clip-path="url(#clip0_81_2139)">
<path d="M57.4437 31.3745C57.4706 34.2896 56.7361 37.1635 55.3092 39.7257C53.8822 42.2879 51.8098 44.4544 49.2869 46.0211C50.0451 45.4624 50.6462 44.7261 51.0345 43.8806C51.4228 43.0351 51.5856 42.1077 51.5079 41.1845C51.4303 40.2613 51.1146 39.3722 50.5903 38.5996C50.0659 37.827 49.3498 37.1959 48.5083 36.7649C48.1984 36.5643 47.8505 36.4261 47.485 36.3585C47.1104 36.2881 46.725 36.2921 46.352 36.3703C45.9789 36.4485 45.626 36.5993 45.3142 36.8137C44.2416 37.5565 42.9648 37.9681 41.6492 37.9951H41.4342C40.2525 38.0159 39.0856 37.7357 38.0491 37.1822C37.0707 36.6531 36.2708 35.8587 35.7467 34.8952C35.1863 33.8479 34.9052 32.6801 34.9291 31.4992C34.9055 30.3189 35.1867 29.1517 35.7467 28.1049C36.2697 27.1403 37.069 26.3446 38.0473 25.8143C39.0838 25.2608 40.2506 24.9806 41.4323 25.0014C41.5306 25.0014 41.6177 25.0014 41.7234 25.0014C43.0134 25.0417 44.2625 25.4521 45.3142 26.181C45.7616 26.4906 46.2916 26.667 46.8399 26.6886C47.5767 26.7173 48.2956 26.463 48.842 25.9805C48.8902 25.9372 48.9384 25.892 48.9829 25.8468C49.7022 25.3766 50.3004 24.7508 50.7308 24.0182C51.1611 23.2856 51.412 22.4661 51.4638 21.6235C51.5156 20.781 51.3671 19.9381 51.0297 19.1607C50.6923 18.3832 50.1752 17.6923 49.5187 17.1416C51.9374 18.6975 53.9257 20.8099 55.3079 23.2923C56.6901 25.7746 57.4237 28.5504 57.4437 31.3745Z" fill="url(#paint0_linear_81_2139)"/>
<path d="M51.5229 41.6314C51.5234 42.4824 51.3211 43.3219 50.9319 44.0836C50.5426 44.8454 49.977 45.5087 49.2798 46.021C48.909 46.2498 48.529 46.4666 48.1396 46.6714C48.0136 46.7363 47.8875 46.8014 47.7689 46.8646C45.4753 47.9923 42.9566 48.618 40.3889 48.6982H40.2424H40.0941H39.3822H39.284H39.1394H39.0208H38.9763C38.9405 48.7 38.9046 48.7 38.8687 48.6982H38.7242H38.5888L38.3886 48.6837L38.2681 48.6729H38.2273H38.1458L38.0345 48.662H38.0178L37.864 48.6458H37.8288L37.7398 48.6367L37.6526 48.6259L37.5322 48.6115L37.4302 48.5988L37.2448 48.5753L37.1595 48.5627L37.0149 48.4977L36.9111 48.4814L36.8462 48.4723L36.7535 48.4561L36.6257 48.4344L36.4977 48.4109H36.4569L36.3568 48.3911C36.1288 48.3495 35.9045 48.3007 35.682 48.2502L35.5838 48.2267L35.4874 48.2032H35.4615L35.3465 48.1743L35.2761 48.1562L35.1889 48.1327L35.0536 48.0984L34.9609 48.0731C34.8163 48.0334 34.6735 47.9919 34.529 47.9467L34.4567 47.9196L34.3566 47.8889L34.3102 47.8744L34.2249 47.8455L34.1267 47.8148L34.097 47.804L33.9877 47.7679L33.8616 47.7245L33.7059 47.6703L33.5557 47.6161L33.4519 47.5763L33.2665 47.5041L33.1924 47.4752L33.1145 47.4445L33.0199 47.4065H33.0051L32.8754 47.3523C32.6251 47.2494 32.3804 47.141 32.1338 47.0272L32.0374 46.982L31.967 46.9477L31.9151 46.9224L31.828 46.8791L31.7761 46.8538L31.6759 46.8032L31.3979 46.6605L31.2125 46.5576L31.1458 46.5196L31.0327 46.4582L30.9363 46.404L30.8955 46.3805L30.8195 46.3372L30.7305 46.2866L30.6934 46.2631L30.6193 46.2197L30.5396 46.1728L30.293 46.021L30.191 45.9578L30.1057 45.9036L30.0298 45.8548L29.9278 45.788L29.8091 45.7085L29.7127 45.6435L29.6423 45.5965L29.5682 45.5441L29.4495 45.4628L29.2159 45.2948L29.1121 45.219L29.0936 45.2045L28.9916 45.1286C28.9881 45.1247 28.9837 45.1216 28.9786 45.1196L28.8952 45.0546L28.7265 44.9227L28.6431 44.8577L28.5171 44.7565C28.4522 44.7059 28.3891 44.6536 28.3317 44.6012L28.2038 44.4928L28.1092 44.4115L28.0851 44.3916L28.0184 44.332L27.9516 44.2742L27.9127 44.2399L27.8404 44.1749L27.7514 44.0954L27.6661 44.0177L27.5623 43.9201L27.2935 43.6636L27.2305 43.6022L27.0322 43.4017L26.9487 43.3168L26.8505 43.2138C26.7189 43.0765 26.5891 42.9356 26.4612 42.7929L26.3796 42.699L26.3055 42.6141L26.248 42.5491L26.1887 42.4786L26.1664 42.4515L26.0886 42.3594C26.0218 42.2799 25.9551 42.1986 25.8902 42.1173L25.8068 42.0125L25.6807 41.8536L25.6084 41.756C25.5825 41.7235 25.5565 41.6874 25.5306 41.6531C25.5159 41.6352 25.5023 41.6164 25.4898 41.5971L25.4138 41.4977L25.3248 41.3731C25.2024 41.2014 25.0819 41.0298 24.9651 40.8546L24.9151 40.777L24.8465 40.6722L24.7723 40.5566L24.6871 40.4193L24.6278 40.3253C24.6171 40.3054 24.6054 40.2861 24.5925 40.2675L24.5184 40.1447L24.4776 40.0724C24.4387 40.0092 24.4016 39.9442 24.3645 39.8791C24.3534 39.8593 24.3404 39.8394 24.3293 39.8177C24.3182 39.796 24.3015 39.7708 24.2885 39.7454C24.2891 39.7401 24.2891 39.7346 24.2885 39.7292C23.9809 39.1634 23.8724 38.5148 23.9798 37.8832C24.0872 37.2515 24.4044 36.6716 24.8829 36.2327C25.3613 35.7938 25.9744 35.5201 26.6279 35.4537C27.2815 35.3874 27.9393 35.5319 28.5004 35.8652C28.5486 35.8942 28.5949 35.9248 28.6413 35.9556C29.0476 36.2288 29.3792 36.5947 29.6071 37.0213C29.7165 37.2255 29.8314 37.426 29.9538 37.6247C31.0497 39.4029 32.6268 40.8528 34.5123 41.8156C36.3658 42.7583 38.4173 43.272 40.5075 43.3168C40.6929 43.3168 40.9005 43.3276 41.0989 43.3276C43.0796 43.3574 45.0446 42.9808 46.8661 42.2221C47.4317 41.9806 47.9766 41.6955 48.4956 41.3694C48.8907 41.1218 49.2153 40.781 49.4394 40.3788C49.6637 39.9766 49.7803 39.5258 49.7784 39.068C49.7785 38.4835 49.5876 37.9141 49.2334 37.4423C49.0356 37.1809 48.7928 36.9547 48.516 36.7739C49.4232 37.2405 50.1826 37.9394 50.7124 38.7953C51.2422 39.6512 51.5225 40.6318 51.5229 41.6314Z" fill="url(#paint1_linear_81_2139)"/>
<path d="M51.4745 21.3019C51.4761 22.1566 51.2719 22.9998 50.8785 23.7637C50.4851 24.5277 49.9134 25.191 49.2091 25.7006C49.1362 25.7535 49.062 25.8042 48.9866 25.8523C49.2759 25.5609 49.4954 25.2107 49.6293 24.8268C49.7633 24.443 49.8084 24.035 49.7614 23.6322C49.7144 23.2293 49.5766 22.8416 49.3577 22.4968C49.1388 22.152 48.8443 21.8587 48.4954 21.6379C47.9764 21.3113 47.4316 21.0255 46.8659 20.7835C45.0422 20.0255 43.0755 19.6494 41.0931 19.6797C40.8855 19.6797 40.6815 19.6797 40.4795 19.6906C38.3994 19.7378 36.358 20.2488 34.512 21.1845C32.6146 22.1499 31.0279 23.6079 29.9276 25.3971C29.5202 26.0569 29.184 26.7561 28.9247 27.4835C28.7218 28.0622 28.3381 28.5644 27.8275 28.9199C27.3168 29.2752 26.7048 29.4659 26.0772 29.4652H26.0272C25.5443 29.4641 25.0688 29.3495 24.6411 29.131C24.2134 28.9125 23.8462 28.5966 23.5706 28.2101C23.2951 27.8237 23.1194 27.3782 23.0584 26.9113C22.9975 26.4445 23.0531 25.9703 23.2205 25.5289C24.4743 22.2329 26.7337 19.3899 29.6948 17.3822C32.656 15.3745 36.1769 14.2983 39.7843 14.2983C39.9833 14.2983 40.1816 14.302 40.3794 14.3092C42.8747 14.3859 45.3244 14.9808 47.5648 16.0542L47.7502 16.1409C48.3628 16.4433 48.957 16.7799 49.5298 17.1489C50.142 17.6637 50.6327 18.3013 50.9683 19.0181C51.304 19.7349 51.4766 20.514 51.4745 21.3019Z" fill="url(#paint2_linear_81_2139)"/>
<path d="M51.4746 21.2961C51.4771 22.1518 51.2735 22.996 50.88 23.7609C50.4865 24.5259 49.9143 25.1901 49.2093 25.7002C50.227 24.797 52.7149 21.6683 47.5649 16.0557L47.7503 16.1406C48.3629 16.443 48.9572 16.7795 49.53 17.1486C50.1414 17.6627 50.6317 18.2995 50.9674 19.0153C51.3029 19.7311 51.476 20.5092 51.4746 21.2961Z" fill="url(#paint3_linear_81_2139)"/>
<path d="M51.5228 41.6315C51.5233 42.4825 51.321 43.322 50.9317 44.0837C50.5425 44.8455 49.9769 45.5087 49.2797 46.0211C48.9089 46.2499 48.5288 46.4667 48.1396 46.6714C48.0135 46.7364 47.8874 46.8015 47.7688 46.8647C52.0326 41.8862 50.379 38.7357 49.2426 37.4369C49.0287 37.1897 48.7881 36.9657 48.5252 36.7686C49.4314 37.2368 50.1895 37.937 50.7177 38.7939C51.2459 39.6508 51.5242 40.6319 51.5228 41.6315Z" fill="url(#paint4_linear_81_2139)"/>
<path d="M28.6188 28.0977C28.3475 28.5151 27.9721 28.8587 27.5277 29.0966C27.0833 29.3345 26.5843 29.4588 26.0773 29.458H26.0272C25.5439 29.4575 25.0679 29.3431 24.6398 29.1246C24.2117 28.9061 23.8442 28.59 23.5685 28.2032C23.2928 27.8164 23.1172 27.3704 23.0566 26.9032C22.996 26.436 23.0523 25.9614 23.2205 25.52C24.4747 22.2244 26.7343 19.3821 29.6954 17.375C32.6566 15.368 36.1773 14.2924 39.7843 14.293C39.9827 14.293 40.1811 14.293 40.3794 14.302C27.7457 15.3407 28.6188 28.0977 28.6188 28.0977Z" fill="#3369E7"/>
<path d="M40.3778 48.6982H40.2313H40.083H39.3822H39.284H39.1394H39.0208H38.9763C38.9405 48.7 38.9046 48.7 38.8687 48.6982H38.7242H38.5888L38.3886 48.6837L38.2681 48.6729H38.2273H38.1458L38.0345 48.662H38.0178L37.864 48.6458H37.8288L37.7398 48.6367L37.6526 48.6259L37.5322 48.6115L37.4302 48.5988L37.2448 48.5753L37.1595 48.5627L37.0149 48.4977L36.9111 48.4814L36.8462 48.4723L36.7536 48.4561L36.6257 48.4344L36.4977 48.4109H36.4569L36.3568 48.3911C36.1288 48.3495 35.9045 48.3007 35.682 48.2502L35.5838 48.2267L35.4874 48.2032H35.4615L35.3465 48.1743L35.2761 48.1562L35.1889 48.1327L35.0536 48.0984L34.9609 48.0731C34.8163 48.0334 34.6735 47.9919 34.529 47.9467L34.4567 47.9196L34.3566 47.8889L34.3102 47.8744L34.2249 47.8455L34.1267 47.8148L34.0971 47.804L33.9877 47.7679L33.8616 47.7245L33.7059 47.6703L33.5557 47.6161L33.4519 47.5763L33.2665 47.5041L33.1924 47.4752L33.1145 47.4445L33.0199 47.4065H33.0051L32.8754 47.3523C32.6251 47.2494 32.3804 47.141 32.1338 47.0272L32.0374 46.982L31.967 46.9477L31.9151 46.9224L31.828 46.8791L31.7761 46.8538L31.6759 46.8032L31.3979 46.6605L31.2125 46.5576L31.1458 46.5196L31.0327 46.4582L30.9363 46.404L30.8955 46.3805L30.8195 46.3372L30.7305 46.2866L30.6934 46.2631L30.6193 46.2197L30.5396 46.1728L30.293 46.021L30.191 45.9578L30.1057 45.9036L30.0298 45.8548L29.9278 45.788L29.8091 45.7085L29.7127 45.6435L29.6423 45.5965L29.5682 45.5441L29.4495 45.4628L29.2159 45.2948L29.1121 45.219L29.0936 45.2045L28.9916 45.1286C28.9881 45.1247 28.9837 45.1216 28.9786 45.1196L28.8952 45.0546L28.7265 44.9227L28.6431 44.8577L28.5171 44.7565C28.4522 44.7059 28.3891 44.6536 28.3317 44.6012L28.2038 44.4928L28.1092 44.4115L28.0851 44.3916L28.0184 44.332L27.9516 44.2742L27.9127 44.2399L27.8404 44.1749L27.7514 44.0954L27.6662 44.0177L27.5623 43.9201L27.2935 43.6636L27.2305 43.6022L27.0322 43.4017L26.9487 43.3168L26.8505 43.2138C26.7189 43.0765 26.5891 42.9356 26.4612 42.7929L26.3796 42.699L26.3055 42.6141L26.248 42.5491L26.1887 42.4786L26.1664 42.4515L26.0886 42.3594C26.0218 42.2799 25.9551 42.1986 25.8902 42.1173L25.8068 42.0125L25.6807 41.8536L25.6084 41.756C25.5825 41.7235 25.5565 41.6874 25.5306 41.6531C25.5159 41.6352 25.5023 41.6164 25.4898 41.5971L25.4138 41.4977L25.3248 41.3731C25.2024 41.2014 25.0819 41.0298 24.9651 40.8546L24.9151 40.777L24.8465 40.6722L24.7723 40.5566L24.6871 40.4193L24.6278 40.3253C24.6171 40.3054 24.6054 40.2861 24.5925 40.2675L24.5184 40.1447L24.4776 40.0724C24.4387 40.0092 24.4016 39.9442 24.3645 39.8791C24.3534 39.8593 24.3404 39.8394 24.3293 39.8177C24.3182 39.796 24.3015 39.7708 24.2885 39.7454C24.2891 39.7401 24.2891 39.7346 24.2885 39.7292C23.9809 39.1634 23.8724 38.5148 23.9798 37.8832C24.0872 37.2515 24.4044 36.6716 24.8829 36.2327C25.3613 35.7938 25.9744 35.5201 26.6279 35.4537C27.2815 35.3874 27.9393 35.5319 28.5004 35.8652C28.5486 35.8942 28.5949 35.9248 28.6413 35.9556C28.7284 39.0012 29.9593 47.8383 40.3778 48.6982Z" fill="#3369E7"/>
</g>
<defs>
<linearGradient id="paint0_linear_81_2139" x1="34.9291" y1="31.5823" x2="57.4437" y2="31.5823" gradientUnits="userSpaceOnUse">
<stop offset="0.37" stop-color="#3369E7"/>
<stop offset="0.51" stop-color="#295BCC"/>
<stop offset="0.81" stop-color="#113889"/>
<stop offset="1" stop-color="#00205B"/>
</linearGradient>
<linearGradient id="paint1_linear_81_2139" x1="68.7949" y1="41.6133" x2="33.0982" y2="42.0927" gradientUnits="userSpaceOnUse">
<stop offset="0.37" stop-color="#3369E7"/>
<stop offset="0.51" stop-color="#295BCC"/>
<stop offset="0.81" stop-color="#113889"/>
<stop offset="1" stop-color="#00205B"/>
</linearGradient>
<linearGradient id="paint2_linear_81_2139" x1="51.2613" y1="21.1953" x2="36.7859" y2="21.7622" gradientUnits="userSpaceOnUse">
<stop offset="0.37" stop-color="#3369E7"/>
<stop offset="0.51" stop-color="#295BCC"/>
<stop offset="0.81" stop-color="#113889"/>
<stop offset="1" stop-color="#00205B"/>
</linearGradient>
<linearGradient id="paint3_linear_81_2139" x1="50.4365" y1="23.3627" x2="48.5357" y2="17.1223" gradientUnits="userSpaceOnUse">
<stop offset="0.23" stop-color="#00205B"/>
<stop offset="0.99" stop-color="#3369E7"/>
</linearGradient>
<linearGradient id="paint4_linear_81_2139" x1="50.2752" y1="37.6465" x2="48.758" y2="48.4835" gradientUnits="userSpaceOnUse">
<stop offset="0.23" stop-color="#00205B"/>
<stop offset="1" stop-color="#3369E7"/>
</linearGradient>
<clipPath id="clip0_81_2139">
<rect width="35" height="35" fill="white" transform="translate(23 14)"/>
</clipPath>
</defs>
</svg>
