<svg width="36" height="31" viewBox="0 0 36 31" fill="none" xmlns="http://www.w3.org/2000/svg">
<path d="M33.876 0.557871C33.4772 0.573902 33.0891 0.675597 32.7391 0.804037C32.3926 0.931618 30.3979 1.71172 27.4524 2.86568C24.5069 4.01963 20.6779 5.52233 16.8823 7.0124C9.29118 9.99253 1.83156 12.9248 1.83156 12.9248L1.88593 12.9057C1.88593 12.9057 1.43571 13.0436 0.97924 13.335C0.751007 13.4808 0.505465 13.6689 0.304418 13.9431C0.103372 14.2174 -0.0436069 14.6061 0.0117822 15.0172C0.206334 16.4612 1.83956 16.8708 1.83956 16.8708L1.84595 16.8737L9.13467 19.1595C9.32051 19.7276 11.3454 25.9202 11.7908 27.2317C12.0368 27.9568 12.267 28.375 12.5072 28.6603C12.6274 28.8031 12.7533 28.9136 12.8926 28.9944C12.9479 29.0265 13.0061 29.0506 13.0637 29.0721H13.0669C13.0739 29.0749 13.0806 29.0752 13.0877 29.0779L13.0685 29.0735C13.0818 29.0785 13.0951 29.0868 13.1084 29.0911C13.1344 29.0995 13.1504 29.0992 13.1836 29.1058C14.0183 29.3728 14.7092 28.8772 14.7092 28.8772L14.7379 28.8567L19.2154 25.0514L26.4818 30.2428L26.5729 30.2809C27.8448 30.7984 28.995 30.5097 29.632 30.0348C30.269 29.5598 30.5195 28.9475 30.5195 28.9475L30.5467 28.8831L35.8861 3.38292C36.0227 2.81242 36.0421 2.31929 35.9133 1.87369C35.7844 1.42808 35.4714 1.04072 35.0785 0.826016C34.6857 0.611314 34.2748 0.541841 33.876 0.557871ZM33.9192 2.08322C34.0811 2.07635 34.2012 2.09331 34.239 2.11399C34.2768 2.13467 34.2938 2.13195 34.3302 2.25759C34.3665 2.38323 34.3862 2.64786 34.287 3.06202L34.2838 3.07081L28.9748 28.423C28.9622 28.4485 28.8516 28.683 28.599 28.8713C28.3413 29.0635 28.0547 29.2134 27.2941 28.9212L19.3482 23.2432L19.1243 23.082L19.1195 23.0864L16.7432 21.4527L30.0973 7.05636C30.1999 6.94602 30.2655 6.81081 30.286 6.66708C30.3065 6.52334 30.2812 6.37723 30.213 6.24642C30.1448 6.1156 30.0368 6.00568 29.9019 5.92995C29.767 5.85421 29.611 5.81591 29.4529 5.81967C29.2984 5.82334 29.1481 5.86703 29.0195 5.94568L9.69596 17.7499L2.39605 15.4597C2.39605 15.4597 1.67117 15.0901 1.63647 14.8326C1.63455 14.8183 1.62599 14.8312 1.66366 14.7798C1.70132 14.7284 1.79601 14.6417 1.91472 14.5659C2.15213 14.4143 2.42323 14.3226 2.42323 14.3226L2.45042 14.3138L2.4776 14.3036C2.4776 14.3036 9.9376 11.3712 17.5284 8.39122C21.3238 6.90123 25.152 5.39963 28.0969 4.24596C31.0409 3.09259 33.1682 2.2624 33.3483 2.19605C33.5534 2.1208 33.7572 2.09009 33.9192 2.08322ZM25.0634 10.1657L14.9362 21.0834L14.9314 21.0878C14.9156 21.1052 14.9007 21.1233 14.8867 21.142C14.8706 21.1623 14.8556 21.1834 14.8419 21.205C14.785 21.2935 14.7485 21.3918 14.7347 21.4937V21.4995L13.4155 26.9357C13.3935 26.877 13.3782 26.8555 13.3547 26.7863V26.7848C12.9357 25.5511 11.0253 19.7108 10.761 18.9031L25.0634 10.1657ZM16.0796 22.8725L17.8994 24.1239L15.2257 26.395L16.0796 22.8725Z" fill="#1C63B8"/>
</svg>
