<svg width="36" height="36" viewBox="0 0 36 36" fill="none" xmlns="http://www.w3.org/2000/svg">
<path d="M33.876 0.00264856C33.4772 0.021885 33.0891 0.143919 32.7391 0.298048C32.3926 0.451145 30.3979 1.38727 27.4524 2.77201C24.5069 4.15676 20.6779 5.96 16.8823 7.74808C9.29118 11.3242 1.83156 14.8429 1.83156 14.8429L1.88593 14.8201C1.88593 14.8201 1.43571 14.9855 0.97924 15.3353C0.751007 15.5101 0.505465 15.7359 0.304418 16.065C0.103372 16.3941 -0.0436069 16.8605 0.0117822 17.3538C0.206334 19.0866 1.83956 19.5781 1.83956 19.5781L1.84595 19.5816L9.13467 22.3246C9.32051 23.0063 11.3454 30.4375 11.7908 32.0112C12.0368 32.8813 12.267 33.3832 12.5072 33.7256C12.6274 33.8969 12.7533 34.0295 12.8926 34.1265C12.9479 34.165 13.0061 34.1939 13.0637 34.2197H13.0669C13.0739 34.2231 13.0806 34.2234 13.0877 34.2267L13.0685 34.2215C13.0818 34.2274 13.0951 34.2374 13.1084 34.2426C13.1344 34.2526 13.1504 34.2522 13.1836 34.2601C14.0183 34.5806 14.7092 33.9858 14.7092 33.9858L14.7379 33.9612L19.2154 29.3948L26.4818 35.6246L26.5729 35.6703C27.8448 36.2913 28.995 35.9448 29.632 35.3749C30.269 34.805 30.5195 34.0702 30.5195 34.0702L30.5467 33.9929L35.8861 3.3927C36.0227 2.70811 36.0421 2.11635 35.9133 1.58163C35.7844 1.0469 35.4714 0.582065 35.0785 0.324422C34.6857 0.0667795 34.2748 -0.0165879 33.876 0.00264856ZM33.9192 1.83307C34.0811 1.82482 34.2012 1.84518 34.239 1.86999C34.2768 1.89481 34.2938 1.89154 34.3302 2.04231C34.3665 2.19308 34.3862 2.51063 34.287 3.00763L34.2838 3.01818L28.9748 33.4408C28.9622 33.4714 28.8516 33.7528 28.599 33.9788C28.3413 34.2094 28.0547 34.3893 27.2941 34.0386L19.3482 27.2251L19.1243 27.0317L19.1195 27.0369L16.7432 25.0764L30.0973 7.80083C30.1999 7.66843 30.2655 7.50618 30.286 7.33369C30.3065 7.16121 30.2812 6.98588 30.213 6.8289C30.1448 6.67192 30.0368 6.54002 29.9019 6.44914C29.767 6.35826 29.611 6.31229 29.4529 6.3168C29.2984 6.32122 29.1481 6.37364 29.0195 6.46802L9.69596 20.6331L2.39605 17.8848C2.39605 17.8848 1.67117 17.4413 1.63647 17.1323C1.63455 17.1151 1.62599 17.1306 1.66366 17.069C1.70132 17.0073 1.79601 16.9032 1.91472 16.8123C2.15213 16.6304 2.42323 16.5204 2.42323 16.5204L2.45042 16.5098L2.4776 16.4975C2.4776 16.4975 9.9376 12.9786 17.5284 9.40267C21.3238 7.61468 25.152 5.81276 28.0969 4.42836C31.0409 3.04431 33.1682 2.04808 33.3483 1.96846C33.5534 1.87817 33.7572 1.84131 33.9192 1.83307ZM25.0634 11.532L14.9362 24.6333L14.9314 24.6386C14.9156 24.6595 14.9007 24.6812 14.8867 24.7036C14.8706 24.728 14.8556 24.7532 14.8419 24.7792C14.785 24.8854 14.7485 25.0033 14.7347 25.1256V25.1327L13.4155 31.6561C13.3935 31.5856 13.3782 31.5598 13.3547 31.4767V31.4749C12.9357 29.9945 11.0253 22.9862 10.761 22.0169L25.0634 11.532ZM16.0796 26.7802L17.8994 28.2818L15.2257 31.0072L16.0796 26.7802Z" fill="#1C63B8"/>
</svg>
