<svg width="36" height="36" viewBox="0 0 36 36" fill="none" xmlns="http://www.w3.org/2000/svg">
<g clip-path="url(#clip0_1_2822)">
<rect width="36" height="36" fill="white"/>
<path d="M18 32.625C15.1075 32.625 12.2799 31.7673 9.87479 30.1602C7.46972 28.5532 5.5952 26.2691 4.48827 23.5968C3.38134 20.9244 3.09171 17.9838 3.65602 15.1468C4.22033 12.3098 5.61323 9.70391 7.65857 7.65857C9.70391 5.61323 12.3098 4.22033 15.1468 3.65602C17.9838 3.09171 20.9244 3.38134 23.5968 4.48827C26.2691 5.5952 28.5532 7.46972 30.1602 9.87479C31.7673 12.2799 32.625 15.1075 32.625 18C32.625 21.8788 31.0842 25.5987 28.3414 28.3414C25.5987 31.0842 21.8788 32.625 18 32.625ZM18 5.62501C15.5525 5.62501 13.1599 6.35079 11.1248 7.71057C9.08977 9.07035 7.50363 11.0031 6.567 13.2643C5.63036 15.5255 5.3853 18.0137 5.86279 20.4142C6.34028 22.8148 7.51889 25.0198 9.24956 26.7505C10.9802 28.4811 13.1852 29.6597 15.5858 30.1372C17.9863 30.6147 20.4745 30.3696 22.7357 29.433C24.997 28.4964 26.9297 26.9102 28.2894 24.8752C29.6492 22.8401 30.375 20.4476 30.375 18C30.375 14.718 29.0712 11.5703 26.7505 9.24956C24.4297 6.9288 21.2821 5.62501 18 5.62501Z" fill="#1C63B8"/>
<path d="M24.1875 25.3125C24.0395 25.3134 23.8927 25.285 23.7556 25.229C23.6186 25.173 23.4939 25.0905 23.3888 24.9862L17.2013 18.7987C17.097 18.6936 17.0145 18.569 16.9585 18.4319C16.9025 18.2948 16.8742 18.1481 16.875 18V9C16.875 8.70163 16.9935 8.41548 17.2045 8.20451C17.4155 7.99353 17.7017 7.875 18 7.875C18.2984 7.875 18.5845 7.99353 18.7955 8.20451C19.0065 8.41548 19.125 8.70163 19.125 9V17.5388L24.9863 23.3888C25.0917 23.4933 25.1754 23.6178 25.2325 23.7549C25.2896 23.8919 25.319 24.039 25.319 24.1875C25.319 24.336 25.2896 24.4831 25.2325 24.6201C25.1754 24.7572 25.0917 24.8817 24.9863 24.9862C24.8811 25.0905 24.7565 25.173 24.6194 25.229C24.4823 25.285 24.3356 25.3134 24.1875 25.3125Z" fill="#1C63B8"/>
</g>
<defs>
<clipPath id="clip0_1_2822">
<rect width="36" height="36" fill="white"/>
</clipPath>
</defs>
</svg>
