<svg width="81" height="80" viewBox="0 0 81 80" fill="none" xmlns="http://www.w3.org/2000/svg">
<g clip-path="url(#clip0_30_2799)">
<path d="M73.7852 23.4375C69.908 23.4375 66.7539 26.5916 66.7539 30.4688C66.7539 31.1986 66.8972 31.8892 67.1047 32.5516L58.9273 38.6828C57.8117 37.9378 56.4745 37.5 55.0352 37.5C53.1444 37.5 51.4328 38.2587 50.168 39.477L43.2303 36.0083C43.2648 35.7259 43.3164 35.4481 43.3164 35.1562C43.3164 31.2791 40.1623 28.125 36.2852 28.125C32.408 28.125 29.2539 31.2791 29.2539 35.1562C29.2539 35.4481 29.3055 35.7259 29.34 36.0083L22.4023 39.477C21.1375 38.2587 19.4259 37.5 17.5352 37.5C13.658 37.5 10.5039 40.6541 10.5039 44.5312C10.5039 48.4084 13.658 51.5625 17.5352 51.5625C21.4123 51.5625 24.5664 48.4084 24.5664 44.5312C24.5664 44.2394 24.5148 43.9616 24.4803 43.6792L31.418 40.2105C32.6828 41.4287 34.3944 42.1875 36.2852 42.1875C38.1759 42.1875 39.8875 41.4287 41.1523 40.2105L48.09 43.6792C48.0555 43.9616 48.0039 44.2394 48.0039 44.5312C48.0039 48.4084 51.158 51.5625 55.0352 51.5625C58.9123 51.5625 62.0664 48.4084 62.0664 44.5312C62.0664 43.8014 61.9231 43.1108 61.7156 42.4484L69.893 36.3172C71.0084 37.0622 72.3458 37.5 73.7852 37.5C77.6623 37.5 80.9727 34.3459 80.9727 30.4688C80.9727 26.5916 77.6623 23.4375 73.7852 23.4375Z" fill="#1C63B8"/>
<path d="M24.5664 14.0625V0H10.5039V14.0625H24.5664ZM15.1914 4.6875H19.8789V9.375H15.1914V4.6875Z" fill="#1C63B8"/>
<path d="M43.3164 0H29.2539V4.6875H43.3164V0Z" fill="#1C63B8"/>
<path d="M43.3164 9.375H29.2539V14.0625H43.3164V9.375Z" fill="#1C63B8"/>
<path d="M80.9727 0H66.7539V4.6875H80.9727V0Z" fill="#1C63B8"/>
<path d="M80.9727 9.375H66.7539V14.0625H80.9727V9.375Z" fill="#1C63B8"/>
<path d="M48.0039 7.03125C48.0039 10.9084 51.158 14.0625 55.0352 14.0625C58.9123 14.0625 62.0664 10.9084 62.0664 7.03125C62.0664 3.15406 58.9123 0 55.0352 0C51.158 0 48.0039 3.15406 48.0039 7.03125ZM57.3789 7.03125C57.3789 8.32438 56.3283 9.375 55.0352 9.375C53.742 9.375 52.6914 8.32438 52.6914 7.03125C52.6914 5.73812 53.742 4.6875 55.0352 4.6875C56.3283 4.6875 57.3789 5.73812 57.3789 7.03125Z" fill="#1C63B8"/>
<path d="M78.6289 42.1875H69.0977V75.3125H59.7227V56.25H50.3477V75.3125H40.9727V46.875H31.5977V75.3125H22.2227V56.25H12.8477V75.3125H5.66016V0H0.972656V80H80.9727V75.3125H78.6289V42.1875Z" fill="#1C63B8"/>
</g>
<defs>
<clipPath id="clip0_30_2799">
<rect width="80" height="80" fill="white" transform="translate(0.972656)"/>
</clipPath>
</defs>
</svg>
