<svg width="81" height="80" viewBox="0 0 81 80" fill="none" xmlns="http://www.w3.org/2000/svg">
<g clip-path="url(#clip0_30_2749)">
<path d="M33.0488 31.5595C32.3068 31.5595 31.5699 31.327 30.9399 30.8694C29.8252 30.0594 29.2774 28.7127 29.5104 27.3547L30.7032 20.4L25.6504 15.4747C24.6638 14.513 24.3152 13.1016 24.741 11.7911C25.1668 10.4805 26.2784 9.54344 27.642 9.34547L34.6248 8.33078L37.7476 2.00328C38.3574 0.7675 39.5923 0 40.9701 0C42.3479 0 43.5827 0.7675 44.1926 2.00312L47.3154 8.33063L54.2984 9.34531C55.6618 9.54344 56.7734 10.4805 57.1992 11.7909C57.6249 13.1014 57.2765 14.5128 56.2898 15.4745L51.237 20.3998L52.4298 27.3545C52.6627 28.7125 52.1149 30.0594 51.0002 30.8692C49.8854 31.6792 48.4356 31.7837 47.2159 31.1428L40.9701 27.8594L34.7243 31.1431C34.194 31.4219 33.6199 31.5595 33.0488 31.5595Z" fill="#1C63B8"/>
<path d="M20.5712 38.0886C20.0442 38.0886 19.5146 37.9616 19.0251 37.7042L14.4096 35.2777L9.79416 37.7042C8.66885 38.2956 7.33072 38.1989 6.30229 37.4519C5.27369 36.7045 4.76822 35.462 4.98322 34.2089L5.86479 29.0694L2.13072 25.4297C1.22041 24.5423 0.898847 23.24 1.29166 22.0309C1.68447 20.8219 2.70994 19.957 3.96807 19.7741L9.12853 19.0242L11.4362 14.3483C11.999 13.2081 13.1382 12.5 14.4096 12.5C15.681 12.5 16.8203 13.2081 17.3829 14.3483L19.6906 19.0242L24.8507 19.7741C26.1092 19.957 27.1348 20.8219 27.5274 22.0309C27.9201 23.24 27.5987 24.5423 26.6884 25.4297L22.9545 29.0694L23.836 34.2088C24.0509 35.462 23.5456 36.7045 22.517 37.4519C21.9359 37.8741 21.2557 38.0886 20.5712 38.0886Z" fill="#1C63B8"/>
<path d="M73.6941 38.0886C73.167 38.0886 72.6375 37.9616 72.148 37.7042L67.5325 35.2777L62.9171 37.7042C61.7917 38.2956 60.4536 38.1989 59.4252 37.4519C58.3966 36.7045 57.8911 35.462 58.1061 34.2089L58.9877 29.0694L55.2538 25.4297C54.3435 24.5423 54.0219 23.24 54.4147 22.0309C54.8075 20.8219 55.833 19.957 57.0911 19.7741L62.2516 19.0242L64.5592 14.3483C65.1219 13.2081 66.2611 12.5 67.5325 12.5C68.8039 12.5 69.9431 13.2081 70.5058 14.3483L72.8136 19.0242L77.9738 19.7741C79.2322 19.957 80.2578 20.8219 80.6505 22.0309C81.0433 23.24 80.7217 24.5423 79.8114 25.4297L76.0775 29.0694L76.9591 34.2088C77.1739 35.462 76.6686 36.7045 75.64 37.4519C75.0586 37.8741 74.3786 38.0886 73.6941 38.0886Z" fill="#1C63B8"/>
<path d="M21.2535 64.2417C19.0316 66.2648 16.0802 67.5 12.8457 67.5C9.61117 67.5 6.65977 66.2648 4.43789 64.2417C2.4357 65.6562 1.12695 67.987 1.12695 70.625V77.6562C1.12695 78.9506 2.17633 80 3.4707 80H22.2207C23.5151 80 24.5645 78.9506 24.5645 77.6562V70.625C24.5645 67.987 23.2557 65.6562 21.2535 64.2417Z" fill="#1C63B8"/>
<path d="M12.8457 62.8125C8.53789 62.8125 5.0332 59.3078 5.0332 55C5.0332 50.6922 8.53789 47.1875 12.8457 47.1875C17.1535 47.1875 20.6582 50.6922 20.6582 55C20.6582 59.3078 17.1535 62.8125 12.8457 62.8125Z" fill="#1C63B8"/>
<path d="M77.5035 64.2417C75.2816 66.2648 72.3302 67.5 69.0957 67.5C65.8612 67.5 62.9098 66.2648 60.6879 64.2417C58.6857 65.6562 57.377 67.987 57.377 70.625V77.6562C57.377 78.9506 58.4263 80 59.7207 80H78.4707C79.7651 80 80.8145 78.9506 80.8145 77.6562V70.625C80.8145 67.987 79.5057 65.6562 77.5035 64.2417Z" fill="#1C63B8"/>
<path d="M69.0957 62.8125C64.7879 62.8125 61.2832 59.3078 61.2832 55C61.2832 50.6922 64.7879 47.1875 69.0957 47.1875C73.4035 47.1875 76.9082 50.6922 76.9082 55C76.9082 59.3078 73.4035 62.8125 69.0957 62.8125Z" fill="#1C63B8"/>
<path d="M49.3785 64.2417C47.1566 66.2648 44.2052 67.5 40.9707 67.5C37.7362 67.5 34.7848 66.2648 32.5629 64.2417C30.5607 65.6562 29.252 67.987 29.252 70.625V77.6562C29.252 78.9506 30.3013 80 31.5957 80H50.3457C51.6401 80 52.6895 78.9506 52.6895 77.6562V70.625C52.6895 67.987 51.3807 65.6562 49.3785 64.2417Z" fill="#1C63B8"/>
<path d="M40.9707 62.8125C36.6629 62.8125 33.1582 59.3078 33.1582 55C33.1582 50.6922 36.6629 47.1875 40.9707 47.1875C45.2785 47.1875 48.7832 50.6922 48.7832 55C48.7832 59.3078 45.2785 62.8125 40.9707 62.8125Z" fill="#1C63B8"/>
</g>
<defs>
<clipPath id="clip0_30_2749">
<rect width="80" height="80" fill="white" transform="translate(0.970703)"/>
</clipPath>
</defs>
</svg>
