<svg width="200" height="62" viewBox="0 0 200 62" fill="none" xmlns="http://www.w3.org/2000/svg">
<path d="M69.9559 24.39C70.7335 25.1952 71.819 25.5978 73.2125 25.5978C74.6059 25.5978 75.6427 25.2953 76.3228 24.6904C77.0156 24.0715 77.4955 23.2515 77.6945 22.3462C77.7205 22.2001 77.7969 22.0676 77.9104 21.9715C78.0239 21.8755 78.1676 21.8218 78.3166 21.8197H79.4238C79.5633 21.8214 79.6965 21.8774 79.7948 21.9759C79.8932 22.0744 79.9487 22.2074 79.9495 22.3462C79.8898 23.2068 79.6208 24.04 79.1657 24.774C78.6302 25.6653 77.863 26.3961 76.9449 26.8891C75.7983 27.4975 74.511 27.7944 73.2125 27.75C71.9831 27.778 70.7672 27.4901 69.6822 26.9139C68.6984 26.3805 67.8863 25.5806 67.3401 24.6068C66.7759 23.5829 66.4666 22.4392 66.4381 21.2716C66.4215 20.7927 66.4143 20.0825 66.4164 19.1411C66.4184 18.1996 66.4257 17.4905 66.4381 17.0136C66.4666 15.846 66.7759 14.7023 67.3401 13.6784C67.8863 12.7046 68.6984 11.9047 69.6822 11.3713C70.7667 10.793 71.9826 10.5029 73.2125 10.529C74.511 10.4846 75.7983 10.7815 76.9449 11.3899C77.863 11.8829 78.6302 12.6137 79.1657 13.505C79.6157 14.2403 79.8793 15.0735 79.934 15.9328C79.9331 16.0717 79.8776 16.2046 79.7793 16.3031C79.681 16.4016 79.5477 16.4577 79.4083 16.4593H78.3166C78.1681 16.4555 78.0253 16.4012 77.9122 16.3054C77.799 16.2096 77.7222 16.0781 77.6945 15.9328C77.5023 15.0306 77.0313 14.2109 76.3477 13.5886C75.6759 12.9858 74.6391 12.6833 73.2374 12.6812C71.8356 12.6792 70.7501 13.0818 69.9808 13.889C69.2053 14.6941 68.7906 15.7739 68.7367 17.1282C68.7201 17.6051 68.7118 18.274 68.7118 19.1349C68.7118 19.9958 68.7118 20.6832 68.7367 21.1447C68.774 22.5031 69.1804 23.5849 69.9559 24.39Z" fill="white"/>
<path d="M93.6725 21.318C93.6725 21.702 93.6538 22.0674 93.6227 22.4173C93.4796 24.0442 92.9156 25.3396 91.9307 26.3038C90.9457 27.2679 89.6124 27.7499 87.9308 27.7499C86.2512 27.7499 84.9189 27.2679 83.934 26.3038C82.949 25.3396 82.385 24.0442 82.2419 22.4173C82.2233 22.2439 82.217 21.8754 82.217 21.318C82.217 20.7606 82.217 20.3456 82.2419 20.1691C82.3684 18.5443 82.9283 17.2499 83.9215 16.2858C84.9147 15.3217 86.2512 14.8396 87.9308 14.8396C89.6124 14.8396 90.9499 15.3217 91.9431 16.2858C92.9363 17.2499 93.4962 18.5443 93.6227 20.1691C93.6538 20.5221 93.6725 20.903 93.6725 21.318ZM90.4159 17.828C89.8343 17.2086 89.0038 16.8989 87.9276 16.8989C86.8515 16.8989 86.0272 17.2086 85.4394 17.828C84.8286 18.5096 84.4689 19.3778 84.4192 20.2899C84.4036 20.4819 84.3943 20.8256 84.3943 21.318C84.3943 21.8104 84.3943 22.1232 84.4192 22.2997C84.4678 23.2169 84.83 24.0899 85.4456 24.774C86.0303 25.3933 86.8598 25.703 87.9339 25.703C89.0069 25.703 89.8374 25.3933 90.4221 24.774C91.034 24.0872 91.3927 23.2134 91.4392 22.2966C91.4703 21.9435 91.4859 21.6184 91.4859 21.3149C91.4859 21.0114 91.4859 20.6708 91.4392 20.2868C91.388 19.3754 91.0272 18.5084 90.4159 17.828Z" fill="white"/>
<path d="M100.154 15.2824C100.741 14.96 101.407 14.8067 102.077 14.8396C103.943 14.8396 105.255 15.5322 106.014 16.9175C106.427 16.2954 106.968 15.7676 107.601 15.3691C108.313 14.9832 109.117 14.7979 109.927 14.8334C111.499 14.8334 112.664 15.3031 113.423 16.2424C114.182 17.1817 114.563 18.5133 114.565 20.2372V26.8642C114.562 27.0352 114.493 27.1984 114.372 27.3192C114.25 27.4401 114.086 27.5091 113.915 27.5115H113.025C112.854 27.5083 112.691 27.439 112.57 27.3182C112.449 27.1974 112.38 27.0346 112.378 26.8642V20.4818C112.378 18.0912 111.434 16.8958 109.545 16.8958C109.158 16.8784 108.772 16.9466 108.415 17.0954C108.058 17.2443 107.738 17.4701 107.479 17.7567C106.967 18.3286 106.711 19.1812 106.711 20.3146V26.8642C106.709 27.0352 106.639 27.1984 106.518 27.3192C106.397 27.4401 106.233 27.5091 106.061 27.5115H105.175C105.003 27.5091 104.839 27.4401 104.718 27.3192C104.596 27.1984 104.527 27.0352 104.524 26.8642V20.4818C104.524 18.0912 103.58 16.8958 101.691 16.8958C101.304 16.8784 100.918 16.9466 100.561 17.0954C100.204 17.2443 99.8846 17.4701 99.6256 17.7567C99.1155 18.3296 98.8574 19.1812 98.8574 20.3146V26.8642C98.8583 26.9492 98.8417 27.0335 98.8085 27.1118C98.7753 27.1901 98.7263 27.2608 98.6645 27.3195C98.606 27.3806 98.5355 27.4292 98.4574 27.4622C98.3793 27.4952 98.2953 27.512 98.2104 27.5115H97.3209C97.2355 27.5124 97.1509 27.4959 97.0722 27.4628C96.9935 27.4298 96.9225 27.381 96.8636 27.3195C96.8024 27.2606 96.754 27.1898 96.7213 27.1115C96.6887 27.0332 96.6726 26.949 96.6739 26.8642V15.716C96.673 15.6317 96.6893 15.5482 96.722 15.4704C96.7546 15.3927 96.8028 15.3224 96.8636 15.2638C96.9225 15.2023 96.9935 15.1535 97.0722 15.1205C97.1509 15.0874 97.2355 15.0709 97.3209 15.0718H98.2229C98.3077 15.0713 98.3918 15.0881 98.4699 15.1211C98.548 15.1541 98.6184 15.2027 98.677 15.2638C98.7384 15.3221 98.7872 15.3923 98.8203 15.47C98.8535 15.5478 98.8703 15.6315 98.8698 15.716V16.4592C99.2238 15.9935 99.6589 15.5949 100.154 15.2824Z" fill="white"/>
<path d="M120.232 31.4072C120.229 31.5781 120.16 31.7413 120.039 31.8622C119.917 31.9831 119.753 32.052 119.582 32.0544H118.695C118.524 32.052 118.36 31.9831 118.238 31.8622C118.117 31.7413 118.048 31.5781 118.045 31.4072V15.7222C118.048 15.5518 118.118 15.3894 118.239 15.2692C118.361 15.149 118.524 15.0804 118.695 15.078H119.582C119.753 15.0804 119.916 15.149 120.038 15.2692C120.159 15.3894 120.229 15.5518 120.232 15.7222V16.4654C121.047 15.3815 122.291 14.8396 123.964 14.8396C124.911 14.8268 125.844 15.0663 126.667 15.5333C127.485 16.0042 128.158 16.6898 128.611 17.5152C129.118 18.4409 129.394 19.4742 129.417 20.5283C129.432 20.6894 129.441 20.9433 129.441 21.2932C129.441 21.6432 129.441 21.9126 129.417 22.0829C129.392 23.1343 129.111 24.164 128.599 25.0836C128.144 25.9018 127.477 26.5831 126.667 27.0563C125.84 27.5249 124.903 27.7645 123.952 27.7499C123.169 27.7747 122.392 27.6144 121.684 27.2823C121.117 27.012 120.621 26.6158 120.232 26.1241V31.4072ZM121.239 24.774C121.568 25.0901 121.959 25.3356 122.387 25.4954C122.815 25.6552 123.271 25.7259 123.728 25.703C124.191 25.7249 124.653 25.6466 125.083 25.4733C125.512 25.3001 125.899 25.0361 126.216 24.6996C126.868 23.9382 127.229 22.9721 127.236 21.9714C127.236 21.8135 127.261 21.5905 127.261 21.3025C127.261 21.0145 127.261 20.7946 127.236 20.6336C127.23 19.6338 126.869 18.6684 126.216 17.9085C125.899 17.572 125.512 17.308 125.083 17.1348C124.653 16.9616 124.191 16.8832 123.728 16.9051C123.278 16.8901 122.83 16.9645 122.41 17.124C121.989 17.2835 121.605 17.525 121.28 17.8342C120.623 18.4822 120.252 19.3632 120.247 20.2837L120.222 21.2127L120.247 22.1696C120.278 23.272 120.617 24.1546 121.239 24.774Z" fill="white"/>
<path d="M134.399 27.3196C134.34 27.3811 134.269 27.4299 134.191 27.463C134.112 27.496 134.027 27.5126 133.942 27.5116H133.059C132.887 27.5092 132.723 27.4403 132.602 27.3194C132.48 27.1985 132.411 27.0353 132.409 26.8644V11.1794C132.41 11.0079 132.479 10.8439 132.601 10.7224C132.722 10.6009 132.887 10.5315 133.059 10.5291H133.945C134.116 10.5314 134.28 10.6 134.401 10.7202C134.522 10.8404 134.592 11.0028 134.595 11.1732V26.8644C134.596 26.9496 134.579 27.034 134.545 27.1124C134.511 27.1907 134.462 27.2612 134.399 27.3196Z" fill="white"/>
<path d="M147.174 16.4653C148.165 17.5492 148.661 19.0232 148.663 20.8875V21.5316C148.661 21.7025 148.592 21.8657 148.47 21.9866C148.349 22.1075 148.185 22.1764 148.013 22.1788H139.755V22.3213C139.744 22.7777 139.824 23.2317 139.991 23.657C140.157 24.0823 140.407 24.4704 140.726 24.7987C141.043 25.0999 141.418 25.3345 141.829 25.4888C142.239 25.643 142.676 25.7137 143.115 25.6967C143.752 25.7259 144.388 25.6203 144.981 25.3871C145.431 25.171 145.834 24.8702 146.169 24.5014C146.269 24.3939 146.387 24.3047 146.517 24.2382C146.65 24.1841 146.794 24.1597 146.937 24.1669H147.659C147.748 24.1643 147.836 24.18 147.919 24.213C148.001 24.2461 148.076 24.2958 148.138 24.3589C148.199 24.4164 148.246 24.4871 148.275 24.5655C148.304 24.6439 148.314 24.7279 148.306 24.8111C148.206 25.3139 147.96 25.7762 147.597 26.1396C147.107 26.6475 146.508 27.0391 145.845 27.2854C144.975 27.6166 144.049 27.7754 143.118 27.753C142.158 27.7694 141.212 27.5253 140.381 27.0469C139.579 26.5751 138.919 25.8969 138.471 25.0836C137.989 24.2259 137.698 23.2756 137.616 22.2965C137.584 21.8165 137.569 21.4511 137.569 21.1941C137.569 20.937 137.584 20.5747 137.616 20.0947C137.698 19.1508 137.99 18.237 138.471 17.4191C138.926 16.6362 139.579 15.9851 140.365 15.5301C141.202 15.0555 142.152 14.8158 143.115 14.8364C144.829 14.8385 146.182 15.3815 147.174 16.4653ZM146.502 20.1814V20.0978C146.52 19.6656 146.447 19.2344 146.286 18.8325C146.125 18.4306 145.881 18.0671 145.569 17.766C144.894 17.1648 144.009 16.8522 143.105 16.8958C142.232 16.875 141.385 17.1913 140.741 17.7784C140.42 18.0728 140.165 18.4318 139.994 18.8317C139.822 19.2315 139.738 19.6631 139.746 20.0978V20.169L146.502 20.1814Z" fill="white"/>
<path d="M152.912 27.0563C152.81 27.1696 152.698 27.2732 152.576 27.366C152.452 27.4593 152.299 27.5064 152.144 27.4991H151.04C150.964 27.5003 150.889 27.4861 150.819 27.4574C150.749 27.4286 150.685 27.3859 150.632 27.3319C150.58 27.2825 150.538 27.223 150.509 27.157C150.48 27.091 150.465 27.0199 150.464 26.9479C150.461 26.8292 150.495 26.7125 150.561 26.6135L154.956 21.1508L150.788 15.9637C150.722 15.8637 150.688 15.7459 150.691 15.6262C150.692 15.5546 150.707 15.4839 150.736 15.4184C150.765 15.3529 150.807 15.294 150.859 15.2453C150.912 15.1913 150.976 15.1486 151.046 15.1198C151.116 15.0911 151.191 15.0769 151.267 15.0781H152.421C152.575 15.0712 152.728 15.1171 152.853 15.2081C152.974 15.301 153.087 15.4047 153.189 15.5178L156.386 19.525L159.556 15.5333C159.658 15.4201 159.771 15.3165 159.892 15.2236C160.017 15.1326 160.169 15.0867 160.324 15.0935H161.428C161.505 15.0923 161.58 15.1065 161.651 15.1352C161.721 15.1639 161.785 15.2067 161.839 15.2608C161.891 15.3099 161.933 15.3689 161.961 15.4343C161.99 15.4997 162.006 15.5702 162.007 15.6417C162.008 15.7611 161.975 15.8783 161.91 15.9792L157.73 21.2127L162.085 26.6413C162.148 26.7413 162.182 26.8574 162.181 26.9758C162.18 27.0478 162.165 27.1189 162.136 27.1849C162.108 27.2509 162.066 27.3104 162.013 27.3598C161.96 27.4139 161.896 27.4566 161.825 27.4853C161.754 27.5141 161.679 27.5283 161.602 27.527H160.452C160.296 27.5342 160.143 27.4871 160.019 27.3938C159.898 27.3011 159.786 27.1974 159.683 27.0842L156.299 22.823L152.912 27.0563Z" fill="white"/>
<path d="M69.3465 50.2665H77.4148C77.4996 50.2659 77.5837 50.2827 77.6618 50.3157C77.7398 50.3487 77.8103 50.3973 77.8689 50.4585C77.9307 50.5171 77.9797 50.5878 78.0129 50.6661C78.046 50.7444 78.0627 50.8287 78.0617 50.9137V51.7746C78.0601 51.9449 77.9914 52.1078 77.8704 52.2283C77.7495 52.3487 77.5858 52.4171 77.4148 52.4187H67.7136C67.6284 52.42 67.5439 52.404 67.4653 52.3715C67.3866 52.339 67.3155 52.2908 67.2564 52.2298C67.1946 52.1712 67.1455 52.1005 67.1124 52.0222C67.0792 51.9438 67.0626 51.8596 67.0635 51.7746V36.328C67.063 36.2435 67.0798 36.1598 67.113 36.0821C67.1462 36.0043 67.1949 35.9342 67.2564 35.8759C67.3153 35.8143 67.3862 35.7655 67.4649 35.7325C67.5436 35.6995 67.6282 35.6829 67.7136 35.6839H77.2219C77.393 35.6855 77.5566 35.7539 77.6776 35.8743C77.7986 35.9948 77.8673 36.1577 77.8689 36.328V37.1889C77.8702 37.2737 77.8541 37.3578 77.8214 37.4361C77.7888 37.5144 77.7404 37.5852 77.6791 37.6441C77.6202 37.7056 77.5493 37.7544 77.4706 37.7875C77.3919 37.8205 77.3073 37.8371 77.2219 37.8361H69.3465V42.8807H76.6932C76.7783 42.8794 76.8628 42.8954 76.9415 42.9279C77.0201 42.9604 77.0912 43.0087 77.1504 43.0696C77.2122 43.1283 77.2612 43.1989 77.2944 43.2773C77.3275 43.3556 77.3442 43.4399 77.3432 43.5248V44.3857C77.3408 44.5566 77.2716 44.7199 77.1502 44.8407C77.0288 44.9616 76.8648 45.0306 76.6932 45.033H69.3465V50.2665Z" fill="white"/>
<path d="M91.9181 52.2297C91.859 52.2907 91.7879 52.3389 91.7092 52.3714C91.6306 52.4039 91.5461 52.42 91.4609 52.4186H90.5745C90.4893 52.42 90.4048 52.4039 90.3262 52.3714C90.2475 52.3389 90.1764 52.2907 90.1172 52.2297C90.0555 52.1711 90.0064 52.1004 89.9733 52.0221C89.9401 51.9438 89.9235 51.8595 89.9244 51.7745V45.4633C89.9244 44.268 89.6289 43.3586 89.038 42.7351C88.3562 42.1368 87.4787 41.8067 86.5699 41.8067C85.6611 41.8067 84.7836 42.1368 84.1018 42.7351C83.5026 43.3544 83.2019 44.2638 83.1998 45.4633V51.7745C83.1998 51.9453 83.1317 52.1092 83.0103 52.23C82.889 52.3507 82.7245 52.4186 82.5529 52.4186H81.6633C81.4922 52.417 81.3286 52.3486 81.2076 52.2282C81.0867 52.1077 81.018 51.9448 81.0164 51.7745V40.6262C81.0187 40.4558 81.0876 40.293 81.2083 40.1723C81.329 40.0515 81.4922 39.9822 81.6633 39.979H82.5529C82.7245 39.9806 82.8886 40.0494 83.0096 40.1705C83.1307 40.2916 83.199 40.4553 83.1998 40.6262V41.3663C83.5898 40.8746 84.0878 40.4784 84.6555 40.2081C85.3635 39.876 86.1406 39.7158 86.9229 39.7405C87.8606 39.7237 88.7869 39.9465 89.6134 40.3877C90.3944 40.8151 91.0324 41.4611 91.4485 42.2458C91.9081 43.1276 92.1361 44.1109 92.111 45.1041V51.7745C92.1119 51.8595 92.0953 51.9438 92.0621 52.0221C92.029 52.1004 91.9799 52.1711 91.9181 52.2297Z" fill="white"/>
<path d="M102.711 40.2144C103.279 40.4847 103.777 40.8809 104.167 41.3726V40.6325C104.168 40.4616 104.236 40.2979 104.357 40.1768C104.478 40.0557 104.642 39.9869 104.814 39.9853H105.703C105.874 39.9885 106.038 40.0578 106.158 40.1785C106.279 40.2993 106.348 40.4621 106.35 40.6325V52.2515C106.35 53.9423 105.87 55.2698 104.91 56.2339C103.95 57.198 102.541 57.6801 100.683 57.6801C99.6466 57.7116 98.6151 57.5237 97.6568 57.1289C96.9428 56.8409 96.3175 56.371 95.8435 55.7663C95.4799 55.2877 95.2638 54.7143 95.2214 54.1157C95.213 54.0315 95.225 53.9465 95.2564 53.8678C95.2878 53.7891 95.3377 53.7191 95.4018 53.6636C95.4626 53.6019 95.5352 53.5532 95.6154 53.5202C95.6956 53.4872 95.7816 53.4707 95.8684 53.4716H96.59C96.7547 53.4624 96.9172 53.513 97.0472 53.614C97.1908 53.758 97.3049 53.9284 97.3831 54.1157C97.5869 54.5349 97.9021 54.8905 98.2945 55.1438C98.7424 55.4638 99.4629 55.6238 100.456 55.6238C102.944 55.6238 104.189 54.5916 104.189 52.5271V51.019C103.371 52.1059 102.13 52.6448 100.456 52.6448C99.5096 52.6571 98.5768 52.4188 97.7533 51.9542C96.9383 51.4834 96.2666 50.8017 95.8093 49.9816C95.3031 49.06 95.0268 48.0309 95.0037 46.9808L94.9819 46.1911L95.0037 45.4015C95.0269 44.3608 95.2988 43.3407 95.7969 42.4255C96.2522 41.608 96.9191 40.9269 97.7284 40.4529C98.5551 39.9846 99.4927 39.7451 100.444 39.7592C101.225 39.7306 102.002 39.8866 102.711 40.2144ZM98.198 42.8095C97.5454 43.5694 97.184 44.5348 97.1779 45.5346L97.153 46.2035L97.1779 46.8724C97.184 47.8723 97.5454 48.8376 98.198 49.5976C98.5151 49.9345 98.9017 50.1989 99.3313 50.3726C99.7608 50.5464 100.223 50.6253 100.686 50.604C101.14 50.6259 101.594 50.5547 102.019 50.3949C102.445 50.2351 102.833 49.9901 103.159 49.675C103.814 48.9689 104.176 48.0413 104.17 47.0799C104.185 46.9189 104.192 46.634 104.192 46.219C104.192 45.804 104.192 45.516 104.17 45.3581C104.12 44.2433 103.783 43.3741 103.159 42.7507C102.832 42.4369 102.444 42.1928 102.019 42.0331C101.594 41.8734 101.14 41.8014 100.686 41.8216C100.224 41.7973 99.7629 41.8731 99.3333 42.0436C98.9037 42.2142 98.5164 42.4755 98.198 42.8095Z" fill="white"/>
<path d="M112.185 37.9073C112.126 37.9688 112.055 38.0176 111.977 38.0507C111.898 38.0837 111.813 38.1002 111.728 38.0993H110.353C110.268 38.0998 110.184 38.0831 110.106 38.05C110.028 38.017 109.958 37.9685 109.899 37.9073C109.837 37.8487 109.788 37.778 109.755 37.6997C109.722 37.6214 109.705 37.5371 109.706 37.4521V36.0895C109.708 35.9192 109.777 35.7563 109.898 35.6358C110.019 35.5154 110.182 35.447 110.353 35.4454H111.722C111.807 35.444 111.891 35.4601 111.97 35.4926C112.049 35.5251 112.12 35.5733 112.179 35.6343C112.241 35.6929 112.29 35.7636 112.323 35.8419C112.356 35.9202 112.373 36.0045 112.372 36.0895V37.4521C112.374 37.5366 112.358 37.6206 112.326 37.6989C112.294 37.7772 112.246 37.8481 112.185 37.9073ZM111.946 52.2298C111.887 52.2907 111.816 52.339 111.737 52.3715C111.658 52.4039 111.574 52.42 111.489 52.4187H110.602C110.517 52.42 110.432 52.4039 110.354 52.3715C110.275 52.339 110.204 52.2907 110.145 52.2298C110.083 52.1711 110.034 52.1004 110.001 52.0221C109.968 51.9438 109.951 51.8595 109.952 51.7745V40.6263C109.954 40.4553 110.024 40.2921 110.145 40.1713C110.267 40.0504 110.43 39.9814 110.602 39.979H111.489C111.66 39.9814 111.824 40.0504 111.946 40.1713C112.067 40.2921 112.136 40.4553 112.139 40.6263V51.7745C112.14 51.8595 112.123 51.9438 112.09 52.0221C112.057 52.1004 112.008 52.1711 111.946 52.2298Z" fill="white"/>
<path d="M126.642 52.2297C126.583 52.2907 126.512 52.3389 126.433 52.3714C126.355 52.4039 126.27 52.42 126.185 52.4186H125.299C125.213 52.42 125.129 52.4039 125.05 52.3714C124.972 52.3389 124.901 52.2907 124.841 52.2297C124.78 52.1711 124.731 52.1004 124.697 52.0221C124.664 51.9438 124.648 51.8595 124.649 51.7745V45.4633C124.649 44.268 124.353 43.3586 123.762 42.7351C123.08 42.1368 122.203 41.8067 121.294 41.8067C120.385 41.8067 119.508 42.1368 118.826 42.7351C118.227 43.3544 117.926 44.2638 117.924 45.4633V51.7745C117.924 51.9453 117.856 52.1092 117.734 52.23C117.613 52.3507 117.449 52.4186 117.277 52.4186H116.387C116.216 52.417 116.053 52.3486 115.932 52.2282C115.811 52.1077 115.742 51.9448 115.74 51.7745V40.6262C115.743 40.4558 115.812 40.293 115.932 40.1723C116.053 40.0515 116.216 39.9822 116.387 39.979H117.277C117.449 39.9806 117.613 40.0494 117.734 40.1705C117.855 40.2916 117.923 40.4553 117.924 40.6262V41.3663C118.314 40.8746 118.812 40.4784 119.38 40.2081C120.088 39.876 120.865 39.7158 121.647 39.7405C122.585 39.7237 123.511 39.9465 124.337 40.3877C125.119 40.8151 125.757 41.4611 126.173 42.2458C126.632 43.1276 126.86 44.1109 126.835 45.1041V51.7745C126.836 51.8595 126.819 51.9438 126.786 52.0221C126.753 52.1004 126.704 52.1711 126.642 52.2297Z" fill="white"/>
<path d="M139.298 41.3727C140.292 42.4565 140.788 43.9316 140.788 45.7979V46.4513C140.786 46.6223 140.716 46.7855 140.595 46.9063C140.474 47.0272 140.31 47.0962 140.138 47.0986H131.877V47.241C131.866 47.6976 131.947 48.1517 132.114 48.577C132.281 49.0023 132.532 49.3903 132.851 49.7184C133.168 50.0196 133.543 50.2543 133.953 50.4085C134.364 50.5628 134.801 50.6335 135.239 50.6165C135.876 50.6478 136.513 50.5422 137.106 50.3068C137.557 50.0919 137.962 49.791 138.297 49.4211C138.396 49.3143 138.514 49.2262 138.645 49.161C138.778 49.1057 138.921 49.0804 139.065 49.0867H139.784C139.873 49.0847 139.961 49.1007 140.044 49.1337C140.127 49.1667 140.202 49.216 140.266 49.2787C140.327 49.3366 140.374 49.4079 140.403 49.4868C140.432 49.5657 140.443 49.6503 140.434 49.7339C140.332 50.2351 140.085 50.6958 139.724 51.0593C139.235 51.57 138.635 51.9629 137.97 52.2082C137.096 52.5292 136.167 52.6775 135.236 52.6448C134.277 52.6612 133.331 52.4183 132.499 51.9419C131.699 51.4727 131.04 50.7991 130.589 49.9909C130.108 49.1334 129.817 48.1829 129.737 47.2039C129.706 46.727 129.69 46.3584 129.69 46.1045C129.69 45.8506 129.706 45.4852 129.737 45.0052C129.819 44.0606 130.11 43.1459 130.589 42.3265C131.048 41.5449 131.702 40.8942 132.487 40.4375C133.324 39.9639 134.274 39.7242 135.236 39.7438C136.953 39.7459 138.307 40.2888 139.298 41.3727ZM138.626 45.0888V45.0176C138.645 44.5853 138.571 44.1541 138.411 43.7522C138.25 43.3503 138.005 42.9868 137.693 42.6857C137.023 42.0807 136.14 41.7644 135.236 41.8062C134.363 41.786 133.516 42.1034 132.872 42.6919C132.55 42.9856 132.294 43.3444 132.122 43.7444C131.95 44.1443 131.865 44.5763 131.874 45.0114V45.0826L138.626 45.0888Z" fill="white"/>
<path d="M152.673 41.3725C153.666 42.4564 154.163 43.9314 154.163 45.7978V46.4512C154.16 46.6221 154.091 46.7853 153.97 46.9062C153.848 47.027 153.684 47.096 153.513 47.0984H145.255V47.2408C145.243 47.6972 145.323 48.1513 145.49 48.5766C145.657 49.0019 145.906 49.3899 146.225 49.7182C146.543 50.0194 146.918 50.2541 147.328 50.4083C147.738 50.5626 148.176 50.6333 148.614 50.6163C149.251 50.6471 149.887 50.5415 150.48 50.3066C150.93 50.0916 151.334 49.7907 151.668 49.4209C151.768 49.3141 151.886 49.226 152.017 49.1608C152.149 49.1055 152.293 49.0802 152.436 49.0865H153.158C153.247 49.0844 153.335 49.1004 153.417 49.1334C153.5 49.1664 153.574 49.2158 153.637 49.2785C153.698 49.3365 153.745 49.4077 153.774 49.4866C153.803 49.5655 153.814 49.6501 153.805 49.7337C153.705 50.2354 153.458 50.6965 153.096 51.0591C152.607 51.5694 152.008 51.9623 151.345 52.208C150.47 52.5283 149.542 52.6766 148.611 52.6447C147.651 52.6606 146.706 52.4177 145.874 51.9417C145.074 51.4717 144.415 50.7983 143.964 49.9907C143.484 49.1326 143.193 48.1825 143.112 47.2037C143.08 46.7268 143.065 46.3583 143.065 46.1043C143.065 45.8504 143.08 45.485 143.112 45.005C143.195 44.0607 143.486 43.1463 143.964 42.3263C144.433 41.5196 145.113 40.8541 145.931 40.4001C146.749 39.946 147.675 39.7203 148.611 39.7467C150.328 39.7467 151.682 40.2886 152.673 41.3725ZM152.001 45.0886V45.0174C152.019 44.5851 151.946 44.1539 151.785 43.752C151.624 43.3501 151.38 42.9866 151.068 42.6855C150.398 42.0805 149.514 41.7643 148.611 41.806C147.737 41.7865 146.89 42.1038 146.247 42.6917C145.925 42.9856 145.669 43.3445 145.498 43.7445C145.326 44.1445 145.242 44.5763 145.252 45.0112V45.0824L152.001 45.0886Z" fill="white"/>
<path d="M163.851 40.1771C163.913 40.2358 163.962 40.3065 163.995 40.3848C164.029 40.4631 164.045 40.5474 164.044 40.6324V41.3973C164.043 41.5681 163.973 41.7315 163.852 41.852C163.73 41.9725 163.566 42.0406 163.394 42.0414H162.016C161.118 42.0414 160.433 42.2767 159.96 42.7474C159.488 43.2181 159.254 43.8994 159.254 44.7913V51.7745C159.255 51.8595 159.239 51.9437 159.205 52.022C159.172 52.1004 159.123 52.171 159.061 52.2297C159.002 52.2906 158.931 52.3389 158.852 52.3714C158.774 52.4039 158.689 52.4199 158.604 52.4186H157.718C157.633 52.4199 157.548 52.4039 157.469 52.3714C157.391 52.3389 157.32 52.2906 157.261 52.2297C157.199 52.171 157.15 52.1004 157.117 52.022C157.083 51.9437 157.067 51.8595 157.068 51.7745V40.6262C157.07 40.4553 157.139 40.292 157.261 40.1712C157.382 40.0503 157.546 39.9814 157.718 39.9789H158.604C158.776 39.9814 158.94 40.0503 159.061 40.1712C159.183 40.292 159.252 40.4553 159.254 40.6262V41.3663C159.538 40.9216 159.935 40.5595 160.405 40.3165C160.956 40.0714 161.556 39.9559 162.159 39.9789H163.403C163.488 39.9801 163.571 39.9982 163.648 40.0323C163.725 40.0663 163.794 40.1156 163.851 40.1771Z" fill="white"/>
<path d="M168.377 37.9073C168.318 37.9685 168.248 38.017 168.17 38.05C168.092 38.0831 168.008 38.0998 167.923 38.0993H166.554C166.383 38.0969 166.219 38.0279 166.097 37.9071C165.976 37.7862 165.907 37.623 165.904 37.4521V36.0895C165.903 36.0045 165.92 35.9202 165.953 35.8419C165.986 35.7636 166.035 35.6929 166.097 35.6343C166.156 35.5733 166.227 35.5251 166.306 35.4926C166.385 35.4601 166.469 35.444 166.554 35.4454H167.923C168.094 35.447 168.257 35.5154 168.378 35.6358C168.499 35.7563 168.568 35.9192 168.57 36.0895V37.4521C168.571 37.5371 168.554 37.6214 168.521 37.6997C168.488 37.778 168.439 37.8487 168.377 37.9073ZM168.137 52.2298C168.079 52.2904 168.008 52.3384 167.93 52.3708C167.852 52.4033 167.768 52.4196 167.683 52.4187H166.794C166.709 52.42 166.624 52.4039 166.545 52.3715C166.467 52.339 166.396 52.2907 166.336 52.2298C166.275 52.1711 166.226 52.1004 166.192 52.0221C166.159 51.9438 166.143 51.8595 166.144 51.7745V40.6263C166.146 40.4553 166.215 40.2921 166.337 40.1713C166.458 40.0504 166.622 39.9814 166.794 39.979H167.683C167.768 39.9785 167.852 39.9953 167.93 40.0283C168.008 40.0613 168.079 40.1099 168.137 40.171C168.199 40.2297 168.248 40.3004 168.281 40.3787C168.314 40.457 168.331 40.5413 168.33 40.6263V51.7745C168.331 51.8595 168.314 51.9438 168.281 52.0221C168.248 52.1004 168.199 52.1711 168.137 52.2298Z" fill="white"/>
<path d="M182.824 52.2297C182.766 52.2903 182.695 52.3383 182.617 52.3708C182.539 52.4033 182.455 52.4195 182.37 52.4186H181.481C181.396 52.42 181.311 52.4039 181.232 52.3714C181.154 52.3389 181.083 52.2907 181.024 52.2297C180.962 52.1711 180.913 52.1004 180.88 52.0221C180.846 51.9438 180.83 51.8595 180.831 51.7745V45.4633C180.831 44.268 180.535 43.3586 179.944 42.7351C179.263 42.1368 178.385 41.8067 177.476 41.8067C176.567 41.8067 175.69 42.1368 175.008 42.7351C174.409 43.3544 174.109 44.2638 174.109 45.4633V51.7745C174.11 51.8595 174.094 51.9438 174.06 52.0221C174.027 52.1004 173.978 52.1711 173.916 52.2297C173.857 52.2907 173.786 52.3389 173.707 52.3714C173.629 52.4039 173.544 52.42 173.459 52.4186H172.573C172.488 52.42 172.403 52.4039 172.324 52.3714C172.246 52.3389 172.175 52.2907 172.115 52.2297C172.054 52.1711 172.005 52.1004 171.971 52.0221C171.938 51.9438 171.922 51.8595 171.923 51.7745V40.6262C171.925 40.4553 171.994 40.2921 172.116 40.1712C172.237 40.0503 172.401 39.9814 172.573 39.979H173.459C173.631 39.9814 173.795 40.0503 173.916 40.1712C174.038 40.2921 174.107 40.4553 174.109 40.6262V41.3663C174.498 40.8747 174.995 40.4784 175.562 40.2081C176.27 39.876 177.047 39.7158 177.829 39.7405C178.767 39.7234 179.693 39.9462 180.52 40.3877C181.301 40.8159 181.94 41.4616 182.358 42.2458C182.815 43.1283 183.042 44.1113 183.017 45.1041V51.7745C183.018 51.8595 183.002 51.9438 182.968 52.0221C182.935 52.1004 182.886 52.1711 182.824 52.2297Z" fill="white"/>
<path d="M193.63 40.2143C194.196 40.4854 194.693 40.8815 195.082 41.3725V40.6324C195.085 40.462 195.154 40.2992 195.274 40.1784C195.395 40.0577 195.558 39.9884 195.729 39.9852H196.619C196.704 39.9842 196.789 40.0008 196.868 40.0338C196.946 40.0668 197.017 40.1156 197.076 40.1772C197.137 40.2361 197.186 40.3069 197.218 40.3852C197.251 40.4635 197.267 40.5476 197.266 40.6324V52.2514C197.266 53.9422 196.786 55.2697 195.826 56.2338C194.866 57.1979 193.457 57.68 191.599 57.68C190.562 57.7115 189.531 57.5236 188.572 57.1288C187.859 56.8408 187.235 56.3708 186.762 55.7662C186.399 55.2876 186.182 54.7142 186.14 54.1156C186.132 54.0314 186.144 53.9464 186.175 53.8677C186.206 53.789 186.256 53.719 186.32 53.6635C186.381 53.6021 186.454 53.5535 186.534 53.5206C186.614 53.4876 186.7 53.4709 186.787 53.4715H187.49C187.655 53.462 187.817 53.5127 187.947 53.614C188.092 53.7571 188.206 53.9277 188.283 54.1156C188.487 54.5348 188.802 54.8904 189.194 55.1437C189.642 55.4637 190.368 55.6237 191.372 55.6237C193.86 55.6237 195.104 54.5915 195.104 52.527V51.0189C194.286 52.1058 193.045 52.6447 191.372 52.6447C190.425 52.657 189.492 52.4187 188.669 51.9541C187.854 51.4824 187.183 50.801 186.725 49.9815C186.219 49.0599 185.942 48.0308 185.919 46.9807L185.897 46.191L185.919 45.4014C185.942 44.3607 186.214 43.3406 186.712 42.4254C187.168 41.6071 187.836 40.9257 188.647 40.4528C189.472 39.9842 190.409 39.7447 191.359 39.7591C192.142 39.7309 192.919 39.8869 193.63 40.2143ZM189.114 42.8094C188.462 43.57 188.101 44.5349 188.093 45.5345L188.068 46.2034L188.093 46.8723C188.101 47.8719 188.462 48.8369 189.114 49.5975C189.431 49.934 189.818 50.1982 190.247 50.372C190.677 50.5457 191.139 50.6248 191.602 50.6039C192.056 50.6261 192.51 50.5551 192.935 50.3953C193.361 50.2355 193.748 49.9903 194.075 49.6749C194.73 48.9688 195.091 48.0412 195.085 47.0798C195.101 46.9188 195.107 46.6339 195.107 46.2189C195.107 45.8039 195.107 45.516 195.085 45.358C195.036 44.2432 194.699 43.374 194.075 42.7506C193.747 42.4365 193.359 42.1922 192.934 42.0325C192.509 41.8727 192.056 41.801 191.602 41.8215C191.14 41.7974 190.678 41.8733 190.249 42.0438C189.819 42.2143 189.432 42.4755 189.114 42.8094Z" fill="white"/>
<path d="M60.0278 30.7848C60.073 35.7821 58.8406 40.7087 56.4465 45.1011C54.0523 49.4935 50.5752 53.2074 46.3423 55.8932C47.6144 54.9354 48.6229 53.6732 49.2743 52.2238C49.9258 50.7743 50.199 49.1846 50.0687 47.6019C49.9384 46.0193 49.4088 44.4951 48.529 43.1706C47.6492 41.8461 46.4477 40.7643 45.0359 40.0255C44.516 39.6816 43.9322 39.4447 43.319 39.3287C42.6904 39.208 42.0438 39.2149 41.418 39.349C40.7921 39.4831 40.1999 39.7416 39.6768 40.1091C37.8772 41.3824 35.7349 42.088 33.5276 42.1344H33.1668C31.1841 42.17 29.2264 41.6897 27.4873 40.7408C25.8456 39.8338 24.5037 38.4719 23.6243 36.8203C22.6841 35.0249 22.2124 33.0229 22.2526 30.9985C22.213 28.9751 22.6846 26.9742 23.6243 25.1797C24.5019 23.5262 25.8428 22.1621 27.4842 21.253C29.2233 20.3041 31.181 19.8238 33.1637 19.8594C33.3286 19.8594 33.4748 19.8594 33.6521 19.8594C35.8164 19.9286 37.9121 20.6321 39.6768 21.8816C40.4274 22.4124 41.3167 22.7147 42.2366 22.7518C43.4728 22.801 44.6791 22.3651 45.5958 21.5379C45.6767 21.4636 45.7575 21.3861 45.8322 21.3087C47.0391 20.5026 48.0427 19.4298 48.7647 18.1739C49.4867 16.9181 49.9077 15.5132 49.9947 14.0688C50.0817 12.6244 49.8324 11.1795 49.2663 9.84676C48.7002 8.51403 47.8326 7.32949 46.7311 6.3855C50.7893 9.05276 54.1253 12.674 56.4443 16.9295C58.7634 21.1849 59.9941 25.9434 60.0278 30.7848Z" fill="white"/>
<path d="M50.0933 48.368C50.0943 49.8269 49.7548 51.266 49.1017 52.5719C48.4486 53.8778 47.4996 55.0147 46.3298 55.8931C45.7077 56.2854 45.0701 56.657 44.4169 57.0079C44.2054 57.1194 43.9939 57.2309 43.7948 57.3393C39.9466 59.2724 35.7206 60.3451 31.4125 60.4825H31.1668H30.918H29.7236H29.5587H29.3161H29.1171H29.0424C28.9823 60.4856 28.9221 60.4856 28.862 60.4825H28.6194H28.3924L28.0564 60.4577L27.8543 60.4391H27.7858H27.649L27.4624 60.4206H27.4344L27.1762 60.3927H27.1171L26.9678 60.3772L26.8216 60.3586L26.6195 60.3338L26.4484 60.3122L26.1374 60.2719L25.9943 60.2502L25.7517 60.1388L25.5775 60.1109L25.4686 60.0954L25.3131 60.0675L25.0985 60.0304L24.8839 59.9901H24.8155L24.6475 59.956C24.2649 59.8848 23.8886 59.8012 23.5153 59.7145L23.3505 59.6742L23.1888 59.634H23.1452L22.9524 59.5844L22.8342 59.5535L22.688 59.5132L22.4609 59.4544L22.3054 59.411C22.0628 59.3429 21.8233 59.2717 21.5807 59.1942L21.4594 59.1478L21.2914 59.0951L21.2137 59.0704L21.0706 59.0208L20.9058 58.9682L20.856 58.9496L20.6725 58.8877L20.461 58.8133L20.1997 58.7204L19.9478 58.6275L19.7736 58.5594L19.4625 58.4355L19.3381 58.386L19.2075 58.3333L19.0489 58.2683H19.024L18.8063 58.1754C18.3864 57.9989 17.9758 57.8131 17.5621 57.618L17.4004 57.5406L17.2822 57.4817L17.1951 57.4384L17.0489 57.3641L16.9618 57.3207L16.7939 57.234L16.3273 56.9894L16.0163 56.8128L15.9043 56.7478L15.7146 56.6425L15.5528 56.5496L15.4844 56.5094L15.3569 56.435L15.2076 56.3483L15.1454 56.3081L15.021 56.2338L14.8872 56.1532L14.4735 55.8931L14.3025 55.7847L14.1594 55.6918L14.0319 55.6082L13.8608 55.4936L13.6617 55.3574L13.5 55.2459L13.3818 55.1654L13.2574 55.0756L13.0583 54.9362L12.6664 54.6482L12.4923 54.5182L12.4611 54.4934L12.2901 54.3633C12.2842 54.3565 12.2767 54.3512 12.2683 54.3478L12.1283 54.2364L11.8453 54.0103L11.7053 53.8988L11.4938 53.7254C11.385 53.6387 11.2792 53.5489 11.1828 53.4591L10.9682 53.2733L10.8096 53.1339L10.7691 53.0998L10.6571 52.9977L10.5452 52.8986L10.4799 52.8397L10.3586 52.7282L10.2093 52.592L10.0662 52.4588L9.892 52.2916L9.441 51.8519L9.33525 51.7466L9.00244 51.4028L8.86247 51.2573L8.69762 51.0808C8.47679 50.8454 8.25906 50.6039 8.04445 50.3592L7.90759 50.1982L7.78318 50.0526L7.68676 49.9412L7.58723 49.8204L7.5499 49.7739L7.41927 49.616C7.3073 49.4797 7.19532 49.3404 7.08646 49.201L6.9465 49.0214L6.73499 48.7489L6.61369 48.5817C6.57014 48.5259 6.5266 48.464 6.48305 48.4052C6.45849 48.3744 6.43565 48.3424 6.41463 48.3092L6.2871 48.1389L6.1378 47.9252C5.93252 47.631 5.73035 47.3368 5.5344 47.0364L5.45042 46.9033L5.33533 46.7236L5.21092 46.5254L5.06784 46.2901L4.96831 46.1291C4.95046 46.095 4.93073 46.0619 4.90922 46.03L4.7848 45.8194L4.71637 45.6955C4.65106 45.5871 4.58885 45.4757 4.52664 45.3642C4.50798 45.3301 4.48621 45.296 4.46755 45.2589C4.44888 45.2217 4.42089 45.1784 4.39912 45.135C4.40015 45.1257 4.40015 45.1164 4.39912 45.1071C3.88296 44.1372 3.70097 43.0254 3.88113 41.9425C4.0613 40.8596 4.59364 39.8655 5.39635 39.1131C6.19906 38.3607 7.22772 37.8915 8.32425 37.7777C9.42079 37.6639 10.5245 37.9118 11.4658 38.4832C11.5467 38.5327 11.6245 38.5854 11.7022 38.638C12.3839 39.1064 12.9403 39.7336 13.3227 40.4651C13.5062 40.815 13.6991 41.1588 13.9044 41.4994C15.7431 44.5478 18.3892 47.0334 21.5527 48.6839C24.6625 50.2999 28.1045 51.1805 31.6116 51.2573C31.9226 51.2573 32.271 51.2759 32.6038 51.2759C35.927 51.327 39.2239 50.6812 42.2801 49.3807C43.2291 48.9667 44.1433 48.4779 45.0141 47.919C45.6769 47.4944 46.2215 46.9103 46.5977 46.2208C46.9739 45.5312 47.1695 44.7584 47.1665 43.9737C47.1666 42.9716 46.8463 41.9955 46.252 41.1867C45.92 40.7386 45.5128 40.3509 45.0483 40.0409C46.5704 40.8408 47.8445 42.0389 48.7335 43.5062C49.6224 44.9735 50.0926 46.6544 50.0933 48.368Z" fill="white"/>
<path d="M50.0125 13.5173C50.0152 14.9826 49.6727 16.428 49.0126 17.7376C48.3525 19.0472 47.3932 20.1844 46.2116 21.0579C46.0893 21.1487 45.9649 21.2355 45.8384 21.318C46.3237 20.8184 46.6919 20.2181 46.9166 19.5601C47.1414 18.902 47.2171 18.2027 47.1383 17.5121C47.0595 16.8215 46.8282 16.1568 46.4609 15.5657C46.0937 14.9747 45.5996 14.4718 45.0141 14.0933C44.1434 13.5334 43.2292 13.0435 42.2801 12.6286C39.2204 11.3292 35.9205 10.6845 32.5945 10.7364C32.2461 10.7364 31.904 10.7364 31.565 10.755C28.0749 10.8361 24.6499 11.7121 21.5528 13.316C18.3691 14.9711 15.707 17.4704 13.8609 20.5377C13.1772 21.6688 12.6133 22.8674 12.1782 24.1144C11.8378 25.1064 11.1941 25.9674 10.3372 26.5767C9.48043 27.1859 8.45354 27.5128 7.40065 27.5115H7.31667C6.50646 27.5097 5.70866 27.3132 4.99109 26.9386C4.27353 26.564 3.6574 26.0225 3.19509 25.36C2.73278 24.6976 2.43796 23.9338 2.33567 23.1335C2.23339 22.3333 2.32668 21.5203 2.6076 20.7637C4.71129 15.1133 8.50207 10.2396 13.4703 6.79784C18.4385 3.35605 24.346 1.51117 30.3986 1.51123C30.7324 1.51123 31.0652 1.51742 31.397 1.52981C35.5836 1.66134 39.6938 2.68122 43.4527 4.52127L43.7638 4.66991C44.7916 5.18829 45.7886 5.76525 46.7497 6.3979C47.7768 7.28036 48.6001 8.37345 49.1633 9.60228C49.7264 10.8311 50.0161 12.1666 50.0125 13.5173Z" fill="white"/>
<path d="M50.0124 13.5081C50.0165 14.9749 49.6748 16.4222 49.0146 17.7335C48.3545 19.0448 47.3943 20.1835 46.2115 21.058C47.9191 19.5096 52.0932 14.146 43.4526 4.52441L43.7637 4.66996C44.7915 5.18834 45.7885 5.76529 46.7496 6.39795C47.7755 7.27939 48.5981 8.37098 49.1612 9.5981C49.7243 10.8252 50.0147 12.1589 50.0124 13.5081Z" fill="white"/>
<path d="M50.0934 48.3682C50.0944 49.827 49.7549 51.2661 49.1018 52.572C48.4487 53.8779 47.4997 55.0149 46.3299 55.8933C45.7078 56.2855 45.0702 56.6571 44.417 57.0081C44.2055 57.1196 43.994 57.2311 43.7949 57.3395C50.9487 48.8048 48.1743 43.4041 46.2677 41.1775C45.9088 40.7538 45.5052 40.3697 45.0639 40.0317C46.5845 40.8344 47.8564 42.0349 48.7426 43.5039C49.6289 44.9728 50.0959 46.6546 50.0934 48.3682Z" fill="white"/>
<path d="M11.665 25.1673C11.2097 25.8828 10.5799 26.4718 9.83426 26.8796C9.08862 27.2873 8.25142 27.5005 7.40072 27.4992H7.31674C6.50589 27.4982 5.70729 27.3022 4.98899 26.9276C4.2707 26.5531 3.654 26.0112 3.19148 25.3481C2.72895 24.685 2.4343 23.9204 2.33265 23.1195C2.231 22.3186 2.32535 21.505 2.60767 20.7482C4.71199 15.0988 8.50311 10.2261 13.4713 6.78546C18.4396 3.34478 24.3467 1.50098 30.3987 1.50195C30.7315 1.50195 31.0643 1.50195 31.3971 1.51744C10.2 3.29807 11.665 25.1673 11.665 25.1673Z" fill="white"/>
<path d="M31.3939 60.4825H31.1481H30.8993H29.7236H29.5588H29.3161H29.1171H29.0424C28.9823 60.4856 28.9221 60.4856 28.862 60.4825H28.6194H28.3924L28.0565 60.4577L27.8543 60.4391H27.7859H27.649L27.4624 60.4206H27.4344L27.1762 60.3927H27.1171L26.9678 60.3772L26.8216 60.3586L26.6195 60.3338L26.4484 60.3122L26.1374 60.2719L25.9943 60.2502L25.7517 60.1388L25.5775 60.1109L25.4686 60.0954L25.3131 60.0675L25.0985 60.0304L24.8839 59.9901H24.8155L24.6475 59.956C24.2649 59.8848 23.8886 59.8012 23.5153 59.7145L23.3505 59.6742L23.1888 59.634H23.1452L22.9524 59.5844L22.8342 59.5535L22.688 59.5132L22.4609 59.4544L22.3054 59.411C22.0628 59.3429 21.8233 59.2717 21.5807 59.1942L21.4594 59.1478L21.2914 59.0951L21.2137 59.0704L21.0706 59.0208L20.9058 58.9682L20.856 58.9496L20.6725 58.8877L20.461 58.8133L20.1997 58.7204L19.9478 58.6275L19.7736 58.5594L19.4626 58.4355L19.3381 58.386L19.2075 58.3333L19.0489 58.2683H19.024L18.8063 58.1754C18.3864 57.9989 17.9758 57.8131 17.5621 57.618L17.4004 57.5406L17.2822 57.4817L17.1951 57.4384L17.0489 57.3641L16.9618 57.3207L16.7939 57.234L16.3273 56.9894L16.0163 56.8128L15.9043 56.7478L15.7146 56.6425L15.5528 56.5496L15.4844 56.5094L15.3569 56.435L15.2076 56.3483L15.1454 56.3081L15.021 56.2338L14.8872 56.1532L14.4735 55.8931L14.3025 55.7847L14.1594 55.6918L14.0319 55.6082L13.8608 55.4936L13.6617 55.3574L13.5 55.2459L13.3818 55.1654L13.2574 55.0756L13.0583 54.9362L12.6664 54.6482L12.4923 54.5182L12.4612 54.4934L12.2901 54.3633C12.2842 54.3565 12.2767 54.3512 12.2683 54.3478L12.1283 54.2364L11.8453 54.0103L11.7053 53.8988L11.4938 53.7254C11.385 53.6387 11.2792 53.5489 11.1828 53.4591L10.9682 53.2733L10.8096 53.1339L10.7691 53.0998L10.6571 52.9977L10.5452 52.8986L10.4799 52.8397L10.3586 52.7282L10.2093 52.592L10.0662 52.4588L9.892 52.2916L9.441 51.8519L9.33525 51.7466L9.00244 51.4028L8.86247 51.2573L8.69762 51.0808C8.47679 50.8454 8.25906 50.6039 8.04445 50.3592L7.90759 50.1982L7.78318 50.0526L7.68676 49.9412L7.58723 49.8204L7.5499 49.7739L7.41927 49.616C7.3073 49.4797 7.19532 49.3404 7.08646 49.201L6.9465 49.0214L6.73499 48.7489L6.61369 48.5817C6.57014 48.5259 6.5266 48.464 6.48305 48.4052C6.45849 48.3744 6.43565 48.3424 6.41463 48.3092L6.2871 48.1389L6.1378 47.9252C5.93252 47.631 5.73035 47.3368 5.5344 47.0364L5.45042 46.9033L5.33533 46.7236L5.21092 46.5254L5.06784 46.2901L4.96831 46.1291C4.95046 46.095 4.93073 46.0619 4.90922 46.03L4.7848 45.8194L4.71637 45.6955C4.65106 45.5871 4.58885 45.4757 4.52664 45.3642C4.50798 45.3301 4.48621 45.296 4.46755 45.2589C4.44888 45.2217 4.42089 45.1784 4.39912 45.135C4.40015 45.1257 4.40015 45.1164 4.39912 45.1071C3.88296 44.1372 3.70097 43.0254 3.88113 41.9425C4.0613 40.8596 4.59364 39.8655 5.39635 39.1131C6.19906 38.3607 7.22772 37.8915 8.32425 37.7777C9.42079 37.6639 10.5245 37.9118 11.4658 38.4832C11.5467 38.5327 11.6245 38.5854 11.7022 38.638C11.8484 43.8591 13.9137 59.0084 31.3939 60.4825Z" fill="white"/>
</svg>
