<svg width="35" height="26" viewBox="0 0 35 26" fill="none" xmlns="http://www.w3.org/2000/svg">
<g clip-path="url(#clip0_68_11555)">
<path d="M0.796776 0.5C0.357393 0.5 0 0.945703 0 1.55178V3.61472C0 4.1958 0.346181 4.66649 0.798178 4.66649H34.2046C34.6447 4.66649 35.0021 4.22079 35.0021 3.61472V1.55178C35.0021 0.970696 34.6559 0.5 34.2046 0.5H0.796776ZM0.796776 10.9168C0.357393 10.9168 0 11.3625 0 11.9685V14.0304C0 14.6105 0.346181 15.0822 0.798178 15.0822H34.2046C34.6447 15.0822 35.0021 14.6365 35.0021 14.0304V11.9685C35.0021 11.3874 34.6559 10.9168 34.2046 10.9168H0.796776ZM0.796776 21.3325C0.357393 21.3325 0 21.7792 0 22.3853V24.4482C0 25.0283 0.346181 25.5 0.798178 25.5H34.2046C34.6447 25.5 35.0021 25.0543 35.0021 24.4482V22.3853C35.0021 21.8042 34.6559 21.3325 34.2046 21.3325H0.796776Z" fill="white"/>
<path d="M0.796776 0.5C0.357393 0.5 0 0.945703 0 1.55178V3.61472C0 4.1958 0.346181 4.66649 0.798178 4.66649H34.2046C34.6447 4.66649 35.0021 4.22079 35.0021 3.61472V1.55178C35.0021 0.970696 34.6559 0.5 34.2046 0.5H0.796776ZM0.796776 10.9168C0.357393 10.9168 0 11.3625 0 11.9685V14.0304C0 14.6105 0.346181 15.0822 0.798178 15.0822H34.2046C34.6447 15.0822 35.0021 14.6365 35.0021 14.0304V11.9685C35.0021 11.3874 34.6559 10.9168 34.2046 10.9168H0.796776ZM0.796776 21.3325C0.357393 21.3325 0 21.7792 0 22.3853V24.4482C0 25.0283 0.346181 25.5 0.798178 25.5H34.2046C34.6447 25.5 35.0021 25.0543 35.0021 24.4482V22.3853C35.0021 21.8042 34.6559 21.3325 34.2046 21.3325H0.796776Z" fill="#1C63B8"/>
</g>
<defs>
<clipPath id="clip0_68_11555">
<rect width="35" height="25" fill="white" transform="translate(0 0.5)"/>
</clipPath>
</defs>
</svg>
